M48
; DRILL file {KiCad 5.1.6} date Sun Jun  7 21:02:04 2020
; FORMAT={-:-/ absolute / inch / decimal}
; #@! TF.CreationDate,2020-06-07T21:02:04+02:00
; #@! TF.GenerationSoftware,Kicad,Pcbnew,5.1.6
; #@! TF.FileFunction,Plated,1,2,PTH
FMAT,2
INCH
T1C0.0118
T2C0.0217
T3C0.0335
T4C0.0394
T5C0.0591
T6C0.0984
%
G90
G05
T1
X2.0033Y-5.4108
X2.0498Y-5.4358
X2.0783Y-5.3608
X2.4033Y-5.5108
X2.6283Y-6.0108
X2.7538Y-5.9104
X2.8033Y-6.0108
X2.8533Y-5.6608
X2.8783Y-5.7108
X2.8783Y-6.5358
X2.9209Y-5.2823
X2.9283Y-5.5858
X2.9533Y-5.5394
X2.9533Y-5.7358
X2.9726Y-5.9385
X3.0312Y-5.4441
X3.0312Y-5.4776
X3.0533Y-5.5394
X3.08Y-5.3342
X3.13Y-5.3842
X3.1533Y-5.3358
X3.1722Y-5.8419
X3.2283Y-5.8577
X3.2358Y-5.2823
X3.2783Y-5.8608
X3.3248Y-5.8644
X3.4033Y-5.4108
X3.4283Y-5.5358
X3.4533Y-5.4972
X3.4783Y-5.2358
X3.4783Y-5.3823
X3.5033Y-5.5608
X3.9533Y-5.5608
X4.6335Y-6.1114
X5.3835Y-6.1394
X6.1335Y-6.1858
X6.8835Y-6.2409
X7.7783Y-5.9358
X8.3835Y-5.4108
X9.1335Y-5.3823
X9.8972Y-5.4972
X10.6335Y-6.8858
X11.4533Y-6.3108
X12.2283Y-5.5858
X12.3533Y-5.3358
X12.4283Y-5.1108
X12.4577Y-5.3358
X12.499Y-5.3358
X12.5033Y-5.0358
X12.9248Y-5.5323
T4
X2.6533Y-6.1108
X2.6533Y-6.2108
X2.6533Y-6.3108
X2.7533Y-6.1108
X2.7533Y-6.2108
X2.7533Y-6.3108
T5
X10.4783Y-4.8858
X10.7283Y-4.9858
X10.4783Y-7.8858
X10.7283Y-7.9858
X4.4783Y-6.3858
X4.7283Y-6.4858
X6.7283Y-7.8858
X6.9783Y-7.9858
X5.9783Y-7.8858
X6.2283Y-7.9858
X3.7283Y-7.8858
X3.9783Y-7.9858
X8.2283Y-4.8858
X8.4783Y-4.9858
X8.9783Y-7.1358
X9.2283Y-7.2358
X7.4783Y-5.6358
X7.7283Y-5.7358
X11.9783Y-7.1358
X12.2283Y-7.2358
X7.4783Y-6.3858
X7.7283Y-6.4858
X10.4783Y-5.6358
X10.7283Y-5.7358
X4.4783Y-7.8858
X4.7283Y-7.9858
X12.7283Y-7.1358
X12.9783Y-7.2358
X10.4783Y-7.1358
X10.7283Y-7.2358
X9.7283Y-5.6358
X9.9783Y-5.7358
X7.8033Y-8.1858
X8.0533Y-8.2858
X2.9783Y-7.8858
X3.2283Y-7.9858
X2.9783Y-4.8858
X3.2283Y-4.9858
X5.2283Y-7.8858
X5.4783Y-7.9858
X5.9783Y-5.6358
X6.2283Y-5.7358
X9.7283Y-7.1358
X9.9783Y-7.2358
X8.9783Y-5.6358
X9.2283Y-5.7358
X10.4783Y-6.3858
X10.7283Y-6.4858
X6.7283Y-7.1358
X6.9783Y-7.2358
X5.9783Y-7.1358
X6.2283Y-7.2358
X5.2283Y-6.3858
X5.4783Y-6.4858
X2.9783Y-7.1358
X3.2283Y-7.2358
X5.9783Y-4.8858
X6.2283Y-4.9858
X2.2283Y-5.6358
X2.4783Y-5.7358
X11.2283Y-7.8858
X11.4783Y-7.9858
X5.9783Y-6.3858
X6.2283Y-6.4858
X7.4783Y-4.8858
X7.7283Y-4.9858
X12.7283Y-6.3858
X12.9783Y-6.4858
X8.2283Y-7.1358
X8.4783Y-7.2358
X2.2283Y-4.8858
X2.4783Y-4.9858
X12.7283Y-5.6358
X12.9783Y-5.7358
X5.2283Y-5.6358
X5.4783Y-5.7358
X3.7283Y-6.3858
X3.9783Y-6.4858
X11.2283Y-5.6358
X11.4783Y-5.7358
X7.4783Y-7.1358
X7.7283Y-7.2358
X5.2283Y-4.8858
X5.4783Y-4.9858
X4.4783Y-7.1358
X4.7283Y-7.2358
X9.3033Y-8.1858
X9.5533Y-8.2858
X2.2283Y-6.3858
X2.4783Y-6.4858
X8.2283Y-6.3858
X8.4783Y-6.4858
X6.7283Y-6.3858
X6.9783Y-6.4858
X11.9783Y-6.3858
X12.2283Y-6.4858
X8.9783Y-4.8858
X9.2283Y-4.9858
X9.7283Y-6.3858
X9.9783Y-6.4858
X6.7283Y-5.6358
X6.9783Y-5.7358
X2.2283Y-7.8858
X2.4783Y-7.9858
X12.7283Y-4.8858
X12.9783Y-4.9858
X11.2283Y-7.1358
X11.4783Y-7.2358
X12.7283Y-7.8858
X12.9783Y-7.9858
X2.2283Y-7.1358
X2.4783Y-7.2358
X8.2283Y-5.6358
X8.4783Y-5.7358
X9.7283Y-4.8858
X9.9783Y-4.9858
X8.9783Y-6.3858
X9.2283Y-6.4858
X4.4783Y-4.8858
X4.7283Y-4.9858
X11.9783Y-4.8858
X12.2283Y-4.9858
X6.7283Y-4.8858
X6.9783Y-4.9858
X11.2283Y-6.3858
X11.4783Y-6.4858
X5.2283Y-7.1358
X5.4783Y-7.2358
X11.2283Y-4.8858
X11.4783Y-4.9858
X3.7283Y-7.1358
X3.9783Y-7.2358
X3.7283Y-4.8858
X3.9783Y-4.9858
X11.9783Y-7.8858
X12.2283Y-7.9858
X11.9283Y-5.9358
X12.1783Y-6.0358
X2.978Y-6.0114
X3.228Y-6.1114
X4.4783Y-5.6358
X4.7283Y-5.7358
X3.7283Y-5.6358
X3.9783Y-5.7358
T2
G00X12.3224Y-4.8069
M15
G01X12.3224Y-4.7813
M16
G05
G00X12.6276Y-4.8069
M15
G01X12.6276Y-4.7813
M16
G05
T3
G00X12.3283Y-4.9545
M15
G01X12.3283Y-4.9328
M16
G05
G00X12.6217Y-4.9545
M15
G01X12.6217Y-4.9328
M16
G05
T6
G00X13.0413Y-6.9488
M15
G01X13.2185Y-6.9488
M16
G05
G00X1.939Y-6.9488
M15
G01X2.1161Y-6.9488
M16
G05
T0
M30
