%TF.GenerationSoftware,KiCad,Pcbnew,5.1.6*%
%TF.CreationDate,2020-06-07T21:01:59+02:00*%
%TF.ProjectId,DWZG60,44575a47-3630-42e6-9b69-6361645f7063,1*%
%TF.SameCoordinates,Original*%
%TF.FileFunction,Legend,Bot*%
%TF.FilePolarity,Positive*%
%FSLAX46Y46*%
G04 Gerber Fmt 4.6, Leading zero omitted, Abs format (unit mm)*
G04 Created by KiCad (PCBNEW 5.1.6) date 2020-06-07 21:01:59*
%MOMM*%
%LPD*%
G01*
G04 APERTURE LIST*
%ADD10C,0.120000*%
%ADD11C,0.150000*%
G04 APERTURE END LIST*
D10*
%TO.C,SW28*%
X104225000Y-155215000D02*
X104225000Y-141245000D01*
X90255000Y-155215000D02*
X104225000Y-155215000D01*
X90255000Y-141245000D02*
X90255000Y-155215000D01*
X104225000Y-141245000D02*
X90255000Y-141245000D01*
%TO.C,SW43*%
X85165000Y-150785000D02*
X71195000Y-150785000D01*
X71195000Y-150785000D02*
X71195000Y-164755000D01*
X71195000Y-164755000D02*
X85165000Y-164755000D01*
X85165000Y-164755000D02*
X85165000Y-150785000D01*
%TO.C,SW46*%
X313775000Y-193315000D02*
X313775000Y-179345000D01*
X299805000Y-193315000D02*
X313775000Y-193315000D01*
X299805000Y-179345000D02*
X299805000Y-193315000D01*
X313775000Y-179345000D02*
X299805000Y-179345000D01*
%TO.C,SW25*%
X161375000Y-155215000D02*
X161375000Y-141245000D01*
X147405000Y-155215000D02*
X161375000Y-155215000D01*
X147405000Y-141245000D02*
X147405000Y-155215000D01*
X161375000Y-141245000D02*
X147405000Y-141245000D01*
%TO.C,SW70*%
X104225000Y-212365000D02*
X104225000Y-198395000D01*
X90255000Y-212365000D02*
X104225000Y-212365000D01*
X90255000Y-198395000D02*
X90255000Y-212365000D01*
X104225000Y-198395000D02*
X90255000Y-198395000D01*
%TO.C,SW29*%
X66125000Y-141245000D02*
X52155000Y-141245000D01*
X52155000Y-141245000D02*
X52155000Y-155215000D01*
X52155000Y-155215000D02*
X66125000Y-155215000D01*
X66125000Y-155215000D02*
X66125000Y-141245000D01*
%TO.C,SW15*%
X66125000Y-122195000D02*
X52155000Y-122195000D01*
X52155000Y-122195000D02*
X52155000Y-136165000D01*
X52155000Y-136165000D02*
X66125000Y-136165000D01*
X66125000Y-136165000D02*
X66125000Y-122195000D01*
%TO.C,SW38*%
X180425000Y-174265000D02*
X180425000Y-160295000D01*
X166455000Y-174265000D02*
X180425000Y-174265000D01*
X166455000Y-160295000D02*
X166455000Y-174265000D01*
X180425000Y-160295000D02*
X166455000Y-160295000D01*
%TO.C,SW24*%
X180425000Y-141245000D02*
X166455000Y-141245000D01*
X166455000Y-141245000D02*
X166455000Y-155215000D01*
X166455000Y-155215000D02*
X180425000Y-155215000D01*
X180425000Y-155215000D02*
X180425000Y-141245000D01*
%TO.C,SW61*%
X313775000Y-198395000D02*
X299805000Y-198395000D01*
X299805000Y-198395000D02*
X299805000Y-212365000D01*
X299805000Y-212365000D02*
X313775000Y-212365000D01*
X313775000Y-212365000D02*
X313775000Y-198395000D01*
%TO.C,SW31*%
X313775000Y-160295000D02*
X299805000Y-160295000D01*
X299805000Y-160295000D02*
X299805000Y-174265000D01*
X299805000Y-174265000D02*
X313775000Y-174265000D01*
X313775000Y-174265000D02*
X313775000Y-160295000D01*
%TO.C,SW17*%
X299805000Y-155215000D02*
X313775000Y-155215000D01*
X313775000Y-155215000D02*
X313775000Y-141245000D01*
X313775000Y-141245000D02*
X299805000Y-141245000D01*
X299805000Y-141245000D02*
X299805000Y-155215000D01*
%TO.C,SW2*%
X313775000Y-122195000D02*
X299805000Y-122195000D01*
X299805000Y-122195000D02*
X299805000Y-136165000D01*
X299805000Y-136165000D02*
X313775000Y-136165000D01*
X313775000Y-136165000D02*
X313775000Y-122195000D01*
%TO.C,SW4*%
X275675000Y-136165000D02*
X275675000Y-122195000D01*
X261705000Y-136165000D02*
X275675000Y-136165000D01*
X261705000Y-122195000D02*
X261705000Y-136165000D01*
X275675000Y-122195000D02*
X261705000Y-122195000D01*
%TO.C,SW34*%
X256625000Y-174265000D02*
X256625000Y-160295000D01*
X242655000Y-174265000D02*
X256625000Y-174265000D01*
X242655000Y-160295000D02*
X242655000Y-174265000D01*
X256625000Y-160295000D02*
X242655000Y-160295000D01*
%TO.C,SW5*%
X256625000Y-136165000D02*
X256625000Y-122195000D01*
X242655000Y-136165000D02*
X256625000Y-136165000D01*
X242655000Y-122195000D02*
X242655000Y-136165000D01*
X256625000Y-122195000D02*
X242655000Y-122195000D01*
%TO.C,SW37*%
X199475000Y-160295000D02*
X185505000Y-160295000D01*
X185505000Y-160295000D02*
X185505000Y-174265000D01*
X185505000Y-174265000D02*
X199475000Y-174265000D01*
X199475000Y-174265000D02*
X199475000Y-160295000D01*
%TO.C,SW66*%
X180425000Y-212365000D02*
X180425000Y-198395000D01*
X166455000Y-212365000D02*
X180425000Y-212365000D01*
X166455000Y-198395000D02*
X166455000Y-212365000D01*
X180425000Y-198395000D02*
X166455000Y-198395000D01*
%TO.C,SW67*%
X161375000Y-212365000D02*
X161375000Y-198395000D01*
X147405000Y-212365000D02*
X161375000Y-212365000D01*
X147405000Y-198395000D02*
X147405000Y-212365000D01*
X161375000Y-198395000D02*
X147405000Y-198395000D01*
%TO.C,SW42*%
X104225000Y-174265000D02*
X104225000Y-160295000D01*
X90255000Y-174265000D02*
X104225000Y-174265000D01*
X90255000Y-160295000D02*
X90255000Y-174265000D01*
X104225000Y-160295000D02*
X90255000Y-160295000D01*
%TO.C,SW12*%
X123275000Y-122195000D02*
X109305000Y-122195000D01*
X109305000Y-122195000D02*
X109305000Y-136165000D01*
X109305000Y-136165000D02*
X123275000Y-136165000D01*
X123275000Y-136165000D02*
X123275000Y-122195000D01*
%TO.C,SW71*%
X85175000Y-198395000D02*
X71205000Y-198395000D01*
X71205000Y-198395000D02*
X71205000Y-212365000D01*
X71205000Y-212365000D02*
X85175000Y-212365000D01*
X85175000Y-212365000D02*
X85175000Y-198395000D01*
%TO.C,SW72*%
X66125000Y-212365000D02*
X66125000Y-198395000D01*
X52155000Y-212365000D02*
X66125000Y-212365000D01*
X52155000Y-198395000D02*
X52155000Y-212365000D01*
X66125000Y-198395000D02*
X52155000Y-198395000D01*
%TO.C,SW59*%
X66125000Y-179345000D02*
X52155000Y-179345000D01*
X52155000Y-179345000D02*
X52155000Y-193315000D01*
X52155000Y-193315000D02*
X66125000Y-193315000D01*
X66125000Y-193315000D02*
X66125000Y-179345000D01*
%TO.C,SW36*%
X218525000Y-174265000D02*
X218525000Y-160295000D01*
X204555000Y-174265000D02*
X218525000Y-174265000D01*
X204555000Y-160295000D02*
X204555000Y-174265000D01*
X218525000Y-160295000D02*
X204555000Y-160295000D01*
%TO.C,SW65*%
X195030000Y-198395000D02*
X195030000Y-212365000D01*
X209000000Y-198395000D02*
X195030000Y-198395000D01*
X209000000Y-212365000D02*
X209000000Y-198395000D01*
X195030000Y-212365000D02*
X209000000Y-212365000D01*
%TO.C,SW64*%
X233130000Y-198395000D02*
X233130000Y-212365000D01*
X247100000Y-198395000D02*
X233130000Y-198395000D01*
X247100000Y-212365000D02*
X247100000Y-198395000D01*
X233130000Y-212365000D02*
X247100000Y-212365000D01*
%TO.C,SW1*%
X332825000Y-136165000D02*
X332825000Y-122195000D01*
X318855000Y-136165000D02*
X332825000Y-136165000D01*
X318855000Y-122195000D02*
X318855000Y-136165000D01*
X332825000Y-122195000D02*
X318855000Y-122195000D01*
%TO.C,SW14*%
X85175000Y-122195000D02*
X71205000Y-122195000D01*
X71205000Y-122195000D02*
X71205000Y-136165000D01*
X71205000Y-136165000D02*
X85175000Y-136165000D01*
X85175000Y-136165000D02*
X85175000Y-122195000D01*
%TO.C,SW60*%
X332825000Y-212365000D02*
X332825000Y-198395000D01*
X318855000Y-212365000D02*
X332825000Y-212365000D01*
X318855000Y-198395000D02*
X318855000Y-212365000D01*
X332825000Y-198395000D02*
X318855000Y-198395000D01*
%TO.C,SW3*%
X294725000Y-136165000D02*
X294725000Y-122195000D01*
X280755000Y-136165000D02*
X294725000Y-136165000D01*
X280755000Y-122195000D02*
X280755000Y-136165000D01*
X294725000Y-122195000D02*
X280755000Y-122195000D01*
%TO.C,SW6*%
X237575000Y-136165000D02*
X237575000Y-122195000D01*
X223605000Y-136165000D02*
X237575000Y-136165000D01*
X223605000Y-122195000D02*
X223605000Y-136165000D01*
X237575000Y-122195000D02*
X223605000Y-122195000D01*
%TO.C,SW7*%
X218525000Y-136165000D02*
X218525000Y-122195000D01*
X204555000Y-136165000D02*
X218525000Y-136165000D01*
X204555000Y-122195000D02*
X204555000Y-136165000D01*
X218525000Y-122195000D02*
X204555000Y-122195000D01*
%TO.C,SW8*%
X199475000Y-122195000D02*
X185505000Y-122195000D01*
X185505000Y-122195000D02*
X185505000Y-136165000D01*
X185505000Y-136165000D02*
X199475000Y-136165000D01*
X199475000Y-136165000D02*
X199475000Y-122195000D01*
%TO.C,SW9*%
X180425000Y-136165000D02*
X180425000Y-122195000D01*
X166455000Y-136165000D02*
X180425000Y-136165000D01*
X166455000Y-122195000D02*
X166455000Y-136165000D01*
X180425000Y-122195000D02*
X166455000Y-122195000D01*
%TO.C,SW10*%
X161375000Y-122195000D02*
X147405000Y-122195000D01*
X147405000Y-122195000D02*
X147405000Y-136165000D01*
X147405000Y-136165000D02*
X161375000Y-136165000D01*
X161375000Y-136165000D02*
X161375000Y-122195000D01*
%TO.C,SW11*%
X142325000Y-122195000D02*
X128355000Y-122195000D01*
X128355000Y-122195000D02*
X128355000Y-136165000D01*
X128355000Y-136165000D02*
X142325000Y-136165000D01*
X142325000Y-136165000D02*
X142325000Y-122195000D01*
%TO.C,SW13*%
X104225000Y-136165000D02*
X104225000Y-122195000D01*
X90255000Y-136165000D02*
X104225000Y-136165000D01*
X90255000Y-122195000D02*
X90255000Y-136165000D01*
X104225000Y-122195000D02*
X90255000Y-122195000D01*
%TO.C,SW16*%
X332825000Y-141245000D02*
X318855000Y-141245000D01*
X318855000Y-141245000D02*
X318855000Y-155215000D01*
X318855000Y-155215000D02*
X332825000Y-155215000D01*
X332825000Y-155215000D02*
X332825000Y-141245000D01*
%TO.C,SW18*%
X294725000Y-141245000D02*
X280755000Y-141245000D01*
X280755000Y-141245000D02*
X280755000Y-155215000D01*
X280755000Y-155215000D02*
X294725000Y-155215000D01*
X294725000Y-155215000D02*
X294725000Y-141245000D01*
%TO.C,SW19*%
X275675000Y-141245000D02*
X261705000Y-141245000D01*
X261705000Y-141245000D02*
X261705000Y-155215000D01*
X261705000Y-155215000D02*
X275675000Y-155215000D01*
X275675000Y-155215000D02*
X275675000Y-141245000D01*
%TO.C,SW20*%
X256625000Y-141245000D02*
X242655000Y-141245000D01*
X242655000Y-141245000D02*
X242655000Y-155215000D01*
X242655000Y-155215000D02*
X256625000Y-155215000D01*
X256625000Y-155215000D02*
X256625000Y-141245000D01*
%TO.C,SW21*%
X237575000Y-141245000D02*
X223605000Y-141245000D01*
X223605000Y-141245000D02*
X223605000Y-155215000D01*
X223605000Y-155215000D02*
X237575000Y-155215000D01*
X237575000Y-155215000D02*
X237575000Y-141245000D01*
%TO.C,SW22*%
X218525000Y-141245000D02*
X204555000Y-141245000D01*
X204555000Y-141245000D02*
X204555000Y-155215000D01*
X204555000Y-155215000D02*
X218525000Y-155215000D01*
X218525000Y-155215000D02*
X218525000Y-141245000D01*
%TO.C,SW23*%
X199475000Y-155215000D02*
X199475000Y-141245000D01*
X185505000Y-155215000D02*
X199475000Y-155215000D01*
X185505000Y-141245000D02*
X185505000Y-155215000D01*
X199475000Y-141245000D02*
X185505000Y-141245000D01*
%TO.C,SW26*%
X142325000Y-141245000D02*
X128355000Y-141245000D01*
X128355000Y-141245000D02*
X128355000Y-155215000D01*
X128355000Y-155215000D02*
X142325000Y-155215000D01*
X142325000Y-155215000D02*
X142325000Y-141245000D01*
%TO.C,SW27*%
X123275000Y-155215000D02*
X123275000Y-141245000D01*
X109305000Y-155215000D02*
X123275000Y-155215000D01*
X109305000Y-141245000D02*
X109305000Y-155215000D01*
X123275000Y-141245000D02*
X109305000Y-141245000D01*
%TO.C,SW30*%
X332825000Y-174265000D02*
X332825000Y-160295000D01*
X318855000Y-174265000D02*
X332825000Y-174265000D01*
X318855000Y-160295000D02*
X318855000Y-174265000D01*
X332825000Y-160295000D02*
X318855000Y-160295000D01*
%TO.C,SW32*%
X294725000Y-174265000D02*
X294725000Y-160295000D01*
X280755000Y-174265000D02*
X294725000Y-174265000D01*
X280755000Y-160295000D02*
X280755000Y-174265000D01*
X294725000Y-160295000D02*
X280755000Y-160295000D01*
%TO.C,SW33*%
X275675000Y-160295000D02*
X261705000Y-160295000D01*
X261705000Y-160295000D02*
X261705000Y-174265000D01*
X261705000Y-174265000D02*
X275675000Y-174265000D01*
X275675000Y-174265000D02*
X275675000Y-160295000D01*
%TO.C,SW35*%
X237575000Y-174265000D02*
X237575000Y-160295000D01*
X223605000Y-174265000D02*
X237575000Y-174265000D01*
X223605000Y-160295000D02*
X223605000Y-174265000D01*
X237575000Y-160295000D02*
X223605000Y-160295000D01*
%TO.C,SW39*%
X161375000Y-160295000D02*
X147405000Y-160295000D01*
X147405000Y-160295000D02*
X147405000Y-174265000D01*
X147405000Y-174265000D02*
X161375000Y-174265000D01*
X161375000Y-174265000D02*
X161375000Y-160295000D01*
%TO.C,SW40*%
X142325000Y-174265000D02*
X142325000Y-160295000D01*
X128355000Y-174265000D02*
X142325000Y-174265000D01*
X128355000Y-160295000D02*
X128355000Y-174265000D01*
X142325000Y-160295000D02*
X128355000Y-160295000D01*
%TO.C,SW41*%
X123275000Y-160295000D02*
X109305000Y-160295000D01*
X109305000Y-160295000D02*
X109305000Y-174265000D01*
X109305000Y-174265000D02*
X123275000Y-174265000D01*
X123275000Y-174265000D02*
X123275000Y-160295000D01*
%TO.C,SW44*%
X66125000Y-174265000D02*
X66125000Y-160295000D01*
X52155000Y-174265000D02*
X66125000Y-174265000D01*
X52155000Y-160295000D02*
X52155000Y-174265000D01*
X66125000Y-160295000D02*
X52155000Y-160295000D01*
%TO.C,SW45*%
X332825000Y-179345000D02*
X318855000Y-179345000D01*
X318855000Y-179345000D02*
X318855000Y-193315000D01*
X318855000Y-193315000D02*
X332825000Y-193315000D01*
X332825000Y-193315000D02*
X332825000Y-179345000D01*
%TO.C,SW47*%
X294725000Y-179345000D02*
X280755000Y-179345000D01*
X280755000Y-179345000D02*
X280755000Y-193315000D01*
X280755000Y-193315000D02*
X294725000Y-193315000D01*
X294725000Y-193315000D02*
X294725000Y-179345000D01*
%TO.C,SW48*%
X275675000Y-193315000D02*
X275675000Y-179345000D01*
X261705000Y-193315000D02*
X275675000Y-193315000D01*
X261705000Y-179345000D02*
X261705000Y-193315000D01*
X275675000Y-179345000D02*
X261705000Y-179345000D01*
%TO.C,SW49*%
X256625000Y-179345000D02*
X242655000Y-179345000D01*
X242655000Y-179345000D02*
X242655000Y-193315000D01*
X242655000Y-193315000D02*
X256625000Y-193315000D01*
X256625000Y-193315000D02*
X256625000Y-179345000D01*
%TO.C,SW50*%
X237575000Y-179345000D02*
X223605000Y-179345000D01*
X223605000Y-179345000D02*
X223605000Y-193315000D01*
X223605000Y-193315000D02*
X237575000Y-193315000D01*
X237575000Y-193315000D02*
X237575000Y-179345000D01*
%TO.C,SW51*%
X218525000Y-179345000D02*
X204555000Y-179345000D01*
X204555000Y-179345000D02*
X204555000Y-193315000D01*
X204555000Y-193315000D02*
X218525000Y-193315000D01*
X218525000Y-193315000D02*
X218525000Y-179345000D01*
%TO.C,SW52*%
X199475000Y-179345000D02*
X185505000Y-179345000D01*
X185505000Y-179345000D02*
X185505000Y-193315000D01*
X185505000Y-193315000D02*
X199475000Y-193315000D01*
X199475000Y-193315000D02*
X199475000Y-179345000D01*
%TO.C,SW53*%
X180425000Y-179345000D02*
X166455000Y-179345000D01*
X166455000Y-179345000D02*
X166455000Y-193315000D01*
X166455000Y-193315000D02*
X180425000Y-193315000D01*
X180425000Y-193315000D02*
X180425000Y-179345000D01*
%TO.C,SW54*%
X161375000Y-193315000D02*
X161375000Y-179345000D01*
X147405000Y-193315000D02*
X161375000Y-193315000D01*
X147405000Y-179345000D02*
X147405000Y-193315000D01*
X161375000Y-179345000D02*
X147405000Y-179345000D01*
%TO.C,SW55*%
X142325000Y-179345000D02*
X128355000Y-179345000D01*
X128355000Y-179345000D02*
X128355000Y-193315000D01*
X128355000Y-193315000D02*
X142325000Y-193315000D01*
X142325000Y-193315000D02*
X142325000Y-179345000D01*
%TO.C,SW56*%
X123275000Y-193315000D02*
X123275000Y-179345000D01*
X109305000Y-193315000D02*
X123275000Y-193315000D01*
X109305000Y-179345000D02*
X109305000Y-193315000D01*
X123275000Y-179345000D02*
X109305000Y-179345000D01*
%TO.C,SW57*%
X104225000Y-179345000D02*
X90255000Y-179345000D01*
X90255000Y-179345000D02*
X90255000Y-193315000D01*
X90255000Y-193315000D02*
X104225000Y-193315000D01*
X104225000Y-193315000D02*
X104225000Y-179345000D01*
%TO.C,SW58*%
X85175000Y-193315000D02*
X85175000Y-179345000D01*
X71205000Y-193315000D02*
X85175000Y-193315000D01*
X71205000Y-179345000D02*
X71205000Y-193315000D01*
X85175000Y-179345000D02*
X71205000Y-179345000D01*
%TO.C,SW62*%
X294725000Y-212365000D02*
X294725000Y-198395000D01*
X280755000Y-212365000D02*
X294725000Y-212365000D01*
X280755000Y-198395000D02*
X280755000Y-212365000D01*
X294725000Y-198395000D02*
X280755000Y-198395000D01*
%TO.C,SW63*%
X275675000Y-212365000D02*
X275675000Y-198395000D01*
X261705000Y-212365000D02*
X275675000Y-212365000D01*
X261705000Y-198395000D02*
X261705000Y-212365000D01*
X275675000Y-198395000D02*
X261705000Y-198395000D01*
%TO.C,SW68*%
X142325000Y-212365000D02*
X142325000Y-198395000D01*
X128355000Y-212365000D02*
X142325000Y-212365000D01*
X128355000Y-198395000D02*
X128355000Y-212365000D01*
X142325000Y-198395000D02*
X128355000Y-198395000D01*
%TO.C,SW69*%
X123275000Y-198395000D02*
X109305000Y-198395000D01*
X109305000Y-198395000D02*
X109305000Y-212365000D01*
X109305000Y-212365000D02*
X123275000Y-212365000D01*
X123275000Y-212365000D02*
X123275000Y-198395000D01*
%TO.C,SW28*%
D11*
X99049523Y-140760761D02*
X98906666Y-140808380D01*
X98668571Y-140808380D01*
X98573333Y-140760761D01*
X98525714Y-140713142D01*
X98478095Y-140617904D01*
X98478095Y-140522666D01*
X98525714Y-140427428D01*
X98573333Y-140379809D01*
X98668571Y-140332190D01*
X98859047Y-140284571D01*
X98954285Y-140236952D01*
X99001904Y-140189333D01*
X99049523Y-140094095D01*
X99049523Y-139998857D01*
X99001904Y-139903619D01*
X98954285Y-139856000D01*
X98859047Y-139808380D01*
X98620952Y-139808380D01*
X98478095Y-139856000D01*
X98144761Y-139808380D02*
X97906666Y-140808380D01*
X97716190Y-140094095D01*
X97525714Y-140808380D01*
X97287619Y-139808380D01*
X96954285Y-139903619D02*
X96906666Y-139856000D01*
X96811428Y-139808380D01*
X96573333Y-139808380D01*
X96478095Y-139856000D01*
X96430476Y-139903619D01*
X96382857Y-139998857D01*
X96382857Y-140094095D01*
X96430476Y-140236952D01*
X97001904Y-140808380D01*
X96382857Y-140808380D01*
X95811428Y-140236952D02*
X95906666Y-140189333D01*
X95954285Y-140141714D01*
X96001904Y-140046476D01*
X96001904Y-139998857D01*
X95954285Y-139903619D01*
X95906666Y-139856000D01*
X95811428Y-139808380D01*
X95620952Y-139808380D01*
X95525714Y-139856000D01*
X95478095Y-139903619D01*
X95430476Y-139998857D01*
X95430476Y-140046476D01*
X95478095Y-140141714D01*
X95525714Y-140189333D01*
X95620952Y-140236952D01*
X95811428Y-140236952D01*
X95906666Y-140284571D01*
X95954285Y-140332190D01*
X96001904Y-140427428D01*
X96001904Y-140617904D01*
X95954285Y-140713142D01*
X95906666Y-140760761D01*
X95811428Y-140808380D01*
X95620952Y-140808380D01*
X95525714Y-140760761D01*
X95478095Y-140713142D01*
X95430476Y-140617904D01*
X95430476Y-140427428D01*
X95478095Y-140332190D01*
X95525714Y-140284571D01*
X95620952Y-140236952D01*
%TO.C,SW43*%
X79989523Y-150300761D02*
X79846666Y-150348380D01*
X79608571Y-150348380D01*
X79513333Y-150300761D01*
X79465714Y-150253142D01*
X79418095Y-150157904D01*
X79418095Y-150062666D01*
X79465714Y-149967428D01*
X79513333Y-149919809D01*
X79608571Y-149872190D01*
X79799047Y-149824571D01*
X79894285Y-149776952D01*
X79941904Y-149729333D01*
X79989523Y-149634095D01*
X79989523Y-149538857D01*
X79941904Y-149443619D01*
X79894285Y-149396000D01*
X79799047Y-149348380D01*
X79560952Y-149348380D01*
X79418095Y-149396000D01*
X79084761Y-149348380D02*
X78846666Y-150348380D01*
X78656190Y-149634095D01*
X78465714Y-150348380D01*
X78227619Y-149348380D01*
X77418095Y-149681714D02*
X77418095Y-150348380D01*
X77656190Y-149300761D02*
X77894285Y-150015047D01*
X77275238Y-150015047D01*
X76989523Y-149348380D02*
X76370476Y-149348380D01*
X76703809Y-149729333D01*
X76560952Y-149729333D01*
X76465714Y-149776952D01*
X76418095Y-149824571D01*
X76370476Y-149919809D01*
X76370476Y-150157904D01*
X76418095Y-150253142D01*
X76465714Y-150300761D01*
X76560952Y-150348380D01*
X76846666Y-150348380D01*
X76941904Y-150300761D01*
X76989523Y-150253142D01*
%TO.C,SW46*%
X308599523Y-178860761D02*
X308456666Y-178908380D01*
X308218571Y-178908380D01*
X308123333Y-178860761D01*
X308075714Y-178813142D01*
X308028095Y-178717904D01*
X308028095Y-178622666D01*
X308075714Y-178527428D01*
X308123333Y-178479809D01*
X308218571Y-178432190D01*
X308409047Y-178384571D01*
X308504285Y-178336952D01*
X308551904Y-178289333D01*
X308599523Y-178194095D01*
X308599523Y-178098857D01*
X308551904Y-178003619D01*
X308504285Y-177956000D01*
X308409047Y-177908380D01*
X308170952Y-177908380D01*
X308028095Y-177956000D01*
X307694761Y-177908380D02*
X307456666Y-178908380D01*
X307266190Y-178194095D01*
X307075714Y-178908380D01*
X306837619Y-177908380D01*
X306028095Y-178241714D02*
X306028095Y-178908380D01*
X306266190Y-177860761D02*
X306504285Y-178575047D01*
X305885238Y-178575047D01*
X305075714Y-177908380D02*
X305266190Y-177908380D01*
X305361428Y-177956000D01*
X305409047Y-178003619D01*
X305504285Y-178146476D01*
X305551904Y-178336952D01*
X305551904Y-178717904D01*
X305504285Y-178813142D01*
X305456666Y-178860761D01*
X305361428Y-178908380D01*
X305170952Y-178908380D01*
X305075714Y-178860761D01*
X305028095Y-178813142D01*
X304980476Y-178717904D01*
X304980476Y-178479809D01*
X305028095Y-178384571D01*
X305075714Y-178336952D01*
X305170952Y-178289333D01*
X305361428Y-178289333D01*
X305456666Y-178336952D01*
X305504285Y-178384571D01*
X305551904Y-178479809D01*
%TO.C,SW25*%
X156199523Y-140760761D02*
X156056666Y-140808380D01*
X155818571Y-140808380D01*
X155723333Y-140760761D01*
X155675714Y-140713142D01*
X155628095Y-140617904D01*
X155628095Y-140522666D01*
X155675714Y-140427428D01*
X155723333Y-140379809D01*
X155818571Y-140332190D01*
X156009047Y-140284571D01*
X156104285Y-140236952D01*
X156151904Y-140189333D01*
X156199523Y-140094095D01*
X156199523Y-139998857D01*
X156151904Y-139903619D01*
X156104285Y-139856000D01*
X156009047Y-139808380D01*
X155770952Y-139808380D01*
X155628095Y-139856000D01*
X155294761Y-139808380D02*
X155056666Y-140808380D01*
X154866190Y-140094095D01*
X154675714Y-140808380D01*
X154437619Y-139808380D01*
X154104285Y-139903619D02*
X154056666Y-139856000D01*
X153961428Y-139808380D01*
X153723333Y-139808380D01*
X153628095Y-139856000D01*
X153580476Y-139903619D01*
X153532857Y-139998857D01*
X153532857Y-140094095D01*
X153580476Y-140236952D01*
X154151904Y-140808380D01*
X153532857Y-140808380D01*
X152628095Y-139808380D02*
X153104285Y-139808380D01*
X153151904Y-140284571D01*
X153104285Y-140236952D01*
X153009047Y-140189333D01*
X152770952Y-140189333D01*
X152675714Y-140236952D01*
X152628095Y-140284571D01*
X152580476Y-140379809D01*
X152580476Y-140617904D01*
X152628095Y-140713142D01*
X152675714Y-140760761D01*
X152770952Y-140808380D01*
X153009047Y-140808380D01*
X153104285Y-140760761D01*
X153151904Y-140713142D01*
%TO.C,SW70*%
X99049523Y-197910761D02*
X98906666Y-197958380D01*
X98668571Y-197958380D01*
X98573333Y-197910761D01*
X98525714Y-197863142D01*
X98478095Y-197767904D01*
X98478095Y-197672666D01*
X98525714Y-197577428D01*
X98573333Y-197529809D01*
X98668571Y-197482190D01*
X98859047Y-197434571D01*
X98954285Y-197386952D01*
X99001904Y-197339333D01*
X99049523Y-197244095D01*
X99049523Y-197148857D01*
X99001904Y-197053619D01*
X98954285Y-197006000D01*
X98859047Y-196958380D01*
X98620952Y-196958380D01*
X98478095Y-197006000D01*
X98144761Y-196958380D02*
X97906666Y-197958380D01*
X97716190Y-197244095D01*
X97525714Y-197958380D01*
X97287619Y-196958380D01*
X97001904Y-196958380D02*
X96335238Y-196958380D01*
X96763809Y-197958380D01*
X95763809Y-196958380D02*
X95668571Y-196958380D01*
X95573333Y-197006000D01*
X95525714Y-197053619D01*
X95478095Y-197148857D01*
X95430476Y-197339333D01*
X95430476Y-197577428D01*
X95478095Y-197767904D01*
X95525714Y-197863142D01*
X95573333Y-197910761D01*
X95668571Y-197958380D01*
X95763809Y-197958380D01*
X95859047Y-197910761D01*
X95906666Y-197863142D01*
X95954285Y-197767904D01*
X96001904Y-197577428D01*
X96001904Y-197339333D01*
X95954285Y-197148857D01*
X95906666Y-197053619D01*
X95859047Y-197006000D01*
X95763809Y-196958380D01*
%TO.C,SW29*%
X60949523Y-140760761D02*
X60806666Y-140808380D01*
X60568571Y-140808380D01*
X60473333Y-140760761D01*
X60425714Y-140713142D01*
X60378095Y-140617904D01*
X60378095Y-140522666D01*
X60425714Y-140427428D01*
X60473333Y-140379809D01*
X60568571Y-140332190D01*
X60759047Y-140284571D01*
X60854285Y-140236952D01*
X60901904Y-140189333D01*
X60949523Y-140094095D01*
X60949523Y-139998857D01*
X60901904Y-139903619D01*
X60854285Y-139856000D01*
X60759047Y-139808380D01*
X60520952Y-139808380D01*
X60378095Y-139856000D01*
X60044761Y-139808380D02*
X59806666Y-140808380D01*
X59616190Y-140094095D01*
X59425714Y-140808380D01*
X59187619Y-139808380D01*
X58854285Y-139903619D02*
X58806666Y-139856000D01*
X58711428Y-139808380D01*
X58473333Y-139808380D01*
X58378095Y-139856000D01*
X58330476Y-139903619D01*
X58282857Y-139998857D01*
X58282857Y-140094095D01*
X58330476Y-140236952D01*
X58901904Y-140808380D01*
X58282857Y-140808380D01*
X57806666Y-140808380D02*
X57616190Y-140808380D01*
X57520952Y-140760761D01*
X57473333Y-140713142D01*
X57378095Y-140570285D01*
X57330476Y-140379809D01*
X57330476Y-139998857D01*
X57378095Y-139903619D01*
X57425714Y-139856000D01*
X57520952Y-139808380D01*
X57711428Y-139808380D01*
X57806666Y-139856000D01*
X57854285Y-139903619D01*
X57901904Y-139998857D01*
X57901904Y-140236952D01*
X57854285Y-140332190D01*
X57806666Y-140379809D01*
X57711428Y-140427428D01*
X57520952Y-140427428D01*
X57425714Y-140379809D01*
X57378095Y-140332190D01*
X57330476Y-140236952D01*
%TO.C,SW15*%
X60949523Y-121710761D02*
X60806666Y-121758380D01*
X60568571Y-121758380D01*
X60473333Y-121710761D01*
X60425714Y-121663142D01*
X60378095Y-121567904D01*
X60378095Y-121472666D01*
X60425714Y-121377428D01*
X60473333Y-121329809D01*
X60568571Y-121282190D01*
X60759047Y-121234571D01*
X60854285Y-121186952D01*
X60901904Y-121139333D01*
X60949523Y-121044095D01*
X60949523Y-120948857D01*
X60901904Y-120853619D01*
X60854285Y-120806000D01*
X60759047Y-120758380D01*
X60520952Y-120758380D01*
X60378095Y-120806000D01*
X60044761Y-120758380D02*
X59806666Y-121758380D01*
X59616190Y-121044095D01*
X59425714Y-121758380D01*
X59187619Y-120758380D01*
X58282857Y-121758380D02*
X58854285Y-121758380D01*
X58568571Y-121758380D02*
X58568571Y-120758380D01*
X58663809Y-120901238D01*
X58759047Y-120996476D01*
X58854285Y-121044095D01*
X57378095Y-120758380D02*
X57854285Y-120758380D01*
X57901904Y-121234571D01*
X57854285Y-121186952D01*
X57759047Y-121139333D01*
X57520952Y-121139333D01*
X57425714Y-121186952D01*
X57378095Y-121234571D01*
X57330476Y-121329809D01*
X57330476Y-121567904D01*
X57378095Y-121663142D01*
X57425714Y-121710761D01*
X57520952Y-121758380D01*
X57759047Y-121758380D01*
X57854285Y-121710761D01*
X57901904Y-121663142D01*
%TO.C,SW38*%
X175249523Y-159810761D02*
X175106666Y-159858380D01*
X174868571Y-159858380D01*
X174773333Y-159810761D01*
X174725714Y-159763142D01*
X174678095Y-159667904D01*
X174678095Y-159572666D01*
X174725714Y-159477428D01*
X174773333Y-159429809D01*
X174868571Y-159382190D01*
X175059047Y-159334571D01*
X175154285Y-159286952D01*
X175201904Y-159239333D01*
X175249523Y-159144095D01*
X175249523Y-159048857D01*
X175201904Y-158953619D01*
X175154285Y-158906000D01*
X175059047Y-158858380D01*
X174820952Y-158858380D01*
X174678095Y-158906000D01*
X174344761Y-158858380D02*
X174106666Y-159858380D01*
X173916190Y-159144095D01*
X173725714Y-159858380D01*
X173487619Y-158858380D01*
X173201904Y-158858380D02*
X172582857Y-158858380D01*
X172916190Y-159239333D01*
X172773333Y-159239333D01*
X172678095Y-159286952D01*
X172630476Y-159334571D01*
X172582857Y-159429809D01*
X172582857Y-159667904D01*
X172630476Y-159763142D01*
X172678095Y-159810761D01*
X172773333Y-159858380D01*
X173059047Y-159858380D01*
X173154285Y-159810761D01*
X173201904Y-159763142D01*
X172011428Y-159286952D02*
X172106666Y-159239333D01*
X172154285Y-159191714D01*
X172201904Y-159096476D01*
X172201904Y-159048857D01*
X172154285Y-158953619D01*
X172106666Y-158906000D01*
X172011428Y-158858380D01*
X171820952Y-158858380D01*
X171725714Y-158906000D01*
X171678095Y-158953619D01*
X171630476Y-159048857D01*
X171630476Y-159096476D01*
X171678095Y-159191714D01*
X171725714Y-159239333D01*
X171820952Y-159286952D01*
X172011428Y-159286952D01*
X172106666Y-159334571D01*
X172154285Y-159382190D01*
X172201904Y-159477428D01*
X172201904Y-159667904D01*
X172154285Y-159763142D01*
X172106666Y-159810761D01*
X172011428Y-159858380D01*
X171820952Y-159858380D01*
X171725714Y-159810761D01*
X171678095Y-159763142D01*
X171630476Y-159667904D01*
X171630476Y-159477428D01*
X171678095Y-159382190D01*
X171725714Y-159334571D01*
X171820952Y-159286952D01*
%TO.C,SW24*%
X175249523Y-140760761D02*
X175106666Y-140808380D01*
X174868571Y-140808380D01*
X174773333Y-140760761D01*
X174725714Y-140713142D01*
X174678095Y-140617904D01*
X174678095Y-140522666D01*
X174725714Y-140427428D01*
X174773333Y-140379809D01*
X174868571Y-140332190D01*
X175059047Y-140284571D01*
X175154285Y-140236952D01*
X175201904Y-140189333D01*
X175249523Y-140094095D01*
X175249523Y-139998857D01*
X175201904Y-139903619D01*
X175154285Y-139856000D01*
X175059047Y-139808380D01*
X174820952Y-139808380D01*
X174678095Y-139856000D01*
X174344761Y-139808380D02*
X174106666Y-140808380D01*
X173916190Y-140094095D01*
X173725714Y-140808380D01*
X173487619Y-139808380D01*
X173154285Y-139903619D02*
X173106666Y-139856000D01*
X173011428Y-139808380D01*
X172773333Y-139808380D01*
X172678095Y-139856000D01*
X172630476Y-139903619D01*
X172582857Y-139998857D01*
X172582857Y-140094095D01*
X172630476Y-140236952D01*
X173201904Y-140808380D01*
X172582857Y-140808380D01*
X171725714Y-140141714D02*
X171725714Y-140808380D01*
X171963809Y-139760761D02*
X172201904Y-140475047D01*
X171582857Y-140475047D01*
%TO.C,SW61*%
X308599523Y-197910761D02*
X308456666Y-197958380D01*
X308218571Y-197958380D01*
X308123333Y-197910761D01*
X308075714Y-197863142D01*
X308028095Y-197767904D01*
X308028095Y-197672666D01*
X308075714Y-197577428D01*
X308123333Y-197529809D01*
X308218571Y-197482190D01*
X308409047Y-197434571D01*
X308504285Y-197386952D01*
X308551904Y-197339333D01*
X308599523Y-197244095D01*
X308599523Y-197148857D01*
X308551904Y-197053619D01*
X308504285Y-197006000D01*
X308409047Y-196958380D01*
X308170952Y-196958380D01*
X308028095Y-197006000D01*
X307694761Y-196958380D02*
X307456666Y-197958380D01*
X307266190Y-197244095D01*
X307075714Y-197958380D01*
X306837619Y-196958380D01*
X306028095Y-196958380D02*
X306218571Y-196958380D01*
X306313809Y-197006000D01*
X306361428Y-197053619D01*
X306456666Y-197196476D01*
X306504285Y-197386952D01*
X306504285Y-197767904D01*
X306456666Y-197863142D01*
X306409047Y-197910761D01*
X306313809Y-197958380D01*
X306123333Y-197958380D01*
X306028095Y-197910761D01*
X305980476Y-197863142D01*
X305932857Y-197767904D01*
X305932857Y-197529809D01*
X305980476Y-197434571D01*
X306028095Y-197386952D01*
X306123333Y-197339333D01*
X306313809Y-197339333D01*
X306409047Y-197386952D01*
X306456666Y-197434571D01*
X306504285Y-197529809D01*
X304980476Y-197958380D02*
X305551904Y-197958380D01*
X305266190Y-197958380D02*
X305266190Y-196958380D01*
X305361428Y-197101238D01*
X305456666Y-197196476D01*
X305551904Y-197244095D01*
%TO.C,SW31*%
X308599523Y-159810761D02*
X308456666Y-159858380D01*
X308218571Y-159858380D01*
X308123333Y-159810761D01*
X308075714Y-159763142D01*
X308028095Y-159667904D01*
X308028095Y-159572666D01*
X308075714Y-159477428D01*
X308123333Y-159429809D01*
X308218571Y-159382190D01*
X308409047Y-159334571D01*
X308504285Y-159286952D01*
X308551904Y-159239333D01*
X308599523Y-159144095D01*
X308599523Y-159048857D01*
X308551904Y-158953619D01*
X308504285Y-158906000D01*
X308409047Y-158858380D01*
X308170952Y-158858380D01*
X308028095Y-158906000D01*
X307694761Y-158858380D02*
X307456666Y-159858380D01*
X307266190Y-159144095D01*
X307075714Y-159858380D01*
X306837619Y-158858380D01*
X306551904Y-158858380D02*
X305932857Y-158858380D01*
X306266190Y-159239333D01*
X306123333Y-159239333D01*
X306028095Y-159286952D01*
X305980476Y-159334571D01*
X305932857Y-159429809D01*
X305932857Y-159667904D01*
X305980476Y-159763142D01*
X306028095Y-159810761D01*
X306123333Y-159858380D01*
X306409047Y-159858380D01*
X306504285Y-159810761D01*
X306551904Y-159763142D01*
X304980476Y-159858380D02*
X305551904Y-159858380D01*
X305266190Y-159858380D02*
X305266190Y-158858380D01*
X305361428Y-159001238D01*
X305456666Y-159096476D01*
X305551904Y-159144095D01*
%TO.C,SW17*%
X308599523Y-140739761D02*
X308456666Y-140787380D01*
X308218571Y-140787380D01*
X308123333Y-140739761D01*
X308075714Y-140692142D01*
X308028095Y-140596904D01*
X308028095Y-140501666D01*
X308075714Y-140406428D01*
X308123333Y-140358809D01*
X308218571Y-140311190D01*
X308409047Y-140263571D01*
X308504285Y-140215952D01*
X308551904Y-140168333D01*
X308599523Y-140073095D01*
X308599523Y-139977857D01*
X308551904Y-139882619D01*
X308504285Y-139835000D01*
X308409047Y-139787380D01*
X308170952Y-139787380D01*
X308028095Y-139835000D01*
X307694761Y-139787380D02*
X307456666Y-140787380D01*
X307266190Y-140073095D01*
X307075714Y-140787380D01*
X306837619Y-139787380D01*
X305932857Y-140787380D02*
X306504285Y-140787380D01*
X306218571Y-140787380D02*
X306218571Y-139787380D01*
X306313809Y-139930238D01*
X306409047Y-140025476D01*
X306504285Y-140073095D01*
X305599523Y-139787380D02*
X304932857Y-139787380D01*
X305361428Y-140787380D01*
%TO.C,SW2*%
X308123333Y-121710761D02*
X307980476Y-121758380D01*
X307742380Y-121758380D01*
X307647142Y-121710761D01*
X307599523Y-121663142D01*
X307551904Y-121567904D01*
X307551904Y-121472666D01*
X307599523Y-121377428D01*
X307647142Y-121329809D01*
X307742380Y-121282190D01*
X307932857Y-121234571D01*
X308028095Y-121186952D01*
X308075714Y-121139333D01*
X308123333Y-121044095D01*
X308123333Y-120948857D01*
X308075714Y-120853619D01*
X308028095Y-120806000D01*
X307932857Y-120758380D01*
X307694761Y-120758380D01*
X307551904Y-120806000D01*
X307218571Y-120758380D02*
X306980476Y-121758380D01*
X306790000Y-121044095D01*
X306599523Y-121758380D01*
X306361428Y-120758380D01*
X306028095Y-120853619D02*
X305980476Y-120806000D01*
X305885238Y-120758380D01*
X305647142Y-120758380D01*
X305551904Y-120806000D01*
X305504285Y-120853619D01*
X305456666Y-120948857D01*
X305456666Y-121044095D01*
X305504285Y-121186952D01*
X306075714Y-121758380D01*
X305456666Y-121758380D01*
%TO.C,SW4*%
X270023333Y-121710761D02*
X269880476Y-121758380D01*
X269642380Y-121758380D01*
X269547142Y-121710761D01*
X269499523Y-121663142D01*
X269451904Y-121567904D01*
X269451904Y-121472666D01*
X269499523Y-121377428D01*
X269547142Y-121329809D01*
X269642380Y-121282190D01*
X269832857Y-121234571D01*
X269928095Y-121186952D01*
X269975714Y-121139333D01*
X270023333Y-121044095D01*
X270023333Y-120948857D01*
X269975714Y-120853619D01*
X269928095Y-120806000D01*
X269832857Y-120758380D01*
X269594761Y-120758380D01*
X269451904Y-120806000D01*
X269118571Y-120758380D02*
X268880476Y-121758380D01*
X268690000Y-121044095D01*
X268499523Y-121758380D01*
X268261428Y-120758380D01*
X267451904Y-121091714D02*
X267451904Y-121758380D01*
X267690000Y-120710761D02*
X267928095Y-121425047D01*
X267309047Y-121425047D01*
%TO.C,SW34*%
X251449523Y-159810761D02*
X251306666Y-159858380D01*
X251068571Y-159858380D01*
X250973333Y-159810761D01*
X250925714Y-159763142D01*
X250878095Y-159667904D01*
X250878095Y-159572666D01*
X250925714Y-159477428D01*
X250973333Y-159429809D01*
X251068571Y-159382190D01*
X251259047Y-159334571D01*
X251354285Y-159286952D01*
X251401904Y-159239333D01*
X251449523Y-159144095D01*
X251449523Y-159048857D01*
X251401904Y-158953619D01*
X251354285Y-158906000D01*
X251259047Y-158858380D01*
X251020952Y-158858380D01*
X250878095Y-158906000D01*
X250544761Y-158858380D02*
X250306666Y-159858380D01*
X250116190Y-159144095D01*
X249925714Y-159858380D01*
X249687619Y-158858380D01*
X249401904Y-158858380D02*
X248782857Y-158858380D01*
X249116190Y-159239333D01*
X248973333Y-159239333D01*
X248878095Y-159286952D01*
X248830476Y-159334571D01*
X248782857Y-159429809D01*
X248782857Y-159667904D01*
X248830476Y-159763142D01*
X248878095Y-159810761D01*
X248973333Y-159858380D01*
X249259047Y-159858380D01*
X249354285Y-159810761D01*
X249401904Y-159763142D01*
X247925714Y-159191714D02*
X247925714Y-159858380D01*
X248163809Y-158810761D02*
X248401904Y-159525047D01*
X247782857Y-159525047D01*
%TO.C,SW5*%
X250973333Y-121710761D02*
X250830476Y-121758380D01*
X250592380Y-121758380D01*
X250497142Y-121710761D01*
X250449523Y-121663142D01*
X250401904Y-121567904D01*
X250401904Y-121472666D01*
X250449523Y-121377428D01*
X250497142Y-121329809D01*
X250592380Y-121282190D01*
X250782857Y-121234571D01*
X250878095Y-121186952D01*
X250925714Y-121139333D01*
X250973333Y-121044095D01*
X250973333Y-120948857D01*
X250925714Y-120853619D01*
X250878095Y-120806000D01*
X250782857Y-120758380D01*
X250544761Y-120758380D01*
X250401904Y-120806000D01*
X250068571Y-120758380D02*
X249830476Y-121758380D01*
X249640000Y-121044095D01*
X249449523Y-121758380D01*
X249211428Y-120758380D01*
X248354285Y-120758380D02*
X248830476Y-120758380D01*
X248878095Y-121234571D01*
X248830476Y-121186952D01*
X248735238Y-121139333D01*
X248497142Y-121139333D01*
X248401904Y-121186952D01*
X248354285Y-121234571D01*
X248306666Y-121329809D01*
X248306666Y-121567904D01*
X248354285Y-121663142D01*
X248401904Y-121710761D01*
X248497142Y-121758380D01*
X248735238Y-121758380D01*
X248830476Y-121710761D01*
X248878095Y-121663142D01*
%TO.C,SW37*%
X194299523Y-159810761D02*
X194156666Y-159858380D01*
X193918571Y-159858380D01*
X193823333Y-159810761D01*
X193775714Y-159763142D01*
X193728095Y-159667904D01*
X193728095Y-159572666D01*
X193775714Y-159477428D01*
X193823333Y-159429809D01*
X193918571Y-159382190D01*
X194109047Y-159334571D01*
X194204285Y-159286952D01*
X194251904Y-159239333D01*
X194299523Y-159144095D01*
X194299523Y-159048857D01*
X194251904Y-158953619D01*
X194204285Y-158906000D01*
X194109047Y-158858380D01*
X193870952Y-158858380D01*
X193728095Y-158906000D01*
X193394761Y-158858380D02*
X193156666Y-159858380D01*
X192966190Y-159144095D01*
X192775714Y-159858380D01*
X192537619Y-158858380D01*
X192251904Y-158858380D02*
X191632857Y-158858380D01*
X191966190Y-159239333D01*
X191823333Y-159239333D01*
X191728095Y-159286952D01*
X191680476Y-159334571D01*
X191632857Y-159429809D01*
X191632857Y-159667904D01*
X191680476Y-159763142D01*
X191728095Y-159810761D01*
X191823333Y-159858380D01*
X192109047Y-159858380D01*
X192204285Y-159810761D01*
X192251904Y-159763142D01*
X191299523Y-158858380D02*
X190632857Y-158858380D01*
X191061428Y-159858380D01*
%TO.C,SW66*%
X175249523Y-197910761D02*
X175106666Y-197958380D01*
X174868571Y-197958380D01*
X174773333Y-197910761D01*
X174725714Y-197863142D01*
X174678095Y-197767904D01*
X174678095Y-197672666D01*
X174725714Y-197577428D01*
X174773333Y-197529809D01*
X174868571Y-197482190D01*
X175059047Y-197434571D01*
X175154285Y-197386952D01*
X175201904Y-197339333D01*
X175249523Y-197244095D01*
X175249523Y-197148857D01*
X175201904Y-197053619D01*
X175154285Y-197006000D01*
X175059047Y-196958380D01*
X174820952Y-196958380D01*
X174678095Y-197006000D01*
X174344761Y-196958380D02*
X174106666Y-197958380D01*
X173916190Y-197244095D01*
X173725714Y-197958380D01*
X173487619Y-196958380D01*
X172678095Y-196958380D02*
X172868571Y-196958380D01*
X172963809Y-197006000D01*
X173011428Y-197053619D01*
X173106666Y-197196476D01*
X173154285Y-197386952D01*
X173154285Y-197767904D01*
X173106666Y-197863142D01*
X173059047Y-197910761D01*
X172963809Y-197958380D01*
X172773333Y-197958380D01*
X172678095Y-197910761D01*
X172630476Y-197863142D01*
X172582857Y-197767904D01*
X172582857Y-197529809D01*
X172630476Y-197434571D01*
X172678095Y-197386952D01*
X172773333Y-197339333D01*
X172963809Y-197339333D01*
X173059047Y-197386952D01*
X173106666Y-197434571D01*
X173154285Y-197529809D01*
X171725714Y-196958380D02*
X171916190Y-196958380D01*
X172011428Y-197006000D01*
X172059047Y-197053619D01*
X172154285Y-197196476D01*
X172201904Y-197386952D01*
X172201904Y-197767904D01*
X172154285Y-197863142D01*
X172106666Y-197910761D01*
X172011428Y-197958380D01*
X171820952Y-197958380D01*
X171725714Y-197910761D01*
X171678095Y-197863142D01*
X171630476Y-197767904D01*
X171630476Y-197529809D01*
X171678095Y-197434571D01*
X171725714Y-197386952D01*
X171820952Y-197339333D01*
X172011428Y-197339333D01*
X172106666Y-197386952D01*
X172154285Y-197434571D01*
X172201904Y-197529809D01*
%TO.C,SW67*%
X156199523Y-197910761D02*
X156056666Y-197958380D01*
X155818571Y-197958380D01*
X155723333Y-197910761D01*
X155675714Y-197863142D01*
X155628095Y-197767904D01*
X155628095Y-197672666D01*
X155675714Y-197577428D01*
X155723333Y-197529809D01*
X155818571Y-197482190D01*
X156009047Y-197434571D01*
X156104285Y-197386952D01*
X156151904Y-197339333D01*
X156199523Y-197244095D01*
X156199523Y-197148857D01*
X156151904Y-197053619D01*
X156104285Y-197006000D01*
X156009047Y-196958380D01*
X155770952Y-196958380D01*
X155628095Y-197006000D01*
X155294761Y-196958380D02*
X155056666Y-197958380D01*
X154866190Y-197244095D01*
X154675714Y-197958380D01*
X154437619Y-196958380D01*
X153628095Y-196958380D02*
X153818571Y-196958380D01*
X153913809Y-197006000D01*
X153961428Y-197053619D01*
X154056666Y-197196476D01*
X154104285Y-197386952D01*
X154104285Y-197767904D01*
X154056666Y-197863142D01*
X154009047Y-197910761D01*
X153913809Y-197958380D01*
X153723333Y-197958380D01*
X153628095Y-197910761D01*
X153580476Y-197863142D01*
X153532857Y-197767904D01*
X153532857Y-197529809D01*
X153580476Y-197434571D01*
X153628095Y-197386952D01*
X153723333Y-197339333D01*
X153913809Y-197339333D01*
X154009047Y-197386952D01*
X154056666Y-197434571D01*
X154104285Y-197529809D01*
X153199523Y-196958380D02*
X152532857Y-196958380D01*
X152961428Y-197958380D01*
%TO.C,SW42*%
X99049523Y-159810761D02*
X98906666Y-159858380D01*
X98668571Y-159858380D01*
X98573333Y-159810761D01*
X98525714Y-159763142D01*
X98478095Y-159667904D01*
X98478095Y-159572666D01*
X98525714Y-159477428D01*
X98573333Y-159429809D01*
X98668571Y-159382190D01*
X98859047Y-159334571D01*
X98954285Y-159286952D01*
X99001904Y-159239333D01*
X99049523Y-159144095D01*
X99049523Y-159048857D01*
X99001904Y-158953619D01*
X98954285Y-158906000D01*
X98859047Y-158858380D01*
X98620952Y-158858380D01*
X98478095Y-158906000D01*
X98144761Y-158858380D02*
X97906666Y-159858380D01*
X97716190Y-159144095D01*
X97525714Y-159858380D01*
X97287619Y-158858380D01*
X96478095Y-159191714D02*
X96478095Y-159858380D01*
X96716190Y-158810761D02*
X96954285Y-159525047D01*
X96335238Y-159525047D01*
X96001904Y-158953619D02*
X95954285Y-158906000D01*
X95859047Y-158858380D01*
X95620952Y-158858380D01*
X95525714Y-158906000D01*
X95478095Y-158953619D01*
X95430476Y-159048857D01*
X95430476Y-159144095D01*
X95478095Y-159286952D01*
X96049523Y-159858380D01*
X95430476Y-159858380D01*
%TO.C,SW12*%
X118099523Y-121710761D02*
X117956666Y-121758380D01*
X117718571Y-121758380D01*
X117623333Y-121710761D01*
X117575714Y-121663142D01*
X117528095Y-121567904D01*
X117528095Y-121472666D01*
X117575714Y-121377428D01*
X117623333Y-121329809D01*
X117718571Y-121282190D01*
X117909047Y-121234571D01*
X118004285Y-121186952D01*
X118051904Y-121139333D01*
X118099523Y-121044095D01*
X118099523Y-120948857D01*
X118051904Y-120853619D01*
X118004285Y-120806000D01*
X117909047Y-120758380D01*
X117670952Y-120758380D01*
X117528095Y-120806000D01*
X117194761Y-120758380D02*
X116956666Y-121758380D01*
X116766190Y-121044095D01*
X116575714Y-121758380D01*
X116337619Y-120758380D01*
X115432857Y-121758380D02*
X116004285Y-121758380D01*
X115718571Y-121758380D02*
X115718571Y-120758380D01*
X115813809Y-120901238D01*
X115909047Y-120996476D01*
X116004285Y-121044095D01*
X115051904Y-120853619D02*
X115004285Y-120806000D01*
X114909047Y-120758380D01*
X114670952Y-120758380D01*
X114575714Y-120806000D01*
X114528095Y-120853619D01*
X114480476Y-120948857D01*
X114480476Y-121044095D01*
X114528095Y-121186952D01*
X115099523Y-121758380D01*
X114480476Y-121758380D01*
%TO.C,SW71*%
X79999523Y-197910761D02*
X79856666Y-197958380D01*
X79618571Y-197958380D01*
X79523333Y-197910761D01*
X79475714Y-197863142D01*
X79428095Y-197767904D01*
X79428095Y-197672666D01*
X79475714Y-197577428D01*
X79523333Y-197529809D01*
X79618571Y-197482190D01*
X79809047Y-197434571D01*
X79904285Y-197386952D01*
X79951904Y-197339333D01*
X79999523Y-197244095D01*
X79999523Y-197148857D01*
X79951904Y-197053619D01*
X79904285Y-197006000D01*
X79809047Y-196958380D01*
X79570952Y-196958380D01*
X79428095Y-197006000D01*
X79094761Y-196958380D02*
X78856666Y-197958380D01*
X78666190Y-197244095D01*
X78475714Y-197958380D01*
X78237619Y-196958380D01*
X77951904Y-196958380D02*
X77285238Y-196958380D01*
X77713809Y-197958380D01*
X76380476Y-197958380D02*
X76951904Y-197958380D01*
X76666190Y-197958380D02*
X76666190Y-196958380D01*
X76761428Y-197101238D01*
X76856666Y-197196476D01*
X76951904Y-197244095D01*
%TO.C,SW72*%
X60949523Y-197910761D02*
X60806666Y-197958380D01*
X60568571Y-197958380D01*
X60473333Y-197910761D01*
X60425714Y-197863142D01*
X60378095Y-197767904D01*
X60378095Y-197672666D01*
X60425714Y-197577428D01*
X60473333Y-197529809D01*
X60568571Y-197482190D01*
X60759047Y-197434571D01*
X60854285Y-197386952D01*
X60901904Y-197339333D01*
X60949523Y-197244095D01*
X60949523Y-197148857D01*
X60901904Y-197053619D01*
X60854285Y-197006000D01*
X60759047Y-196958380D01*
X60520952Y-196958380D01*
X60378095Y-197006000D01*
X60044761Y-196958380D02*
X59806666Y-197958380D01*
X59616190Y-197244095D01*
X59425714Y-197958380D01*
X59187619Y-196958380D01*
X58901904Y-196958380D02*
X58235238Y-196958380D01*
X58663809Y-197958380D01*
X57901904Y-197053619D02*
X57854285Y-197006000D01*
X57759047Y-196958380D01*
X57520952Y-196958380D01*
X57425714Y-197006000D01*
X57378095Y-197053619D01*
X57330476Y-197148857D01*
X57330476Y-197244095D01*
X57378095Y-197386952D01*
X57949523Y-197958380D01*
X57330476Y-197958380D01*
%TO.C,SW59*%
X60949523Y-178860761D02*
X60806666Y-178908380D01*
X60568571Y-178908380D01*
X60473333Y-178860761D01*
X60425714Y-178813142D01*
X60378095Y-178717904D01*
X60378095Y-178622666D01*
X60425714Y-178527428D01*
X60473333Y-178479809D01*
X60568571Y-178432190D01*
X60759047Y-178384571D01*
X60854285Y-178336952D01*
X60901904Y-178289333D01*
X60949523Y-178194095D01*
X60949523Y-178098857D01*
X60901904Y-178003619D01*
X60854285Y-177956000D01*
X60759047Y-177908380D01*
X60520952Y-177908380D01*
X60378095Y-177956000D01*
X60044761Y-177908380D02*
X59806666Y-178908380D01*
X59616190Y-178194095D01*
X59425714Y-178908380D01*
X59187619Y-177908380D01*
X58330476Y-177908380D02*
X58806666Y-177908380D01*
X58854285Y-178384571D01*
X58806666Y-178336952D01*
X58711428Y-178289333D01*
X58473333Y-178289333D01*
X58378095Y-178336952D01*
X58330476Y-178384571D01*
X58282857Y-178479809D01*
X58282857Y-178717904D01*
X58330476Y-178813142D01*
X58378095Y-178860761D01*
X58473333Y-178908380D01*
X58711428Y-178908380D01*
X58806666Y-178860761D01*
X58854285Y-178813142D01*
X57806666Y-178908380D02*
X57616190Y-178908380D01*
X57520952Y-178860761D01*
X57473333Y-178813142D01*
X57378095Y-178670285D01*
X57330476Y-178479809D01*
X57330476Y-178098857D01*
X57378095Y-178003619D01*
X57425714Y-177956000D01*
X57520952Y-177908380D01*
X57711428Y-177908380D01*
X57806666Y-177956000D01*
X57854285Y-178003619D01*
X57901904Y-178098857D01*
X57901904Y-178336952D01*
X57854285Y-178432190D01*
X57806666Y-178479809D01*
X57711428Y-178527428D01*
X57520952Y-178527428D01*
X57425714Y-178479809D01*
X57378095Y-178432190D01*
X57330476Y-178336952D01*
%TO.C,SW36*%
X213349523Y-159810761D02*
X213206666Y-159858380D01*
X212968571Y-159858380D01*
X212873333Y-159810761D01*
X212825714Y-159763142D01*
X212778095Y-159667904D01*
X212778095Y-159572666D01*
X212825714Y-159477428D01*
X212873333Y-159429809D01*
X212968571Y-159382190D01*
X213159047Y-159334571D01*
X213254285Y-159286952D01*
X213301904Y-159239333D01*
X213349523Y-159144095D01*
X213349523Y-159048857D01*
X213301904Y-158953619D01*
X213254285Y-158906000D01*
X213159047Y-158858380D01*
X212920952Y-158858380D01*
X212778095Y-158906000D01*
X212444761Y-158858380D02*
X212206666Y-159858380D01*
X212016190Y-159144095D01*
X211825714Y-159858380D01*
X211587619Y-158858380D01*
X211301904Y-158858380D02*
X210682857Y-158858380D01*
X211016190Y-159239333D01*
X210873333Y-159239333D01*
X210778095Y-159286952D01*
X210730476Y-159334571D01*
X210682857Y-159429809D01*
X210682857Y-159667904D01*
X210730476Y-159763142D01*
X210778095Y-159810761D01*
X210873333Y-159858380D01*
X211159047Y-159858380D01*
X211254285Y-159810761D01*
X211301904Y-159763142D01*
X209825714Y-158858380D02*
X210016190Y-158858380D01*
X210111428Y-158906000D01*
X210159047Y-158953619D01*
X210254285Y-159096476D01*
X210301904Y-159286952D01*
X210301904Y-159667904D01*
X210254285Y-159763142D01*
X210206666Y-159810761D01*
X210111428Y-159858380D01*
X209920952Y-159858380D01*
X209825714Y-159810761D01*
X209778095Y-159763142D01*
X209730476Y-159667904D01*
X209730476Y-159429809D01*
X209778095Y-159334571D01*
X209825714Y-159286952D01*
X209920952Y-159239333D01*
X210111428Y-159239333D01*
X210206666Y-159286952D01*
X210254285Y-159334571D01*
X210301904Y-159429809D01*
%TO.C,SW65*%
X203824523Y-197910761D02*
X203681666Y-197958380D01*
X203443571Y-197958380D01*
X203348333Y-197910761D01*
X203300714Y-197863142D01*
X203253095Y-197767904D01*
X203253095Y-197672666D01*
X203300714Y-197577428D01*
X203348333Y-197529809D01*
X203443571Y-197482190D01*
X203634047Y-197434571D01*
X203729285Y-197386952D01*
X203776904Y-197339333D01*
X203824523Y-197244095D01*
X203824523Y-197148857D01*
X203776904Y-197053619D01*
X203729285Y-197006000D01*
X203634047Y-196958380D01*
X203395952Y-196958380D01*
X203253095Y-197006000D01*
X202919761Y-196958380D02*
X202681666Y-197958380D01*
X202491190Y-197244095D01*
X202300714Y-197958380D01*
X202062619Y-196958380D01*
X201253095Y-196958380D02*
X201443571Y-196958380D01*
X201538809Y-197006000D01*
X201586428Y-197053619D01*
X201681666Y-197196476D01*
X201729285Y-197386952D01*
X201729285Y-197767904D01*
X201681666Y-197863142D01*
X201634047Y-197910761D01*
X201538809Y-197958380D01*
X201348333Y-197958380D01*
X201253095Y-197910761D01*
X201205476Y-197863142D01*
X201157857Y-197767904D01*
X201157857Y-197529809D01*
X201205476Y-197434571D01*
X201253095Y-197386952D01*
X201348333Y-197339333D01*
X201538809Y-197339333D01*
X201634047Y-197386952D01*
X201681666Y-197434571D01*
X201729285Y-197529809D01*
X200253095Y-196958380D02*
X200729285Y-196958380D01*
X200776904Y-197434571D01*
X200729285Y-197386952D01*
X200634047Y-197339333D01*
X200395952Y-197339333D01*
X200300714Y-197386952D01*
X200253095Y-197434571D01*
X200205476Y-197529809D01*
X200205476Y-197767904D01*
X200253095Y-197863142D01*
X200300714Y-197910761D01*
X200395952Y-197958380D01*
X200634047Y-197958380D01*
X200729285Y-197910761D01*
X200776904Y-197863142D01*
%TO.C,SW64*%
X241924523Y-197910761D02*
X241781666Y-197958380D01*
X241543571Y-197958380D01*
X241448333Y-197910761D01*
X241400714Y-197863142D01*
X241353095Y-197767904D01*
X241353095Y-197672666D01*
X241400714Y-197577428D01*
X241448333Y-197529809D01*
X241543571Y-197482190D01*
X241734047Y-197434571D01*
X241829285Y-197386952D01*
X241876904Y-197339333D01*
X241924523Y-197244095D01*
X241924523Y-197148857D01*
X241876904Y-197053619D01*
X241829285Y-197006000D01*
X241734047Y-196958380D01*
X241495952Y-196958380D01*
X241353095Y-197006000D01*
X241019761Y-196958380D02*
X240781666Y-197958380D01*
X240591190Y-197244095D01*
X240400714Y-197958380D01*
X240162619Y-196958380D01*
X239353095Y-196958380D02*
X239543571Y-196958380D01*
X239638809Y-197006000D01*
X239686428Y-197053619D01*
X239781666Y-197196476D01*
X239829285Y-197386952D01*
X239829285Y-197767904D01*
X239781666Y-197863142D01*
X239734047Y-197910761D01*
X239638809Y-197958380D01*
X239448333Y-197958380D01*
X239353095Y-197910761D01*
X239305476Y-197863142D01*
X239257857Y-197767904D01*
X239257857Y-197529809D01*
X239305476Y-197434571D01*
X239353095Y-197386952D01*
X239448333Y-197339333D01*
X239638809Y-197339333D01*
X239734047Y-197386952D01*
X239781666Y-197434571D01*
X239829285Y-197529809D01*
X238400714Y-197291714D02*
X238400714Y-197958380D01*
X238638809Y-196910761D02*
X238876904Y-197625047D01*
X238257857Y-197625047D01*
%TO.C,SW1*%
X327173333Y-121710761D02*
X327030476Y-121758380D01*
X326792380Y-121758380D01*
X326697142Y-121710761D01*
X326649523Y-121663142D01*
X326601904Y-121567904D01*
X326601904Y-121472666D01*
X326649523Y-121377428D01*
X326697142Y-121329809D01*
X326792380Y-121282190D01*
X326982857Y-121234571D01*
X327078095Y-121186952D01*
X327125714Y-121139333D01*
X327173333Y-121044095D01*
X327173333Y-120948857D01*
X327125714Y-120853619D01*
X327078095Y-120806000D01*
X326982857Y-120758380D01*
X326744761Y-120758380D01*
X326601904Y-120806000D01*
X326268571Y-120758380D02*
X326030476Y-121758380D01*
X325840000Y-121044095D01*
X325649523Y-121758380D01*
X325411428Y-120758380D01*
X324506666Y-121758380D02*
X325078095Y-121758380D01*
X324792380Y-121758380D02*
X324792380Y-120758380D01*
X324887619Y-120901238D01*
X324982857Y-120996476D01*
X325078095Y-121044095D01*
%TO.C,SW14*%
X79999523Y-121710761D02*
X79856666Y-121758380D01*
X79618571Y-121758380D01*
X79523333Y-121710761D01*
X79475714Y-121663142D01*
X79428095Y-121567904D01*
X79428095Y-121472666D01*
X79475714Y-121377428D01*
X79523333Y-121329809D01*
X79618571Y-121282190D01*
X79809047Y-121234571D01*
X79904285Y-121186952D01*
X79951904Y-121139333D01*
X79999523Y-121044095D01*
X79999523Y-120948857D01*
X79951904Y-120853619D01*
X79904285Y-120806000D01*
X79809047Y-120758380D01*
X79570952Y-120758380D01*
X79428095Y-120806000D01*
X79094761Y-120758380D02*
X78856666Y-121758380D01*
X78666190Y-121044095D01*
X78475714Y-121758380D01*
X78237619Y-120758380D01*
X77332857Y-121758380D02*
X77904285Y-121758380D01*
X77618571Y-121758380D02*
X77618571Y-120758380D01*
X77713809Y-120901238D01*
X77809047Y-120996476D01*
X77904285Y-121044095D01*
X76475714Y-121091714D02*
X76475714Y-121758380D01*
X76713809Y-120710761D02*
X76951904Y-121425047D01*
X76332857Y-121425047D01*
%TO.C,SW60*%
X327649523Y-197910761D02*
X327506666Y-197958380D01*
X327268571Y-197958380D01*
X327173333Y-197910761D01*
X327125714Y-197863142D01*
X327078095Y-197767904D01*
X327078095Y-197672666D01*
X327125714Y-197577428D01*
X327173333Y-197529809D01*
X327268571Y-197482190D01*
X327459047Y-197434571D01*
X327554285Y-197386952D01*
X327601904Y-197339333D01*
X327649523Y-197244095D01*
X327649523Y-197148857D01*
X327601904Y-197053619D01*
X327554285Y-197006000D01*
X327459047Y-196958380D01*
X327220952Y-196958380D01*
X327078095Y-197006000D01*
X326744761Y-196958380D02*
X326506666Y-197958380D01*
X326316190Y-197244095D01*
X326125714Y-197958380D01*
X325887619Y-196958380D01*
X325078095Y-196958380D02*
X325268571Y-196958380D01*
X325363809Y-197006000D01*
X325411428Y-197053619D01*
X325506666Y-197196476D01*
X325554285Y-197386952D01*
X325554285Y-197767904D01*
X325506666Y-197863142D01*
X325459047Y-197910761D01*
X325363809Y-197958380D01*
X325173333Y-197958380D01*
X325078095Y-197910761D01*
X325030476Y-197863142D01*
X324982857Y-197767904D01*
X324982857Y-197529809D01*
X325030476Y-197434571D01*
X325078095Y-197386952D01*
X325173333Y-197339333D01*
X325363809Y-197339333D01*
X325459047Y-197386952D01*
X325506666Y-197434571D01*
X325554285Y-197529809D01*
X324363809Y-196958380D02*
X324268571Y-196958380D01*
X324173333Y-197006000D01*
X324125714Y-197053619D01*
X324078095Y-197148857D01*
X324030476Y-197339333D01*
X324030476Y-197577428D01*
X324078095Y-197767904D01*
X324125714Y-197863142D01*
X324173333Y-197910761D01*
X324268571Y-197958380D01*
X324363809Y-197958380D01*
X324459047Y-197910761D01*
X324506666Y-197863142D01*
X324554285Y-197767904D01*
X324601904Y-197577428D01*
X324601904Y-197339333D01*
X324554285Y-197148857D01*
X324506666Y-197053619D01*
X324459047Y-197006000D01*
X324363809Y-196958380D01*
%TO.C,SW3*%
X289073333Y-121710761D02*
X288930476Y-121758380D01*
X288692380Y-121758380D01*
X288597142Y-121710761D01*
X288549523Y-121663142D01*
X288501904Y-121567904D01*
X288501904Y-121472666D01*
X288549523Y-121377428D01*
X288597142Y-121329809D01*
X288692380Y-121282190D01*
X288882857Y-121234571D01*
X288978095Y-121186952D01*
X289025714Y-121139333D01*
X289073333Y-121044095D01*
X289073333Y-120948857D01*
X289025714Y-120853619D01*
X288978095Y-120806000D01*
X288882857Y-120758380D01*
X288644761Y-120758380D01*
X288501904Y-120806000D01*
X288168571Y-120758380D02*
X287930476Y-121758380D01*
X287740000Y-121044095D01*
X287549523Y-121758380D01*
X287311428Y-120758380D01*
X287025714Y-120758380D02*
X286406666Y-120758380D01*
X286740000Y-121139333D01*
X286597142Y-121139333D01*
X286501904Y-121186952D01*
X286454285Y-121234571D01*
X286406666Y-121329809D01*
X286406666Y-121567904D01*
X286454285Y-121663142D01*
X286501904Y-121710761D01*
X286597142Y-121758380D01*
X286882857Y-121758380D01*
X286978095Y-121710761D01*
X287025714Y-121663142D01*
%TO.C,SW6*%
X231923333Y-121710761D02*
X231780476Y-121758380D01*
X231542380Y-121758380D01*
X231447142Y-121710761D01*
X231399523Y-121663142D01*
X231351904Y-121567904D01*
X231351904Y-121472666D01*
X231399523Y-121377428D01*
X231447142Y-121329809D01*
X231542380Y-121282190D01*
X231732857Y-121234571D01*
X231828095Y-121186952D01*
X231875714Y-121139333D01*
X231923333Y-121044095D01*
X231923333Y-120948857D01*
X231875714Y-120853619D01*
X231828095Y-120806000D01*
X231732857Y-120758380D01*
X231494761Y-120758380D01*
X231351904Y-120806000D01*
X231018571Y-120758380D02*
X230780476Y-121758380D01*
X230590000Y-121044095D01*
X230399523Y-121758380D01*
X230161428Y-120758380D01*
X229351904Y-120758380D02*
X229542380Y-120758380D01*
X229637619Y-120806000D01*
X229685238Y-120853619D01*
X229780476Y-120996476D01*
X229828095Y-121186952D01*
X229828095Y-121567904D01*
X229780476Y-121663142D01*
X229732857Y-121710761D01*
X229637619Y-121758380D01*
X229447142Y-121758380D01*
X229351904Y-121710761D01*
X229304285Y-121663142D01*
X229256666Y-121567904D01*
X229256666Y-121329809D01*
X229304285Y-121234571D01*
X229351904Y-121186952D01*
X229447142Y-121139333D01*
X229637619Y-121139333D01*
X229732857Y-121186952D01*
X229780476Y-121234571D01*
X229828095Y-121329809D01*
%TO.C,SW7*%
X212873333Y-121710761D02*
X212730476Y-121758380D01*
X212492380Y-121758380D01*
X212397142Y-121710761D01*
X212349523Y-121663142D01*
X212301904Y-121567904D01*
X212301904Y-121472666D01*
X212349523Y-121377428D01*
X212397142Y-121329809D01*
X212492380Y-121282190D01*
X212682857Y-121234571D01*
X212778095Y-121186952D01*
X212825714Y-121139333D01*
X212873333Y-121044095D01*
X212873333Y-120948857D01*
X212825714Y-120853619D01*
X212778095Y-120806000D01*
X212682857Y-120758380D01*
X212444761Y-120758380D01*
X212301904Y-120806000D01*
X211968571Y-120758380D02*
X211730476Y-121758380D01*
X211540000Y-121044095D01*
X211349523Y-121758380D01*
X211111428Y-120758380D01*
X210825714Y-120758380D02*
X210159047Y-120758380D01*
X210587619Y-121758380D01*
%TO.C,SW8*%
X193823333Y-121710761D02*
X193680476Y-121758380D01*
X193442380Y-121758380D01*
X193347142Y-121710761D01*
X193299523Y-121663142D01*
X193251904Y-121567904D01*
X193251904Y-121472666D01*
X193299523Y-121377428D01*
X193347142Y-121329809D01*
X193442380Y-121282190D01*
X193632857Y-121234571D01*
X193728095Y-121186952D01*
X193775714Y-121139333D01*
X193823333Y-121044095D01*
X193823333Y-120948857D01*
X193775714Y-120853619D01*
X193728095Y-120806000D01*
X193632857Y-120758380D01*
X193394761Y-120758380D01*
X193251904Y-120806000D01*
X192918571Y-120758380D02*
X192680476Y-121758380D01*
X192490000Y-121044095D01*
X192299523Y-121758380D01*
X192061428Y-120758380D01*
X191537619Y-121186952D02*
X191632857Y-121139333D01*
X191680476Y-121091714D01*
X191728095Y-120996476D01*
X191728095Y-120948857D01*
X191680476Y-120853619D01*
X191632857Y-120806000D01*
X191537619Y-120758380D01*
X191347142Y-120758380D01*
X191251904Y-120806000D01*
X191204285Y-120853619D01*
X191156666Y-120948857D01*
X191156666Y-120996476D01*
X191204285Y-121091714D01*
X191251904Y-121139333D01*
X191347142Y-121186952D01*
X191537619Y-121186952D01*
X191632857Y-121234571D01*
X191680476Y-121282190D01*
X191728095Y-121377428D01*
X191728095Y-121567904D01*
X191680476Y-121663142D01*
X191632857Y-121710761D01*
X191537619Y-121758380D01*
X191347142Y-121758380D01*
X191251904Y-121710761D01*
X191204285Y-121663142D01*
X191156666Y-121567904D01*
X191156666Y-121377428D01*
X191204285Y-121282190D01*
X191251904Y-121234571D01*
X191347142Y-121186952D01*
%TO.C,SW9*%
X174773333Y-121710761D02*
X174630476Y-121758380D01*
X174392380Y-121758380D01*
X174297142Y-121710761D01*
X174249523Y-121663142D01*
X174201904Y-121567904D01*
X174201904Y-121472666D01*
X174249523Y-121377428D01*
X174297142Y-121329809D01*
X174392380Y-121282190D01*
X174582857Y-121234571D01*
X174678095Y-121186952D01*
X174725714Y-121139333D01*
X174773333Y-121044095D01*
X174773333Y-120948857D01*
X174725714Y-120853619D01*
X174678095Y-120806000D01*
X174582857Y-120758380D01*
X174344761Y-120758380D01*
X174201904Y-120806000D01*
X173868571Y-120758380D02*
X173630476Y-121758380D01*
X173440000Y-121044095D01*
X173249523Y-121758380D01*
X173011428Y-120758380D01*
X172582857Y-121758380D02*
X172392380Y-121758380D01*
X172297142Y-121710761D01*
X172249523Y-121663142D01*
X172154285Y-121520285D01*
X172106666Y-121329809D01*
X172106666Y-120948857D01*
X172154285Y-120853619D01*
X172201904Y-120806000D01*
X172297142Y-120758380D01*
X172487619Y-120758380D01*
X172582857Y-120806000D01*
X172630476Y-120853619D01*
X172678095Y-120948857D01*
X172678095Y-121186952D01*
X172630476Y-121282190D01*
X172582857Y-121329809D01*
X172487619Y-121377428D01*
X172297142Y-121377428D01*
X172201904Y-121329809D01*
X172154285Y-121282190D01*
X172106666Y-121186952D01*
%TO.C,SW10*%
X156199523Y-121710761D02*
X156056666Y-121758380D01*
X155818571Y-121758380D01*
X155723333Y-121710761D01*
X155675714Y-121663142D01*
X155628095Y-121567904D01*
X155628095Y-121472666D01*
X155675714Y-121377428D01*
X155723333Y-121329809D01*
X155818571Y-121282190D01*
X156009047Y-121234571D01*
X156104285Y-121186952D01*
X156151904Y-121139333D01*
X156199523Y-121044095D01*
X156199523Y-120948857D01*
X156151904Y-120853619D01*
X156104285Y-120806000D01*
X156009047Y-120758380D01*
X155770952Y-120758380D01*
X155628095Y-120806000D01*
X155294761Y-120758380D02*
X155056666Y-121758380D01*
X154866190Y-121044095D01*
X154675714Y-121758380D01*
X154437619Y-120758380D01*
X153532857Y-121758380D02*
X154104285Y-121758380D01*
X153818571Y-121758380D02*
X153818571Y-120758380D01*
X153913809Y-120901238D01*
X154009047Y-120996476D01*
X154104285Y-121044095D01*
X152913809Y-120758380D02*
X152818571Y-120758380D01*
X152723333Y-120806000D01*
X152675714Y-120853619D01*
X152628095Y-120948857D01*
X152580476Y-121139333D01*
X152580476Y-121377428D01*
X152628095Y-121567904D01*
X152675714Y-121663142D01*
X152723333Y-121710761D01*
X152818571Y-121758380D01*
X152913809Y-121758380D01*
X153009047Y-121710761D01*
X153056666Y-121663142D01*
X153104285Y-121567904D01*
X153151904Y-121377428D01*
X153151904Y-121139333D01*
X153104285Y-120948857D01*
X153056666Y-120853619D01*
X153009047Y-120806000D01*
X152913809Y-120758380D01*
%TO.C,SW11*%
X137149523Y-121710761D02*
X137006666Y-121758380D01*
X136768571Y-121758380D01*
X136673333Y-121710761D01*
X136625714Y-121663142D01*
X136578095Y-121567904D01*
X136578095Y-121472666D01*
X136625714Y-121377428D01*
X136673333Y-121329809D01*
X136768571Y-121282190D01*
X136959047Y-121234571D01*
X137054285Y-121186952D01*
X137101904Y-121139333D01*
X137149523Y-121044095D01*
X137149523Y-120948857D01*
X137101904Y-120853619D01*
X137054285Y-120806000D01*
X136959047Y-120758380D01*
X136720952Y-120758380D01*
X136578095Y-120806000D01*
X136244761Y-120758380D02*
X136006666Y-121758380D01*
X135816190Y-121044095D01*
X135625714Y-121758380D01*
X135387619Y-120758380D01*
X134482857Y-121758380D02*
X135054285Y-121758380D01*
X134768571Y-121758380D02*
X134768571Y-120758380D01*
X134863809Y-120901238D01*
X134959047Y-120996476D01*
X135054285Y-121044095D01*
X133530476Y-121758380D02*
X134101904Y-121758380D01*
X133816190Y-121758380D02*
X133816190Y-120758380D01*
X133911428Y-120901238D01*
X134006666Y-120996476D01*
X134101904Y-121044095D01*
%TO.C,SW13*%
X99049523Y-121710761D02*
X98906666Y-121758380D01*
X98668571Y-121758380D01*
X98573333Y-121710761D01*
X98525714Y-121663142D01*
X98478095Y-121567904D01*
X98478095Y-121472666D01*
X98525714Y-121377428D01*
X98573333Y-121329809D01*
X98668571Y-121282190D01*
X98859047Y-121234571D01*
X98954285Y-121186952D01*
X99001904Y-121139333D01*
X99049523Y-121044095D01*
X99049523Y-120948857D01*
X99001904Y-120853619D01*
X98954285Y-120806000D01*
X98859047Y-120758380D01*
X98620952Y-120758380D01*
X98478095Y-120806000D01*
X98144761Y-120758380D02*
X97906666Y-121758380D01*
X97716190Y-121044095D01*
X97525714Y-121758380D01*
X97287619Y-120758380D01*
X96382857Y-121758380D02*
X96954285Y-121758380D01*
X96668571Y-121758380D02*
X96668571Y-120758380D01*
X96763809Y-120901238D01*
X96859047Y-120996476D01*
X96954285Y-121044095D01*
X96049523Y-120758380D02*
X95430476Y-120758380D01*
X95763809Y-121139333D01*
X95620952Y-121139333D01*
X95525714Y-121186952D01*
X95478095Y-121234571D01*
X95430476Y-121329809D01*
X95430476Y-121567904D01*
X95478095Y-121663142D01*
X95525714Y-121710761D01*
X95620952Y-121758380D01*
X95906666Y-121758380D01*
X96001904Y-121710761D01*
X96049523Y-121663142D01*
%TO.C,SW16*%
X327649523Y-140760761D02*
X327506666Y-140808380D01*
X327268571Y-140808380D01*
X327173333Y-140760761D01*
X327125714Y-140713142D01*
X327078095Y-140617904D01*
X327078095Y-140522666D01*
X327125714Y-140427428D01*
X327173333Y-140379809D01*
X327268571Y-140332190D01*
X327459047Y-140284571D01*
X327554285Y-140236952D01*
X327601904Y-140189333D01*
X327649523Y-140094095D01*
X327649523Y-139998857D01*
X327601904Y-139903619D01*
X327554285Y-139856000D01*
X327459047Y-139808380D01*
X327220952Y-139808380D01*
X327078095Y-139856000D01*
X326744761Y-139808380D02*
X326506666Y-140808380D01*
X326316190Y-140094095D01*
X326125714Y-140808380D01*
X325887619Y-139808380D01*
X324982857Y-140808380D02*
X325554285Y-140808380D01*
X325268571Y-140808380D02*
X325268571Y-139808380D01*
X325363809Y-139951238D01*
X325459047Y-140046476D01*
X325554285Y-140094095D01*
X324125714Y-139808380D02*
X324316190Y-139808380D01*
X324411428Y-139856000D01*
X324459047Y-139903619D01*
X324554285Y-140046476D01*
X324601904Y-140236952D01*
X324601904Y-140617904D01*
X324554285Y-140713142D01*
X324506666Y-140760761D01*
X324411428Y-140808380D01*
X324220952Y-140808380D01*
X324125714Y-140760761D01*
X324078095Y-140713142D01*
X324030476Y-140617904D01*
X324030476Y-140379809D01*
X324078095Y-140284571D01*
X324125714Y-140236952D01*
X324220952Y-140189333D01*
X324411428Y-140189333D01*
X324506666Y-140236952D01*
X324554285Y-140284571D01*
X324601904Y-140379809D01*
%TO.C,SW18*%
X289549523Y-140760761D02*
X289406666Y-140808380D01*
X289168571Y-140808380D01*
X289073333Y-140760761D01*
X289025714Y-140713142D01*
X288978095Y-140617904D01*
X288978095Y-140522666D01*
X289025714Y-140427428D01*
X289073333Y-140379809D01*
X289168571Y-140332190D01*
X289359047Y-140284571D01*
X289454285Y-140236952D01*
X289501904Y-140189333D01*
X289549523Y-140094095D01*
X289549523Y-139998857D01*
X289501904Y-139903619D01*
X289454285Y-139856000D01*
X289359047Y-139808380D01*
X289120952Y-139808380D01*
X288978095Y-139856000D01*
X288644761Y-139808380D02*
X288406666Y-140808380D01*
X288216190Y-140094095D01*
X288025714Y-140808380D01*
X287787619Y-139808380D01*
X286882857Y-140808380D02*
X287454285Y-140808380D01*
X287168571Y-140808380D02*
X287168571Y-139808380D01*
X287263809Y-139951238D01*
X287359047Y-140046476D01*
X287454285Y-140094095D01*
X286311428Y-140236952D02*
X286406666Y-140189333D01*
X286454285Y-140141714D01*
X286501904Y-140046476D01*
X286501904Y-139998857D01*
X286454285Y-139903619D01*
X286406666Y-139856000D01*
X286311428Y-139808380D01*
X286120952Y-139808380D01*
X286025714Y-139856000D01*
X285978095Y-139903619D01*
X285930476Y-139998857D01*
X285930476Y-140046476D01*
X285978095Y-140141714D01*
X286025714Y-140189333D01*
X286120952Y-140236952D01*
X286311428Y-140236952D01*
X286406666Y-140284571D01*
X286454285Y-140332190D01*
X286501904Y-140427428D01*
X286501904Y-140617904D01*
X286454285Y-140713142D01*
X286406666Y-140760761D01*
X286311428Y-140808380D01*
X286120952Y-140808380D01*
X286025714Y-140760761D01*
X285978095Y-140713142D01*
X285930476Y-140617904D01*
X285930476Y-140427428D01*
X285978095Y-140332190D01*
X286025714Y-140284571D01*
X286120952Y-140236952D01*
%TO.C,SW19*%
X270499523Y-140760761D02*
X270356666Y-140808380D01*
X270118571Y-140808380D01*
X270023333Y-140760761D01*
X269975714Y-140713142D01*
X269928095Y-140617904D01*
X269928095Y-140522666D01*
X269975714Y-140427428D01*
X270023333Y-140379809D01*
X270118571Y-140332190D01*
X270309047Y-140284571D01*
X270404285Y-140236952D01*
X270451904Y-140189333D01*
X270499523Y-140094095D01*
X270499523Y-139998857D01*
X270451904Y-139903619D01*
X270404285Y-139856000D01*
X270309047Y-139808380D01*
X270070952Y-139808380D01*
X269928095Y-139856000D01*
X269594761Y-139808380D02*
X269356666Y-140808380D01*
X269166190Y-140094095D01*
X268975714Y-140808380D01*
X268737619Y-139808380D01*
X267832857Y-140808380D02*
X268404285Y-140808380D01*
X268118571Y-140808380D02*
X268118571Y-139808380D01*
X268213809Y-139951238D01*
X268309047Y-140046476D01*
X268404285Y-140094095D01*
X267356666Y-140808380D02*
X267166190Y-140808380D01*
X267070952Y-140760761D01*
X267023333Y-140713142D01*
X266928095Y-140570285D01*
X266880476Y-140379809D01*
X266880476Y-139998857D01*
X266928095Y-139903619D01*
X266975714Y-139856000D01*
X267070952Y-139808380D01*
X267261428Y-139808380D01*
X267356666Y-139856000D01*
X267404285Y-139903619D01*
X267451904Y-139998857D01*
X267451904Y-140236952D01*
X267404285Y-140332190D01*
X267356666Y-140379809D01*
X267261428Y-140427428D01*
X267070952Y-140427428D01*
X266975714Y-140379809D01*
X266928095Y-140332190D01*
X266880476Y-140236952D01*
%TO.C,SW20*%
X251449523Y-140760761D02*
X251306666Y-140808380D01*
X251068571Y-140808380D01*
X250973333Y-140760761D01*
X250925714Y-140713142D01*
X250878095Y-140617904D01*
X250878095Y-140522666D01*
X250925714Y-140427428D01*
X250973333Y-140379809D01*
X251068571Y-140332190D01*
X251259047Y-140284571D01*
X251354285Y-140236952D01*
X251401904Y-140189333D01*
X251449523Y-140094095D01*
X251449523Y-139998857D01*
X251401904Y-139903619D01*
X251354285Y-139856000D01*
X251259047Y-139808380D01*
X251020952Y-139808380D01*
X250878095Y-139856000D01*
X250544761Y-139808380D02*
X250306666Y-140808380D01*
X250116190Y-140094095D01*
X249925714Y-140808380D01*
X249687619Y-139808380D01*
X249354285Y-139903619D02*
X249306666Y-139856000D01*
X249211428Y-139808380D01*
X248973333Y-139808380D01*
X248878095Y-139856000D01*
X248830476Y-139903619D01*
X248782857Y-139998857D01*
X248782857Y-140094095D01*
X248830476Y-140236952D01*
X249401904Y-140808380D01*
X248782857Y-140808380D01*
X248163809Y-139808380D02*
X248068571Y-139808380D01*
X247973333Y-139856000D01*
X247925714Y-139903619D01*
X247878095Y-139998857D01*
X247830476Y-140189333D01*
X247830476Y-140427428D01*
X247878095Y-140617904D01*
X247925714Y-140713142D01*
X247973333Y-140760761D01*
X248068571Y-140808380D01*
X248163809Y-140808380D01*
X248259047Y-140760761D01*
X248306666Y-140713142D01*
X248354285Y-140617904D01*
X248401904Y-140427428D01*
X248401904Y-140189333D01*
X248354285Y-139998857D01*
X248306666Y-139903619D01*
X248259047Y-139856000D01*
X248163809Y-139808380D01*
%TO.C,SW21*%
X232399523Y-140760761D02*
X232256666Y-140808380D01*
X232018571Y-140808380D01*
X231923333Y-140760761D01*
X231875714Y-140713142D01*
X231828095Y-140617904D01*
X231828095Y-140522666D01*
X231875714Y-140427428D01*
X231923333Y-140379809D01*
X232018571Y-140332190D01*
X232209047Y-140284571D01*
X232304285Y-140236952D01*
X232351904Y-140189333D01*
X232399523Y-140094095D01*
X232399523Y-139998857D01*
X232351904Y-139903619D01*
X232304285Y-139856000D01*
X232209047Y-139808380D01*
X231970952Y-139808380D01*
X231828095Y-139856000D01*
X231494761Y-139808380D02*
X231256666Y-140808380D01*
X231066190Y-140094095D01*
X230875714Y-140808380D01*
X230637619Y-139808380D01*
X230304285Y-139903619D02*
X230256666Y-139856000D01*
X230161428Y-139808380D01*
X229923333Y-139808380D01*
X229828095Y-139856000D01*
X229780476Y-139903619D01*
X229732857Y-139998857D01*
X229732857Y-140094095D01*
X229780476Y-140236952D01*
X230351904Y-140808380D01*
X229732857Y-140808380D01*
X228780476Y-140808380D02*
X229351904Y-140808380D01*
X229066190Y-140808380D02*
X229066190Y-139808380D01*
X229161428Y-139951238D01*
X229256666Y-140046476D01*
X229351904Y-140094095D01*
%TO.C,SW22*%
X213349523Y-140760761D02*
X213206666Y-140808380D01*
X212968571Y-140808380D01*
X212873333Y-140760761D01*
X212825714Y-140713142D01*
X212778095Y-140617904D01*
X212778095Y-140522666D01*
X212825714Y-140427428D01*
X212873333Y-140379809D01*
X212968571Y-140332190D01*
X213159047Y-140284571D01*
X213254285Y-140236952D01*
X213301904Y-140189333D01*
X213349523Y-140094095D01*
X213349523Y-139998857D01*
X213301904Y-139903619D01*
X213254285Y-139856000D01*
X213159047Y-139808380D01*
X212920952Y-139808380D01*
X212778095Y-139856000D01*
X212444761Y-139808380D02*
X212206666Y-140808380D01*
X212016190Y-140094095D01*
X211825714Y-140808380D01*
X211587619Y-139808380D01*
X211254285Y-139903619D02*
X211206666Y-139856000D01*
X211111428Y-139808380D01*
X210873333Y-139808380D01*
X210778095Y-139856000D01*
X210730476Y-139903619D01*
X210682857Y-139998857D01*
X210682857Y-140094095D01*
X210730476Y-140236952D01*
X211301904Y-140808380D01*
X210682857Y-140808380D01*
X210301904Y-139903619D02*
X210254285Y-139856000D01*
X210159047Y-139808380D01*
X209920952Y-139808380D01*
X209825714Y-139856000D01*
X209778095Y-139903619D01*
X209730476Y-139998857D01*
X209730476Y-140094095D01*
X209778095Y-140236952D01*
X210349523Y-140808380D01*
X209730476Y-140808380D01*
%TO.C,SW23*%
X194299523Y-140760761D02*
X194156666Y-140808380D01*
X193918571Y-140808380D01*
X193823333Y-140760761D01*
X193775714Y-140713142D01*
X193728095Y-140617904D01*
X193728095Y-140522666D01*
X193775714Y-140427428D01*
X193823333Y-140379809D01*
X193918571Y-140332190D01*
X194109047Y-140284571D01*
X194204285Y-140236952D01*
X194251904Y-140189333D01*
X194299523Y-140094095D01*
X194299523Y-139998857D01*
X194251904Y-139903619D01*
X194204285Y-139856000D01*
X194109047Y-139808380D01*
X193870952Y-139808380D01*
X193728095Y-139856000D01*
X193394761Y-139808380D02*
X193156666Y-140808380D01*
X192966190Y-140094095D01*
X192775714Y-140808380D01*
X192537619Y-139808380D01*
X192204285Y-139903619D02*
X192156666Y-139856000D01*
X192061428Y-139808380D01*
X191823333Y-139808380D01*
X191728095Y-139856000D01*
X191680476Y-139903619D01*
X191632857Y-139998857D01*
X191632857Y-140094095D01*
X191680476Y-140236952D01*
X192251904Y-140808380D01*
X191632857Y-140808380D01*
X191299523Y-139808380D02*
X190680476Y-139808380D01*
X191013809Y-140189333D01*
X190870952Y-140189333D01*
X190775714Y-140236952D01*
X190728095Y-140284571D01*
X190680476Y-140379809D01*
X190680476Y-140617904D01*
X190728095Y-140713142D01*
X190775714Y-140760761D01*
X190870952Y-140808380D01*
X191156666Y-140808380D01*
X191251904Y-140760761D01*
X191299523Y-140713142D01*
%TO.C,SW26*%
X137149523Y-140760761D02*
X137006666Y-140808380D01*
X136768571Y-140808380D01*
X136673333Y-140760761D01*
X136625714Y-140713142D01*
X136578095Y-140617904D01*
X136578095Y-140522666D01*
X136625714Y-140427428D01*
X136673333Y-140379809D01*
X136768571Y-140332190D01*
X136959047Y-140284571D01*
X137054285Y-140236952D01*
X137101904Y-140189333D01*
X137149523Y-140094095D01*
X137149523Y-139998857D01*
X137101904Y-139903619D01*
X137054285Y-139856000D01*
X136959047Y-139808380D01*
X136720952Y-139808380D01*
X136578095Y-139856000D01*
X136244761Y-139808380D02*
X136006666Y-140808380D01*
X135816190Y-140094095D01*
X135625714Y-140808380D01*
X135387619Y-139808380D01*
X135054285Y-139903619D02*
X135006666Y-139856000D01*
X134911428Y-139808380D01*
X134673333Y-139808380D01*
X134578095Y-139856000D01*
X134530476Y-139903619D01*
X134482857Y-139998857D01*
X134482857Y-140094095D01*
X134530476Y-140236952D01*
X135101904Y-140808380D01*
X134482857Y-140808380D01*
X133625714Y-139808380D02*
X133816190Y-139808380D01*
X133911428Y-139856000D01*
X133959047Y-139903619D01*
X134054285Y-140046476D01*
X134101904Y-140236952D01*
X134101904Y-140617904D01*
X134054285Y-140713142D01*
X134006666Y-140760761D01*
X133911428Y-140808380D01*
X133720952Y-140808380D01*
X133625714Y-140760761D01*
X133578095Y-140713142D01*
X133530476Y-140617904D01*
X133530476Y-140379809D01*
X133578095Y-140284571D01*
X133625714Y-140236952D01*
X133720952Y-140189333D01*
X133911428Y-140189333D01*
X134006666Y-140236952D01*
X134054285Y-140284571D01*
X134101904Y-140379809D01*
%TO.C,SW27*%
X118099523Y-140760761D02*
X117956666Y-140808380D01*
X117718571Y-140808380D01*
X117623333Y-140760761D01*
X117575714Y-140713142D01*
X117528095Y-140617904D01*
X117528095Y-140522666D01*
X117575714Y-140427428D01*
X117623333Y-140379809D01*
X117718571Y-140332190D01*
X117909047Y-140284571D01*
X118004285Y-140236952D01*
X118051904Y-140189333D01*
X118099523Y-140094095D01*
X118099523Y-139998857D01*
X118051904Y-139903619D01*
X118004285Y-139856000D01*
X117909047Y-139808380D01*
X117670952Y-139808380D01*
X117528095Y-139856000D01*
X117194761Y-139808380D02*
X116956666Y-140808380D01*
X116766190Y-140094095D01*
X116575714Y-140808380D01*
X116337619Y-139808380D01*
X116004285Y-139903619D02*
X115956666Y-139856000D01*
X115861428Y-139808380D01*
X115623333Y-139808380D01*
X115528095Y-139856000D01*
X115480476Y-139903619D01*
X115432857Y-139998857D01*
X115432857Y-140094095D01*
X115480476Y-140236952D01*
X116051904Y-140808380D01*
X115432857Y-140808380D01*
X115099523Y-139808380D02*
X114432857Y-139808380D01*
X114861428Y-140808380D01*
%TO.C,SW30*%
X327649523Y-159810761D02*
X327506666Y-159858380D01*
X327268571Y-159858380D01*
X327173333Y-159810761D01*
X327125714Y-159763142D01*
X327078095Y-159667904D01*
X327078095Y-159572666D01*
X327125714Y-159477428D01*
X327173333Y-159429809D01*
X327268571Y-159382190D01*
X327459047Y-159334571D01*
X327554285Y-159286952D01*
X327601904Y-159239333D01*
X327649523Y-159144095D01*
X327649523Y-159048857D01*
X327601904Y-158953619D01*
X327554285Y-158906000D01*
X327459047Y-158858380D01*
X327220952Y-158858380D01*
X327078095Y-158906000D01*
X326744761Y-158858380D02*
X326506666Y-159858380D01*
X326316190Y-159144095D01*
X326125714Y-159858380D01*
X325887619Y-158858380D01*
X325601904Y-158858380D02*
X324982857Y-158858380D01*
X325316190Y-159239333D01*
X325173333Y-159239333D01*
X325078095Y-159286952D01*
X325030476Y-159334571D01*
X324982857Y-159429809D01*
X324982857Y-159667904D01*
X325030476Y-159763142D01*
X325078095Y-159810761D01*
X325173333Y-159858380D01*
X325459047Y-159858380D01*
X325554285Y-159810761D01*
X325601904Y-159763142D01*
X324363809Y-158858380D02*
X324268571Y-158858380D01*
X324173333Y-158906000D01*
X324125714Y-158953619D01*
X324078095Y-159048857D01*
X324030476Y-159239333D01*
X324030476Y-159477428D01*
X324078095Y-159667904D01*
X324125714Y-159763142D01*
X324173333Y-159810761D01*
X324268571Y-159858380D01*
X324363809Y-159858380D01*
X324459047Y-159810761D01*
X324506666Y-159763142D01*
X324554285Y-159667904D01*
X324601904Y-159477428D01*
X324601904Y-159239333D01*
X324554285Y-159048857D01*
X324506666Y-158953619D01*
X324459047Y-158906000D01*
X324363809Y-158858380D01*
%TO.C,SW32*%
X289549523Y-159810761D02*
X289406666Y-159858380D01*
X289168571Y-159858380D01*
X289073333Y-159810761D01*
X289025714Y-159763142D01*
X288978095Y-159667904D01*
X288978095Y-159572666D01*
X289025714Y-159477428D01*
X289073333Y-159429809D01*
X289168571Y-159382190D01*
X289359047Y-159334571D01*
X289454285Y-159286952D01*
X289501904Y-159239333D01*
X289549523Y-159144095D01*
X289549523Y-159048857D01*
X289501904Y-158953619D01*
X289454285Y-158906000D01*
X289359047Y-158858380D01*
X289120952Y-158858380D01*
X288978095Y-158906000D01*
X288644761Y-158858380D02*
X288406666Y-159858380D01*
X288216190Y-159144095D01*
X288025714Y-159858380D01*
X287787619Y-158858380D01*
X287501904Y-158858380D02*
X286882857Y-158858380D01*
X287216190Y-159239333D01*
X287073333Y-159239333D01*
X286978095Y-159286952D01*
X286930476Y-159334571D01*
X286882857Y-159429809D01*
X286882857Y-159667904D01*
X286930476Y-159763142D01*
X286978095Y-159810761D01*
X287073333Y-159858380D01*
X287359047Y-159858380D01*
X287454285Y-159810761D01*
X287501904Y-159763142D01*
X286501904Y-158953619D02*
X286454285Y-158906000D01*
X286359047Y-158858380D01*
X286120952Y-158858380D01*
X286025714Y-158906000D01*
X285978095Y-158953619D01*
X285930476Y-159048857D01*
X285930476Y-159144095D01*
X285978095Y-159286952D01*
X286549523Y-159858380D01*
X285930476Y-159858380D01*
%TO.C,SW33*%
X270499523Y-159810761D02*
X270356666Y-159858380D01*
X270118571Y-159858380D01*
X270023333Y-159810761D01*
X269975714Y-159763142D01*
X269928095Y-159667904D01*
X269928095Y-159572666D01*
X269975714Y-159477428D01*
X270023333Y-159429809D01*
X270118571Y-159382190D01*
X270309047Y-159334571D01*
X270404285Y-159286952D01*
X270451904Y-159239333D01*
X270499523Y-159144095D01*
X270499523Y-159048857D01*
X270451904Y-158953619D01*
X270404285Y-158906000D01*
X270309047Y-158858380D01*
X270070952Y-158858380D01*
X269928095Y-158906000D01*
X269594761Y-158858380D02*
X269356666Y-159858380D01*
X269166190Y-159144095D01*
X268975714Y-159858380D01*
X268737619Y-158858380D01*
X268451904Y-158858380D02*
X267832857Y-158858380D01*
X268166190Y-159239333D01*
X268023333Y-159239333D01*
X267928095Y-159286952D01*
X267880476Y-159334571D01*
X267832857Y-159429809D01*
X267832857Y-159667904D01*
X267880476Y-159763142D01*
X267928095Y-159810761D01*
X268023333Y-159858380D01*
X268309047Y-159858380D01*
X268404285Y-159810761D01*
X268451904Y-159763142D01*
X267499523Y-158858380D02*
X266880476Y-158858380D01*
X267213809Y-159239333D01*
X267070952Y-159239333D01*
X266975714Y-159286952D01*
X266928095Y-159334571D01*
X266880476Y-159429809D01*
X266880476Y-159667904D01*
X266928095Y-159763142D01*
X266975714Y-159810761D01*
X267070952Y-159858380D01*
X267356666Y-159858380D01*
X267451904Y-159810761D01*
X267499523Y-159763142D01*
%TO.C,SW35*%
X232399523Y-159810761D02*
X232256666Y-159858380D01*
X232018571Y-159858380D01*
X231923333Y-159810761D01*
X231875714Y-159763142D01*
X231828095Y-159667904D01*
X231828095Y-159572666D01*
X231875714Y-159477428D01*
X231923333Y-159429809D01*
X232018571Y-159382190D01*
X232209047Y-159334571D01*
X232304285Y-159286952D01*
X232351904Y-159239333D01*
X232399523Y-159144095D01*
X232399523Y-159048857D01*
X232351904Y-158953619D01*
X232304285Y-158906000D01*
X232209047Y-158858380D01*
X231970952Y-158858380D01*
X231828095Y-158906000D01*
X231494761Y-158858380D02*
X231256666Y-159858380D01*
X231066190Y-159144095D01*
X230875714Y-159858380D01*
X230637619Y-158858380D01*
X230351904Y-158858380D02*
X229732857Y-158858380D01*
X230066190Y-159239333D01*
X229923333Y-159239333D01*
X229828095Y-159286952D01*
X229780476Y-159334571D01*
X229732857Y-159429809D01*
X229732857Y-159667904D01*
X229780476Y-159763142D01*
X229828095Y-159810761D01*
X229923333Y-159858380D01*
X230209047Y-159858380D01*
X230304285Y-159810761D01*
X230351904Y-159763142D01*
X228828095Y-158858380D02*
X229304285Y-158858380D01*
X229351904Y-159334571D01*
X229304285Y-159286952D01*
X229209047Y-159239333D01*
X228970952Y-159239333D01*
X228875714Y-159286952D01*
X228828095Y-159334571D01*
X228780476Y-159429809D01*
X228780476Y-159667904D01*
X228828095Y-159763142D01*
X228875714Y-159810761D01*
X228970952Y-159858380D01*
X229209047Y-159858380D01*
X229304285Y-159810761D01*
X229351904Y-159763142D01*
%TO.C,SW39*%
X156199523Y-159810761D02*
X156056666Y-159858380D01*
X155818571Y-159858380D01*
X155723333Y-159810761D01*
X155675714Y-159763142D01*
X155628095Y-159667904D01*
X155628095Y-159572666D01*
X155675714Y-159477428D01*
X155723333Y-159429809D01*
X155818571Y-159382190D01*
X156009047Y-159334571D01*
X156104285Y-159286952D01*
X156151904Y-159239333D01*
X156199523Y-159144095D01*
X156199523Y-159048857D01*
X156151904Y-158953619D01*
X156104285Y-158906000D01*
X156009047Y-158858380D01*
X155770952Y-158858380D01*
X155628095Y-158906000D01*
X155294761Y-158858380D02*
X155056666Y-159858380D01*
X154866190Y-159144095D01*
X154675714Y-159858380D01*
X154437619Y-158858380D01*
X154151904Y-158858380D02*
X153532857Y-158858380D01*
X153866190Y-159239333D01*
X153723333Y-159239333D01*
X153628095Y-159286952D01*
X153580476Y-159334571D01*
X153532857Y-159429809D01*
X153532857Y-159667904D01*
X153580476Y-159763142D01*
X153628095Y-159810761D01*
X153723333Y-159858380D01*
X154009047Y-159858380D01*
X154104285Y-159810761D01*
X154151904Y-159763142D01*
X153056666Y-159858380D02*
X152866190Y-159858380D01*
X152770952Y-159810761D01*
X152723333Y-159763142D01*
X152628095Y-159620285D01*
X152580476Y-159429809D01*
X152580476Y-159048857D01*
X152628095Y-158953619D01*
X152675714Y-158906000D01*
X152770952Y-158858380D01*
X152961428Y-158858380D01*
X153056666Y-158906000D01*
X153104285Y-158953619D01*
X153151904Y-159048857D01*
X153151904Y-159286952D01*
X153104285Y-159382190D01*
X153056666Y-159429809D01*
X152961428Y-159477428D01*
X152770952Y-159477428D01*
X152675714Y-159429809D01*
X152628095Y-159382190D01*
X152580476Y-159286952D01*
%TO.C,SW40*%
X137149523Y-159810761D02*
X137006666Y-159858380D01*
X136768571Y-159858380D01*
X136673333Y-159810761D01*
X136625714Y-159763142D01*
X136578095Y-159667904D01*
X136578095Y-159572666D01*
X136625714Y-159477428D01*
X136673333Y-159429809D01*
X136768571Y-159382190D01*
X136959047Y-159334571D01*
X137054285Y-159286952D01*
X137101904Y-159239333D01*
X137149523Y-159144095D01*
X137149523Y-159048857D01*
X137101904Y-158953619D01*
X137054285Y-158906000D01*
X136959047Y-158858380D01*
X136720952Y-158858380D01*
X136578095Y-158906000D01*
X136244761Y-158858380D02*
X136006666Y-159858380D01*
X135816190Y-159144095D01*
X135625714Y-159858380D01*
X135387619Y-158858380D01*
X134578095Y-159191714D02*
X134578095Y-159858380D01*
X134816190Y-158810761D02*
X135054285Y-159525047D01*
X134435238Y-159525047D01*
X133863809Y-158858380D02*
X133768571Y-158858380D01*
X133673333Y-158906000D01*
X133625714Y-158953619D01*
X133578095Y-159048857D01*
X133530476Y-159239333D01*
X133530476Y-159477428D01*
X133578095Y-159667904D01*
X133625714Y-159763142D01*
X133673333Y-159810761D01*
X133768571Y-159858380D01*
X133863809Y-159858380D01*
X133959047Y-159810761D01*
X134006666Y-159763142D01*
X134054285Y-159667904D01*
X134101904Y-159477428D01*
X134101904Y-159239333D01*
X134054285Y-159048857D01*
X134006666Y-158953619D01*
X133959047Y-158906000D01*
X133863809Y-158858380D01*
%TO.C,SW41*%
X118099523Y-159810761D02*
X117956666Y-159858380D01*
X117718571Y-159858380D01*
X117623333Y-159810761D01*
X117575714Y-159763142D01*
X117528095Y-159667904D01*
X117528095Y-159572666D01*
X117575714Y-159477428D01*
X117623333Y-159429809D01*
X117718571Y-159382190D01*
X117909047Y-159334571D01*
X118004285Y-159286952D01*
X118051904Y-159239333D01*
X118099523Y-159144095D01*
X118099523Y-159048857D01*
X118051904Y-158953619D01*
X118004285Y-158906000D01*
X117909047Y-158858380D01*
X117670952Y-158858380D01*
X117528095Y-158906000D01*
X117194761Y-158858380D02*
X116956666Y-159858380D01*
X116766190Y-159144095D01*
X116575714Y-159858380D01*
X116337619Y-158858380D01*
X115528095Y-159191714D02*
X115528095Y-159858380D01*
X115766190Y-158810761D02*
X116004285Y-159525047D01*
X115385238Y-159525047D01*
X114480476Y-159858380D02*
X115051904Y-159858380D01*
X114766190Y-159858380D02*
X114766190Y-158858380D01*
X114861428Y-159001238D01*
X114956666Y-159096476D01*
X115051904Y-159144095D01*
%TO.C,SW44*%
X60949523Y-159810761D02*
X60806666Y-159858380D01*
X60568571Y-159858380D01*
X60473333Y-159810761D01*
X60425714Y-159763142D01*
X60378095Y-159667904D01*
X60378095Y-159572666D01*
X60425714Y-159477428D01*
X60473333Y-159429809D01*
X60568571Y-159382190D01*
X60759047Y-159334571D01*
X60854285Y-159286952D01*
X60901904Y-159239333D01*
X60949523Y-159144095D01*
X60949523Y-159048857D01*
X60901904Y-158953619D01*
X60854285Y-158906000D01*
X60759047Y-158858380D01*
X60520952Y-158858380D01*
X60378095Y-158906000D01*
X60044761Y-158858380D02*
X59806666Y-159858380D01*
X59616190Y-159144095D01*
X59425714Y-159858380D01*
X59187619Y-158858380D01*
X58378095Y-159191714D02*
X58378095Y-159858380D01*
X58616190Y-158810761D02*
X58854285Y-159525047D01*
X58235238Y-159525047D01*
X57425714Y-159191714D02*
X57425714Y-159858380D01*
X57663809Y-158810761D02*
X57901904Y-159525047D01*
X57282857Y-159525047D01*
%TO.C,SW45*%
X327649523Y-178860761D02*
X327506666Y-178908380D01*
X327268571Y-178908380D01*
X327173333Y-178860761D01*
X327125714Y-178813142D01*
X327078095Y-178717904D01*
X327078095Y-178622666D01*
X327125714Y-178527428D01*
X327173333Y-178479809D01*
X327268571Y-178432190D01*
X327459047Y-178384571D01*
X327554285Y-178336952D01*
X327601904Y-178289333D01*
X327649523Y-178194095D01*
X327649523Y-178098857D01*
X327601904Y-178003619D01*
X327554285Y-177956000D01*
X327459047Y-177908380D01*
X327220952Y-177908380D01*
X327078095Y-177956000D01*
X326744761Y-177908380D02*
X326506666Y-178908380D01*
X326316190Y-178194095D01*
X326125714Y-178908380D01*
X325887619Y-177908380D01*
X325078095Y-178241714D02*
X325078095Y-178908380D01*
X325316190Y-177860761D02*
X325554285Y-178575047D01*
X324935238Y-178575047D01*
X324078095Y-177908380D02*
X324554285Y-177908380D01*
X324601904Y-178384571D01*
X324554285Y-178336952D01*
X324459047Y-178289333D01*
X324220952Y-178289333D01*
X324125714Y-178336952D01*
X324078095Y-178384571D01*
X324030476Y-178479809D01*
X324030476Y-178717904D01*
X324078095Y-178813142D01*
X324125714Y-178860761D01*
X324220952Y-178908380D01*
X324459047Y-178908380D01*
X324554285Y-178860761D01*
X324601904Y-178813142D01*
%TO.C,SW47*%
X289549523Y-178860761D02*
X289406666Y-178908380D01*
X289168571Y-178908380D01*
X289073333Y-178860761D01*
X289025714Y-178813142D01*
X288978095Y-178717904D01*
X288978095Y-178622666D01*
X289025714Y-178527428D01*
X289073333Y-178479809D01*
X289168571Y-178432190D01*
X289359047Y-178384571D01*
X289454285Y-178336952D01*
X289501904Y-178289333D01*
X289549523Y-178194095D01*
X289549523Y-178098857D01*
X289501904Y-178003619D01*
X289454285Y-177956000D01*
X289359047Y-177908380D01*
X289120952Y-177908380D01*
X288978095Y-177956000D01*
X288644761Y-177908380D02*
X288406666Y-178908380D01*
X288216190Y-178194095D01*
X288025714Y-178908380D01*
X287787619Y-177908380D01*
X286978095Y-178241714D02*
X286978095Y-178908380D01*
X287216190Y-177860761D02*
X287454285Y-178575047D01*
X286835238Y-178575047D01*
X286549523Y-177908380D02*
X285882857Y-177908380D01*
X286311428Y-178908380D01*
%TO.C,SW48*%
X270499523Y-178860761D02*
X270356666Y-178908380D01*
X270118571Y-178908380D01*
X270023333Y-178860761D01*
X269975714Y-178813142D01*
X269928095Y-178717904D01*
X269928095Y-178622666D01*
X269975714Y-178527428D01*
X270023333Y-178479809D01*
X270118571Y-178432190D01*
X270309047Y-178384571D01*
X270404285Y-178336952D01*
X270451904Y-178289333D01*
X270499523Y-178194095D01*
X270499523Y-178098857D01*
X270451904Y-178003619D01*
X270404285Y-177956000D01*
X270309047Y-177908380D01*
X270070952Y-177908380D01*
X269928095Y-177956000D01*
X269594761Y-177908380D02*
X269356666Y-178908380D01*
X269166190Y-178194095D01*
X268975714Y-178908380D01*
X268737619Y-177908380D01*
X267928095Y-178241714D02*
X267928095Y-178908380D01*
X268166190Y-177860761D02*
X268404285Y-178575047D01*
X267785238Y-178575047D01*
X267261428Y-178336952D02*
X267356666Y-178289333D01*
X267404285Y-178241714D01*
X267451904Y-178146476D01*
X267451904Y-178098857D01*
X267404285Y-178003619D01*
X267356666Y-177956000D01*
X267261428Y-177908380D01*
X267070952Y-177908380D01*
X266975714Y-177956000D01*
X266928095Y-178003619D01*
X266880476Y-178098857D01*
X266880476Y-178146476D01*
X266928095Y-178241714D01*
X266975714Y-178289333D01*
X267070952Y-178336952D01*
X267261428Y-178336952D01*
X267356666Y-178384571D01*
X267404285Y-178432190D01*
X267451904Y-178527428D01*
X267451904Y-178717904D01*
X267404285Y-178813142D01*
X267356666Y-178860761D01*
X267261428Y-178908380D01*
X267070952Y-178908380D01*
X266975714Y-178860761D01*
X266928095Y-178813142D01*
X266880476Y-178717904D01*
X266880476Y-178527428D01*
X266928095Y-178432190D01*
X266975714Y-178384571D01*
X267070952Y-178336952D01*
%TO.C,SW49*%
X251449523Y-178860761D02*
X251306666Y-178908380D01*
X251068571Y-178908380D01*
X250973333Y-178860761D01*
X250925714Y-178813142D01*
X250878095Y-178717904D01*
X250878095Y-178622666D01*
X250925714Y-178527428D01*
X250973333Y-178479809D01*
X251068571Y-178432190D01*
X251259047Y-178384571D01*
X251354285Y-178336952D01*
X251401904Y-178289333D01*
X251449523Y-178194095D01*
X251449523Y-178098857D01*
X251401904Y-178003619D01*
X251354285Y-177956000D01*
X251259047Y-177908380D01*
X251020952Y-177908380D01*
X250878095Y-177956000D01*
X250544761Y-177908380D02*
X250306666Y-178908380D01*
X250116190Y-178194095D01*
X249925714Y-178908380D01*
X249687619Y-177908380D01*
X248878095Y-178241714D02*
X248878095Y-178908380D01*
X249116190Y-177860761D02*
X249354285Y-178575047D01*
X248735238Y-178575047D01*
X248306666Y-178908380D02*
X248116190Y-178908380D01*
X248020952Y-178860761D01*
X247973333Y-178813142D01*
X247878095Y-178670285D01*
X247830476Y-178479809D01*
X247830476Y-178098857D01*
X247878095Y-178003619D01*
X247925714Y-177956000D01*
X248020952Y-177908380D01*
X248211428Y-177908380D01*
X248306666Y-177956000D01*
X248354285Y-178003619D01*
X248401904Y-178098857D01*
X248401904Y-178336952D01*
X248354285Y-178432190D01*
X248306666Y-178479809D01*
X248211428Y-178527428D01*
X248020952Y-178527428D01*
X247925714Y-178479809D01*
X247878095Y-178432190D01*
X247830476Y-178336952D01*
%TO.C,SW50*%
X232399523Y-178860761D02*
X232256666Y-178908380D01*
X232018571Y-178908380D01*
X231923333Y-178860761D01*
X231875714Y-178813142D01*
X231828095Y-178717904D01*
X231828095Y-178622666D01*
X231875714Y-178527428D01*
X231923333Y-178479809D01*
X232018571Y-178432190D01*
X232209047Y-178384571D01*
X232304285Y-178336952D01*
X232351904Y-178289333D01*
X232399523Y-178194095D01*
X232399523Y-178098857D01*
X232351904Y-178003619D01*
X232304285Y-177956000D01*
X232209047Y-177908380D01*
X231970952Y-177908380D01*
X231828095Y-177956000D01*
X231494761Y-177908380D02*
X231256666Y-178908380D01*
X231066190Y-178194095D01*
X230875714Y-178908380D01*
X230637619Y-177908380D01*
X229780476Y-177908380D02*
X230256666Y-177908380D01*
X230304285Y-178384571D01*
X230256666Y-178336952D01*
X230161428Y-178289333D01*
X229923333Y-178289333D01*
X229828095Y-178336952D01*
X229780476Y-178384571D01*
X229732857Y-178479809D01*
X229732857Y-178717904D01*
X229780476Y-178813142D01*
X229828095Y-178860761D01*
X229923333Y-178908380D01*
X230161428Y-178908380D01*
X230256666Y-178860761D01*
X230304285Y-178813142D01*
X229113809Y-177908380D02*
X229018571Y-177908380D01*
X228923333Y-177956000D01*
X228875714Y-178003619D01*
X228828095Y-178098857D01*
X228780476Y-178289333D01*
X228780476Y-178527428D01*
X228828095Y-178717904D01*
X228875714Y-178813142D01*
X228923333Y-178860761D01*
X229018571Y-178908380D01*
X229113809Y-178908380D01*
X229209047Y-178860761D01*
X229256666Y-178813142D01*
X229304285Y-178717904D01*
X229351904Y-178527428D01*
X229351904Y-178289333D01*
X229304285Y-178098857D01*
X229256666Y-178003619D01*
X229209047Y-177956000D01*
X229113809Y-177908380D01*
%TO.C,SW51*%
X213349523Y-178860761D02*
X213206666Y-178908380D01*
X212968571Y-178908380D01*
X212873333Y-178860761D01*
X212825714Y-178813142D01*
X212778095Y-178717904D01*
X212778095Y-178622666D01*
X212825714Y-178527428D01*
X212873333Y-178479809D01*
X212968571Y-178432190D01*
X213159047Y-178384571D01*
X213254285Y-178336952D01*
X213301904Y-178289333D01*
X213349523Y-178194095D01*
X213349523Y-178098857D01*
X213301904Y-178003619D01*
X213254285Y-177956000D01*
X213159047Y-177908380D01*
X212920952Y-177908380D01*
X212778095Y-177956000D01*
X212444761Y-177908380D02*
X212206666Y-178908380D01*
X212016190Y-178194095D01*
X211825714Y-178908380D01*
X211587619Y-177908380D01*
X210730476Y-177908380D02*
X211206666Y-177908380D01*
X211254285Y-178384571D01*
X211206666Y-178336952D01*
X211111428Y-178289333D01*
X210873333Y-178289333D01*
X210778095Y-178336952D01*
X210730476Y-178384571D01*
X210682857Y-178479809D01*
X210682857Y-178717904D01*
X210730476Y-178813142D01*
X210778095Y-178860761D01*
X210873333Y-178908380D01*
X211111428Y-178908380D01*
X211206666Y-178860761D01*
X211254285Y-178813142D01*
X209730476Y-178908380D02*
X210301904Y-178908380D01*
X210016190Y-178908380D02*
X210016190Y-177908380D01*
X210111428Y-178051238D01*
X210206666Y-178146476D01*
X210301904Y-178194095D01*
%TO.C,SW52*%
X194299523Y-178860761D02*
X194156666Y-178908380D01*
X193918571Y-178908380D01*
X193823333Y-178860761D01*
X193775714Y-178813142D01*
X193728095Y-178717904D01*
X193728095Y-178622666D01*
X193775714Y-178527428D01*
X193823333Y-178479809D01*
X193918571Y-178432190D01*
X194109047Y-178384571D01*
X194204285Y-178336952D01*
X194251904Y-178289333D01*
X194299523Y-178194095D01*
X194299523Y-178098857D01*
X194251904Y-178003619D01*
X194204285Y-177956000D01*
X194109047Y-177908380D01*
X193870952Y-177908380D01*
X193728095Y-177956000D01*
X193394761Y-177908380D02*
X193156666Y-178908380D01*
X192966190Y-178194095D01*
X192775714Y-178908380D01*
X192537619Y-177908380D01*
X191680476Y-177908380D02*
X192156666Y-177908380D01*
X192204285Y-178384571D01*
X192156666Y-178336952D01*
X192061428Y-178289333D01*
X191823333Y-178289333D01*
X191728095Y-178336952D01*
X191680476Y-178384571D01*
X191632857Y-178479809D01*
X191632857Y-178717904D01*
X191680476Y-178813142D01*
X191728095Y-178860761D01*
X191823333Y-178908380D01*
X192061428Y-178908380D01*
X192156666Y-178860761D01*
X192204285Y-178813142D01*
X191251904Y-178003619D02*
X191204285Y-177956000D01*
X191109047Y-177908380D01*
X190870952Y-177908380D01*
X190775714Y-177956000D01*
X190728095Y-178003619D01*
X190680476Y-178098857D01*
X190680476Y-178194095D01*
X190728095Y-178336952D01*
X191299523Y-178908380D01*
X190680476Y-178908380D01*
%TO.C,SW53*%
X175249523Y-178860761D02*
X175106666Y-178908380D01*
X174868571Y-178908380D01*
X174773333Y-178860761D01*
X174725714Y-178813142D01*
X174678095Y-178717904D01*
X174678095Y-178622666D01*
X174725714Y-178527428D01*
X174773333Y-178479809D01*
X174868571Y-178432190D01*
X175059047Y-178384571D01*
X175154285Y-178336952D01*
X175201904Y-178289333D01*
X175249523Y-178194095D01*
X175249523Y-178098857D01*
X175201904Y-178003619D01*
X175154285Y-177956000D01*
X175059047Y-177908380D01*
X174820952Y-177908380D01*
X174678095Y-177956000D01*
X174344761Y-177908380D02*
X174106666Y-178908380D01*
X173916190Y-178194095D01*
X173725714Y-178908380D01*
X173487619Y-177908380D01*
X172630476Y-177908380D02*
X173106666Y-177908380D01*
X173154285Y-178384571D01*
X173106666Y-178336952D01*
X173011428Y-178289333D01*
X172773333Y-178289333D01*
X172678095Y-178336952D01*
X172630476Y-178384571D01*
X172582857Y-178479809D01*
X172582857Y-178717904D01*
X172630476Y-178813142D01*
X172678095Y-178860761D01*
X172773333Y-178908380D01*
X173011428Y-178908380D01*
X173106666Y-178860761D01*
X173154285Y-178813142D01*
X172249523Y-177908380D02*
X171630476Y-177908380D01*
X171963809Y-178289333D01*
X171820952Y-178289333D01*
X171725714Y-178336952D01*
X171678095Y-178384571D01*
X171630476Y-178479809D01*
X171630476Y-178717904D01*
X171678095Y-178813142D01*
X171725714Y-178860761D01*
X171820952Y-178908380D01*
X172106666Y-178908380D01*
X172201904Y-178860761D01*
X172249523Y-178813142D01*
%TO.C,SW54*%
X156199523Y-178860761D02*
X156056666Y-178908380D01*
X155818571Y-178908380D01*
X155723333Y-178860761D01*
X155675714Y-178813142D01*
X155628095Y-178717904D01*
X155628095Y-178622666D01*
X155675714Y-178527428D01*
X155723333Y-178479809D01*
X155818571Y-178432190D01*
X156009047Y-178384571D01*
X156104285Y-178336952D01*
X156151904Y-178289333D01*
X156199523Y-178194095D01*
X156199523Y-178098857D01*
X156151904Y-178003619D01*
X156104285Y-177956000D01*
X156009047Y-177908380D01*
X155770952Y-177908380D01*
X155628095Y-177956000D01*
X155294761Y-177908380D02*
X155056666Y-178908380D01*
X154866190Y-178194095D01*
X154675714Y-178908380D01*
X154437619Y-177908380D01*
X153580476Y-177908380D02*
X154056666Y-177908380D01*
X154104285Y-178384571D01*
X154056666Y-178336952D01*
X153961428Y-178289333D01*
X153723333Y-178289333D01*
X153628095Y-178336952D01*
X153580476Y-178384571D01*
X153532857Y-178479809D01*
X153532857Y-178717904D01*
X153580476Y-178813142D01*
X153628095Y-178860761D01*
X153723333Y-178908380D01*
X153961428Y-178908380D01*
X154056666Y-178860761D01*
X154104285Y-178813142D01*
X152675714Y-178241714D02*
X152675714Y-178908380D01*
X152913809Y-177860761D02*
X153151904Y-178575047D01*
X152532857Y-178575047D01*
%TO.C,SW55*%
X137149523Y-178860761D02*
X137006666Y-178908380D01*
X136768571Y-178908380D01*
X136673333Y-178860761D01*
X136625714Y-178813142D01*
X136578095Y-178717904D01*
X136578095Y-178622666D01*
X136625714Y-178527428D01*
X136673333Y-178479809D01*
X136768571Y-178432190D01*
X136959047Y-178384571D01*
X137054285Y-178336952D01*
X137101904Y-178289333D01*
X137149523Y-178194095D01*
X137149523Y-178098857D01*
X137101904Y-178003619D01*
X137054285Y-177956000D01*
X136959047Y-177908380D01*
X136720952Y-177908380D01*
X136578095Y-177956000D01*
X136244761Y-177908380D02*
X136006666Y-178908380D01*
X135816190Y-178194095D01*
X135625714Y-178908380D01*
X135387619Y-177908380D01*
X134530476Y-177908380D02*
X135006666Y-177908380D01*
X135054285Y-178384571D01*
X135006666Y-178336952D01*
X134911428Y-178289333D01*
X134673333Y-178289333D01*
X134578095Y-178336952D01*
X134530476Y-178384571D01*
X134482857Y-178479809D01*
X134482857Y-178717904D01*
X134530476Y-178813142D01*
X134578095Y-178860761D01*
X134673333Y-178908380D01*
X134911428Y-178908380D01*
X135006666Y-178860761D01*
X135054285Y-178813142D01*
X133578095Y-177908380D02*
X134054285Y-177908380D01*
X134101904Y-178384571D01*
X134054285Y-178336952D01*
X133959047Y-178289333D01*
X133720952Y-178289333D01*
X133625714Y-178336952D01*
X133578095Y-178384571D01*
X133530476Y-178479809D01*
X133530476Y-178717904D01*
X133578095Y-178813142D01*
X133625714Y-178860761D01*
X133720952Y-178908380D01*
X133959047Y-178908380D01*
X134054285Y-178860761D01*
X134101904Y-178813142D01*
%TO.C,SW56*%
X118099523Y-178860761D02*
X117956666Y-178908380D01*
X117718571Y-178908380D01*
X117623333Y-178860761D01*
X117575714Y-178813142D01*
X117528095Y-178717904D01*
X117528095Y-178622666D01*
X117575714Y-178527428D01*
X117623333Y-178479809D01*
X117718571Y-178432190D01*
X117909047Y-178384571D01*
X118004285Y-178336952D01*
X118051904Y-178289333D01*
X118099523Y-178194095D01*
X118099523Y-178098857D01*
X118051904Y-178003619D01*
X118004285Y-177956000D01*
X117909047Y-177908380D01*
X117670952Y-177908380D01*
X117528095Y-177956000D01*
X117194761Y-177908380D02*
X116956666Y-178908380D01*
X116766190Y-178194095D01*
X116575714Y-178908380D01*
X116337619Y-177908380D01*
X115480476Y-177908380D02*
X115956666Y-177908380D01*
X116004285Y-178384571D01*
X115956666Y-178336952D01*
X115861428Y-178289333D01*
X115623333Y-178289333D01*
X115528095Y-178336952D01*
X115480476Y-178384571D01*
X115432857Y-178479809D01*
X115432857Y-178717904D01*
X115480476Y-178813142D01*
X115528095Y-178860761D01*
X115623333Y-178908380D01*
X115861428Y-178908380D01*
X115956666Y-178860761D01*
X116004285Y-178813142D01*
X114575714Y-177908380D02*
X114766190Y-177908380D01*
X114861428Y-177956000D01*
X114909047Y-178003619D01*
X115004285Y-178146476D01*
X115051904Y-178336952D01*
X115051904Y-178717904D01*
X115004285Y-178813142D01*
X114956666Y-178860761D01*
X114861428Y-178908380D01*
X114670952Y-178908380D01*
X114575714Y-178860761D01*
X114528095Y-178813142D01*
X114480476Y-178717904D01*
X114480476Y-178479809D01*
X114528095Y-178384571D01*
X114575714Y-178336952D01*
X114670952Y-178289333D01*
X114861428Y-178289333D01*
X114956666Y-178336952D01*
X115004285Y-178384571D01*
X115051904Y-178479809D01*
%TO.C,SW57*%
X99049523Y-178860761D02*
X98906666Y-178908380D01*
X98668571Y-178908380D01*
X98573333Y-178860761D01*
X98525714Y-178813142D01*
X98478095Y-178717904D01*
X98478095Y-178622666D01*
X98525714Y-178527428D01*
X98573333Y-178479809D01*
X98668571Y-178432190D01*
X98859047Y-178384571D01*
X98954285Y-178336952D01*
X99001904Y-178289333D01*
X99049523Y-178194095D01*
X99049523Y-178098857D01*
X99001904Y-178003619D01*
X98954285Y-177956000D01*
X98859047Y-177908380D01*
X98620952Y-177908380D01*
X98478095Y-177956000D01*
X98144761Y-177908380D02*
X97906666Y-178908380D01*
X97716190Y-178194095D01*
X97525714Y-178908380D01*
X97287619Y-177908380D01*
X96430476Y-177908380D02*
X96906666Y-177908380D01*
X96954285Y-178384571D01*
X96906666Y-178336952D01*
X96811428Y-178289333D01*
X96573333Y-178289333D01*
X96478095Y-178336952D01*
X96430476Y-178384571D01*
X96382857Y-178479809D01*
X96382857Y-178717904D01*
X96430476Y-178813142D01*
X96478095Y-178860761D01*
X96573333Y-178908380D01*
X96811428Y-178908380D01*
X96906666Y-178860761D01*
X96954285Y-178813142D01*
X96049523Y-177908380D02*
X95382857Y-177908380D01*
X95811428Y-178908380D01*
%TO.C,SW58*%
X79999523Y-178860761D02*
X79856666Y-178908380D01*
X79618571Y-178908380D01*
X79523333Y-178860761D01*
X79475714Y-178813142D01*
X79428095Y-178717904D01*
X79428095Y-178622666D01*
X79475714Y-178527428D01*
X79523333Y-178479809D01*
X79618571Y-178432190D01*
X79809047Y-178384571D01*
X79904285Y-178336952D01*
X79951904Y-178289333D01*
X79999523Y-178194095D01*
X79999523Y-178098857D01*
X79951904Y-178003619D01*
X79904285Y-177956000D01*
X79809047Y-177908380D01*
X79570952Y-177908380D01*
X79428095Y-177956000D01*
X79094761Y-177908380D02*
X78856666Y-178908380D01*
X78666190Y-178194095D01*
X78475714Y-178908380D01*
X78237619Y-177908380D01*
X77380476Y-177908380D02*
X77856666Y-177908380D01*
X77904285Y-178384571D01*
X77856666Y-178336952D01*
X77761428Y-178289333D01*
X77523333Y-178289333D01*
X77428095Y-178336952D01*
X77380476Y-178384571D01*
X77332857Y-178479809D01*
X77332857Y-178717904D01*
X77380476Y-178813142D01*
X77428095Y-178860761D01*
X77523333Y-178908380D01*
X77761428Y-178908380D01*
X77856666Y-178860761D01*
X77904285Y-178813142D01*
X76761428Y-178336952D02*
X76856666Y-178289333D01*
X76904285Y-178241714D01*
X76951904Y-178146476D01*
X76951904Y-178098857D01*
X76904285Y-178003619D01*
X76856666Y-177956000D01*
X76761428Y-177908380D01*
X76570952Y-177908380D01*
X76475714Y-177956000D01*
X76428095Y-178003619D01*
X76380476Y-178098857D01*
X76380476Y-178146476D01*
X76428095Y-178241714D01*
X76475714Y-178289333D01*
X76570952Y-178336952D01*
X76761428Y-178336952D01*
X76856666Y-178384571D01*
X76904285Y-178432190D01*
X76951904Y-178527428D01*
X76951904Y-178717904D01*
X76904285Y-178813142D01*
X76856666Y-178860761D01*
X76761428Y-178908380D01*
X76570952Y-178908380D01*
X76475714Y-178860761D01*
X76428095Y-178813142D01*
X76380476Y-178717904D01*
X76380476Y-178527428D01*
X76428095Y-178432190D01*
X76475714Y-178384571D01*
X76570952Y-178336952D01*
%TO.C,SW62*%
X289549523Y-197910761D02*
X289406666Y-197958380D01*
X289168571Y-197958380D01*
X289073333Y-197910761D01*
X289025714Y-197863142D01*
X288978095Y-197767904D01*
X288978095Y-197672666D01*
X289025714Y-197577428D01*
X289073333Y-197529809D01*
X289168571Y-197482190D01*
X289359047Y-197434571D01*
X289454285Y-197386952D01*
X289501904Y-197339333D01*
X289549523Y-197244095D01*
X289549523Y-197148857D01*
X289501904Y-197053619D01*
X289454285Y-197006000D01*
X289359047Y-196958380D01*
X289120952Y-196958380D01*
X288978095Y-197006000D01*
X288644761Y-196958380D02*
X288406666Y-197958380D01*
X288216190Y-197244095D01*
X288025714Y-197958380D01*
X287787619Y-196958380D01*
X286978095Y-196958380D02*
X287168571Y-196958380D01*
X287263809Y-197006000D01*
X287311428Y-197053619D01*
X287406666Y-197196476D01*
X287454285Y-197386952D01*
X287454285Y-197767904D01*
X287406666Y-197863142D01*
X287359047Y-197910761D01*
X287263809Y-197958380D01*
X287073333Y-197958380D01*
X286978095Y-197910761D01*
X286930476Y-197863142D01*
X286882857Y-197767904D01*
X286882857Y-197529809D01*
X286930476Y-197434571D01*
X286978095Y-197386952D01*
X287073333Y-197339333D01*
X287263809Y-197339333D01*
X287359047Y-197386952D01*
X287406666Y-197434571D01*
X287454285Y-197529809D01*
X286501904Y-197053619D02*
X286454285Y-197006000D01*
X286359047Y-196958380D01*
X286120952Y-196958380D01*
X286025714Y-197006000D01*
X285978095Y-197053619D01*
X285930476Y-197148857D01*
X285930476Y-197244095D01*
X285978095Y-197386952D01*
X286549523Y-197958380D01*
X285930476Y-197958380D01*
%TO.C,SW63*%
X270499523Y-197910761D02*
X270356666Y-197958380D01*
X270118571Y-197958380D01*
X270023333Y-197910761D01*
X269975714Y-197863142D01*
X269928095Y-197767904D01*
X269928095Y-197672666D01*
X269975714Y-197577428D01*
X270023333Y-197529809D01*
X270118571Y-197482190D01*
X270309047Y-197434571D01*
X270404285Y-197386952D01*
X270451904Y-197339333D01*
X270499523Y-197244095D01*
X270499523Y-197148857D01*
X270451904Y-197053619D01*
X270404285Y-197006000D01*
X270309047Y-196958380D01*
X270070952Y-196958380D01*
X269928095Y-197006000D01*
X269594761Y-196958380D02*
X269356666Y-197958380D01*
X269166190Y-197244095D01*
X268975714Y-197958380D01*
X268737619Y-196958380D01*
X267928095Y-196958380D02*
X268118571Y-196958380D01*
X268213809Y-197006000D01*
X268261428Y-197053619D01*
X268356666Y-197196476D01*
X268404285Y-197386952D01*
X268404285Y-197767904D01*
X268356666Y-197863142D01*
X268309047Y-197910761D01*
X268213809Y-197958380D01*
X268023333Y-197958380D01*
X267928095Y-197910761D01*
X267880476Y-197863142D01*
X267832857Y-197767904D01*
X267832857Y-197529809D01*
X267880476Y-197434571D01*
X267928095Y-197386952D01*
X268023333Y-197339333D01*
X268213809Y-197339333D01*
X268309047Y-197386952D01*
X268356666Y-197434571D01*
X268404285Y-197529809D01*
X267499523Y-196958380D02*
X266880476Y-196958380D01*
X267213809Y-197339333D01*
X267070952Y-197339333D01*
X266975714Y-197386952D01*
X266928095Y-197434571D01*
X266880476Y-197529809D01*
X266880476Y-197767904D01*
X266928095Y-197863142D01*
X266975714Y-197910761D01*
X267070952Y-197958380D01*
X267356666Y-197958380D01*
X267451904Y-197910761D01*
X267499523Y-197863142D01*
%TO.C,SW68*%
X137149523Y-197910761D02*
X137006666Y-197958380D01*
X136768571Y-197958380D01*
X136673333Y-197910761D01*
X136625714Y-197863142D01*
X136578095Y-197767904D01*
X136578095Y-197672666D01*
X136625714Y-197577428D01*
X136673333Y-197529809D01*
X136768571Y-197482190D01*
X136959047Y-197434571D01*
X137054285Y-197386952D01*
X137101904Y-197339333D01*
X137149523Y-197244095D01*
X137149523Y-197148857D01*
X137101904Y-197053619D01*
X137054285Y-197006000D01*
X136959047Y-196958380D01*
X136720952Y-196958380D01*
X136578095Y-197006000D01*
X136244761Y-196958380D02*
X136006666Y-197958380D01*
X135816190Y-197244095D01*
X135625714Y-197958380D01*
X135387619Y-196958380D01*
X134578095Y-196958380D02*
X134768571Y-196958380D01*
X134863809Y-197006000D01*
X134911428Y-197053619D01*
X135006666Y-197196476D01*
X135054285Y-197386952D01*
X135054285Y-197767904D01*
X135006666Y-197863142D01*
X134959047Y-197910761D01*
X134863809Y-197958380D01*
X134673333Y-197958380D01*
X134578095Y-197910761D01*
X134530476Y-197863142D01*
X134482857Y-197767904D01*
X134482857Y-197529809D01*
X134530476Y-197434571D01*
X134578095Y-197386952D01*
X134673333Y-197339333D01*
X134863809Y-197339333D01*
X134959047Y-197386952D01*
X135006666Y-197434571D01*
X135054285Y-197529809D01*
X133911428Y-197386952D02*
X134006666Y-197339333D01*
X134054285Y-197291714D01*
X134101904Y-197196476D01*
X134101904Y-197148857D01*
X134054285Y-197053619D01*
X134006666Y-197006000D01*
X133911428Y-196958380D01*
X133720952Y-196958380D01*
X133625714Y-197006000D01*
X133578095Y-197053619D01*
X133530476Y-197148857D01*
X133530476Y-197196476D01*
X133578095Y-197291714D01*
X133625714Y-197339333D01*
X133720952Y-197386952D01*
X133911428Y-197386952D01*
X134006666Y-197434571D01*
X134054285Y-197482190D01*
X134101904Y-197577428D01*
X134101904Y-197767904D01*
X134054285Y-197863142D01*
X134006666Y-197910761D01*
X133911428Y-197958380D01*
X133720952Y-197958380D01*
X133625714Y-197910761D01*
X133578095Y-197863142D01*
X133530476Y-197767904D01*
X133530476Y-197577428D01*
X133578095Y-197482190D01*
X133625714Y-197434571D01*
X133720952Y-197386952D01*
%TO.C,SW69*%
X118099523Y-197910761D02*
X117956666Y-197958380D01*
X117718571Y-197958380D01*
X117623333Y-197910761D01*
X117575714Y-197863142D01*
X117528095Y-197767904D01*
X117528095Y-197672666D01*
X117575714Y-197577428D01*
X117623333Y-197529809D01*
X117718571Y-197482190D01*
X117909047Y-197434571D01*
X118004285Y-197386952D01*
X118051904Y-197339333D01*
X118099523Y-197244095D01*
X118099523Y-197148857D01*
X118051904Y-197053619D01*
X118004285Y-197006000D01*
X117909047Y-196958380D01*
X117670952Y-196958380D01*
X117528095Y-197006000D01*
X117194761Y-196958380D02*
X116956666Y-197958380D01*
X116766190Y-197244095D01*
X116575714Y-197958380D01*
X116337619Y-196958380D01*
X115528095Y-196958380D02*
X115718571Y-196958380D01*
X115813809Y-197006000D01*
X115861428Y-197053619D01*
X115956666Y-197196476D01*
X116004285Y-197386952D01*
X116004285Y-197767904D01*
X115956666Y-197863142D01*
X115909047Y-197910761D01*
X115813809Y-197958380D01*
X115623333Y-197958380D01*
X115528095Y-197910761D01*
X115480476Y-197863142D01*
X115432857Y-197767904D01*
X115432857Y-197529809D01*
X115480476Y-197434571D01*
X115528095Y-197386952D01*
X115623333Y-197339333D01*
X115813809Y-197339333D01*
X115909047Y-197386952D01*
X115956666Y-197434571D01*
X116004285Y-197529809D01*
X114956666Y-197958380D02*
X114766190Y-197958380D01*
X114670952Y-197910761D01*
X114623333Y-197863142D01*
X114528095Y-197720285D01*
X114480476Y-197529809D01*
X114480476Y-197148857D01*
X114528095Y-197053619D01*
X114575714Y-197006000D01*
X114670952Y-196958380D01*
X114861428Y-196958380D01*
X114956666Y-197006000D01*
X115004285Y-197053619D01*
X115051904Y-197148857D01*
X115051904Y-197386952D01*
X115004285Y-197482190D01*
X114956666Y-197529809D01*
X114861428Y-197577428D01*
X114670952Y-197577428D01*
X114575714Y-197529809D01*
X114528095Y-197482190D01*
X114480476Y-197386952D01*
%TD*%
M02*
