%TF.GenerationSoftware,KiCad,Pcbnew,5.1.6*%
%TF.CreationDate,2020-06-07T21:01:59+02:00*%
%TF.ProjectId,DWZG60,44575a47-3630-42e6-9b69-6361645f7063,1*%
%TF.SameCoordinates,Original*%
%TF.FileFunction,Legend,Top*%
%TF.FilePolarity,Positive*%
%FSLAX46Y46*%
G04 Gerber Fmt 4.6, Leading zero omitted, Abs format (unit mm)*
G04 Created by KiCad (PCBNEW 5.1.6) date 2020-06-07 21:01:59*
%MOMM*%
%LPD*%
G01*
G04 APERTURE LIST*
%ADD10C,0.120000*%
%ADD11C,0.150000*%
G04 APERTURE END LIST*
D10*
%TO.C,Y1*%
X83535000Y-150175000D02*
X79535000Y-150175000D01*
X83535000Y-153475000D02*
X83535000Y-150175000D01*
D11*
%TO.C,U1*%
X73015000Y-132895000D02*
X73015000Y-133470000D01*
X83365000Y-132895000D02*
X83365000Y-133570000D01*
X83365000Y-143245000D02*
X83365000Y-142570000D01*
X73015000Y-143245000D02*
X73015000Y-142570000D01*
X73015000Y-132895000D02*
X73690000Y-132895000D01*
X73015000Y-143245000D02*
X73690000Y-143245000D01*
X83365000Y-143245000D02*
X82690000Y-143245000D01*
X83365000Y-132895000D02*
X82690000Y-132895000D01*
X73015000Y-133470000D02*
X71740000Y-133470000D01*
D10*
%TO.C,R1*%
X318730000Y-132578733D02*
X318730000Y-132921267D01*
X317710000Y-132578733D02*
X317710000Y-132921267D01*
%TO.C,R2*%
X315170000Y-132578733D02*
X315170000Y-132921267D01*
X316190000Y-132578733D02*
X316190000Y-132921267D01*
%TO.C,R4*%
X71908733Y-150895000D02*
X72251267Y-150895000D01*
X71908733Y-151915000D02*
X72251267Y-151915000D01*
D11*
%TO.C,J1*%
X321015000Y-124369000D02*
X321015000Y-122969000D01*
X321015000Y-120569000D02*
X321015000Y-120419000D01*
X321015000Y-120419000D02*
X320715000Y-120419000D01*
X320715000Y-120419000D02*
X320715000Y-119969000D01*
X313015000Y-119969000D02*
X313015000Y-120419000D01*
X313015000Y-120419000D02*
X312715000Y-120419000D01*
X312715000Y-120419000D02*
X312715000Y-120569000D01*
X312715000Y-122969000D02*
X312715000Y-124369000D01*
X317940000Y-126544000D02*
X318665000Y-126544000D01*
X318665000Y-126544000D02*
X318665000Y-126119000D01*
X318665000Y-126119000D02*
X319665000Y-126119000D01*
X315065000Y-126119000D02*
X314065000Y-126119000D01*
D10*
%TO.C,J2*%
X66065000Y-153885000D02*
X67395000Y-153885000D01*
X66065000Y-155215000D02*
X66065000Y-153885000D01*
X68665000Y-153885000D02*
X71265000Y-153885000D01*
X68665000Y-156485000D02*
X68665000Y-153885000D01*
X66065000Y-156485000D02*
X68665000Y-156485000D01*
X71265000Y-153885000D02*
X71265000Y-161625000D01*
X66065000Y-156485000D02*
X66065000Y-161625000D01*
X66065000Y-161625000D02*
X71265000Y-161625000D01*
%TO.C,C1*%
X89110000Y-143139721D02*
X89110000Y-143465279D01*
X90130000Y-143139721D02*
X90130000Y-143465279D01*
%TO.C,C2*%
X69810000Y-133940279D02*
X69810000Y-133614721D01*
X68790000Y-133940279D02*
X68790000Y-133614721D01*
%TO.C,C3*%
X66250000Y-139897779D02*
X66250000Y-139572221D01*
X67270000Y-139897779D02*
X67270000Y-139572221D01*
%TO.C,C4*%
X85300000Y-132277779D02*
X85300000Y-131952221D01*
X86320000Y-132277779D02*
X86320000Y-131952221D01*
%TO.C,C5*%
X68790000Y-137445279D02*
X68790000Y-137119721D01*
X69810000Y-137445279D02*
X69810000Y-137119721D01*
%TO.C,C6*%
X78700000Y-151720279D02*
X78700000Y-151394721D01*
X77680000Y-151720279D02*
X77680000Y-151394721D01*
%TO.C,C7*%
X84030000Y-151089721D02*
X84030000Y-151415279D01*
X85050000Y-151089721D02*
X85050000Y-151415279D01*
%TO.C,D1*%
X323640000Y-132625000D02*
X327490000Y-132625000D01*
X323640000Y-134625000D02*
X327490000Y-134625000D01*
X323640000Y-132625000D02*
X323640000Y-134625000D01*
%TO.C,D2*%
X304590000Y-132625000D02*
X304590000Y-134625000D01*
X304590000Y-134625000D02*
X308440000Y-134625000D01*
X304590000Y-132625000D02*
X308440000Y-132625000D01*
%TO.C,D3*%
X285540000Y-132625000D02*
X289390000Y-132625000D01*
X285540000Y-134625000D02*
X289390000Y-134625000D01*
X285540000Y-132625000D02*
X285540000Y-134625000D01*
%TO.C,D4*%
X266490000Y-132625000D02*
X266490000Y-134625000D01*
X266490000Y-134625000D02*
X270340000Y-134625000D01*
X266490000Y-132625000D02*
X270340000Y-132625000D01*
%TO.C,D5*%
X247440000Y-132625000D02*
X247440000Y-134625000D01*
X247440000Y-134625000D02*
X251290000Y-134625000D01*
X247440000Y-132625000D02*
X251290000Y-132625000D01*
%TO.C,D6*%
X228390000Y-132625000D02*
X228390000Y-134625000D01*
X228390000Y-134625000D02*
X232240000Y-134625000D01*
X228390000Y-132625000D02*
X232240000Y-132625000D01*
%TO.C,D7*%
X209340000Y-132625000D02*
X213190000Y-132625000D01*
X209340000Y-134625000D02*
X213190000Y-134625000D01*
X209340000Y-132625000D02*
X209340000Y-134625000D01*
%TO.C,D8*%
X190290000Y-132625000D02*
X194140000Y-132625000D01*
X190290000Y-134625000D02*
X194140000Y-134625000D01*
X190290000Y-132625000D02*
X190290000Y-134625000D01*
%TO.C,D9*%
X171240000Y-132625000D02*
X171240000Y-134625000D01*
X171240000Y-134625000D02*
X175090000Y-134625000D01*
X171240000Y-132625000D02*
X175090000Y-132625000D01*
%TO.C,D10*%
X152190000Y-132625000D02*
X152190000Y-134625000D01*
X152190000Y-134625000D02*
X156040000Y-134625000D01*
X152190000Y-132625000D02*
X156040000Y-132625000D01*
%TO.C,D11*%
X133140000Y-132625000D02*
X133140000Y-134625000D01*
X133140000Y-134625000D02*
X136990000Y-134625000D01*
X133140000Y-132625000D02*
X136990000Y-132625000D01*
%TO.C,D12*%
X114090000Y-132625000D02*
X117940000Y-132625000D01*
X114090000Y-134625000D02*
X117940000Y-134625000D01*
X114090000Y-132625000D02*
X114090000Y-134625000D01*
%TO.C,D13*%
X95040000Y-132625000D02*
X95040000Y-134625000D01*
X95040000Y-134625000D02*
X98890000Y-134625000D01*
X95040000Y-132625000D02*
X98890000Y-132625000D01*
%TO.C,D14*%
X69665000Y-127135000D02*
X67665000Y-127135000D01*
X67665000Y-127135000D02*
X67665000Y-130985000D01*
X69665000Y-127135000D02*
X69665000Y-130985000D01*
%TO.C,D15*%
X56940000Y-132625000D02*
X60790000Y-132625000D01*
X56940000Y-134625000D02*
X60790000Y-134625000D01*
X56940000Y-132625000D02*
X56940000Y-134625000D01*
%TO.C,D16*%
X323640000Y-151675000D02*
X323640000Y-153675000D01*
X323640000Y-153675000D02*
X327490000Y-153675000D01*
X323640000Y-151675000D02*
X327490000Y-151675000D01*
%TO.C,D17*%
X308990000Y-144785000D02*
X305140000Y-144785000D01*
X308990000Y-142785000D02*
X305140000Y-142785000D01*
X308990000Y-144785000D02*
X308990000Y-142785000D01*
%TO.C,D18*%
X285540000Y-151675000D02*
X285540000Y-153675000D01*
X285540000Y-153675000D02*
X289390000Y-153675000D01*
X285540000Y-151675000D02*
X289390000Y-151675000D01*
%TO.C,D19*%
X266490000Y-151675000D02*
X270340000Y-151675000D01*
X266490000Y-153675000D02*
X270340000Y-153675000D01*
X266490000Y-151675000D02*
X266490000Y-153675000D01*
%TO.C,D20*%
X247440000Y-151675000D02*
X251290000Y-151675000D01*
X247440000Y-153675000D02*
X251290000Y-153675000D01*
X247440000Y-151675000D02*
X247440000Y-153675000D01*
%TO.C,D21*%
X228390000Y-151675000D02*
X232240000Y-151675000D01*
X228390000Y-153675000D02*
X232240000Y-153675000D01*
X228390000Y-151675000D02*
X228390000Y-153675000D01*
%TO.C,D22*%
X209340000Y-151675000D02*
X209340000Y-153675000D01*
X209340000Y-153675000D02*
X213190000Y-153675000D01*
X209340000Y-151675000D02*
X213190000Y-151675000D01*
%TO.C,D23*%
X190290000Y-151675000D02*
X190290000Y-153675000D01*
X190290000Y-153675000D02*
X194140000Y-153675000D01*
X190290000Y-151675000D02*
X194140000Y-151675000D01*
%TO.C,D24*%
X171240000Y-151675000D02*
X171240000Y-153675000D01*
X171240000Y-153675000D02*
X175090000Y-153675000D01*
X171240000Y-151675000D02*
X175090000Y-151675000D01*
%TO.C,D25*%
X152190000Y-151675000D02*
X156040000Y-151675000D01*
X152190000Y-153675000D02*
X156040000Y-153675000D01*
X152190000Y-151675000D02*
X152190000Y-153675000D01*
%TO.C,D26*%
X133140000Y-151675000D02*
X136990000Y-151675000D01*
X133140000Y-153675000D02*
X136990000Y-153675000D01*
X133140000Y-151675000D02*
X133140000Y-153675000D01*
%TO.C,D27*%
X114090000Y-151675000D02*
X114090000Y-153675000D01*
X114090000Y-153675000D02*
X117940000Y-153675000D01*
X114090000Y-151675000D02*
X117940000Y-151675000D01*
%TO.C,D28*%
X95040000Y-151675000D02*
X98890000Y-151675000D01*
X95040000Y-153675000D02*
X98890000Y-153675000D01*
X95040000Y-151675000D02*
X95040000Y-153675000D01*
%TO.C,D29*%
X56940000Y-151675000D02*
X56940000Y-153675000D01*
X56940000Y-153675000D02*
X60790000Y-153675000D01*
X56940000Y-151675000D02*
X60790000Y-151675000D01*
%TO.C,D30*%
X323640000Y-170725000D02*
X327490000Y-170725000D01*
X323640000Y-172725000D02*
X327490000Y-172725000D01*
X323640000Y-170725000D02*
X323640000Y-172725000D01*
%TO.C,D31*%
X304590000Y-170725000D02*
X304590000Y-172725000D01*
X304590000Y-172725000D02*
X308440000Y-172725000D01*
X304590000Y-170725000D02*
X308440000Y-170725000D01*
%TO.C,D32*%
X285540000Y-170725000D02*
X289390000Y-170725000D01*
X285540000Y-172725000D02*
X289390000Y-172725000D01*
X285540000Y-170725000D02*
X285540000Y-172725000D01*
%TO.C,D33*%
X266490000Y-170725000D02*
X266490000Y-172725000D01*
X266490000Y-172725000D02*
X270340000Y-172725000D01*
X266490000Y-170725000D02*
X270340000Y-170725000D01*
%TO.C,D34*%
X247440000Y-170725000D02*
X247440000Y-172725000D01*
X247440000Y-172725000D02*
X251290000Y-172725000D01*
X247440000Y-170725000D02*
X251290000Y-170725000D01*
%TO.C,D35*%
X228390000Y-170725000D02*
X228390000Y-172725000D01*
X228390000Y-172725000D02*
X232240000Y-172725000D01*
X228390000Y-170725000D02*
X232240000Y-170725000D01*
%TO.C,D36*%
X209340000Y-170725000D02*
X213190000Y-170725000D01*
X209340000Y-172725000D02*
X213190000Y-172725000D01*
X209340000Y-170725000D02*
X209340000Y-172725000D01*
%TO.C,D37*%
X190290000Y-170725000D02*
X194140000Y-170725000D01*
X190290000Y-172725000D02*
X194140000Y-172725000D01*
X190290000Y-170725000D02*
X190290000Y-172725000D01*
%TO.C,D38*%
X171240000Y-170725000D02*
X175090000Y-170725000D01*
X171240000Y-172725000D02*
X175090000Y-172725000D01*
X171240000Y-170725000D02*
X171240000Y-172725000D01*
%TO.C,D39*%
X152190000Y-170725000D02*
X152190000Y-172725000D01*
X152190000Y-172725000D02*
X156040000Y-172725000D01*
X152190000Y-170725000D02*
X156040000Y-170725000D01*
%TO.C,D40*%
X133140000Y-170725000D02*
X133140000Y-172725000D01*
X133140000Y-172725000D02*
X136990000Y-172725000D01*
X133140000Y-170725000D02*
X136990000Y-170725000D01*
%TO.C,D41*%
X114090000Y-170725000D02*
X114090000Y-172725000D01*
X114090000Y-172725000D02*
X117940000Y-172725000D01*
X114090000Y-170725000D02*
X117940000Y-170725000D01*
%TO.C,D42*%
X95040000Y-170725000D02*
X95040000Y-172725000D01*
X95040000Y-172725000D02*
X98890000Y-172725000D01*
X95040000Y-170725000D02*
X98890000Y-170725000D01*
%TO.C,D43*%
X75990000Y-161200000D02*
X79840000Y-161200000D01*
X75990000Y-163200000D02*
X79840000Y-163200000D01*
X75990000Y-161200000D02*
X75990000Y-163200000D01*
%TO.C,D44*%
X56940000Y-170725000D02*
X60790000Y-170725000D01*
X56940000Y-172725000D02*
X60790000Y-172725000D01*
X56940000Y-170725000D02*
X56940000Y-172725000D01*
%TO.C,D45*%
X323640000Y-189775000D02*
X323640000Y-191775000D01*
X323640000Y-191775000D02*
X327490000Y-191775000D01*
X323640000Y-189775000D02*
X327490000Y-189775000D01*
%TO.C,D46*%
X304590000Y-189775000D02*
X308440000Y-189775000D01*
X304590000Y-191775000D02*
X308440000Y-191775000D01*
X304590000Y-189775000D02*
X304590000Y-191775000D01*
%TO.C,D47*%
X285540000Y-189775000D02*
X285540000Y-191775000D01*
X285540000Y-191775000D02*
X289390000Y-191775000D01*
X285540000Y-189775000D02*
X289390000Y-189775000D01*
%TO.C,D48*%
X266490000Y-189775000D02*
X270340000Y-189775000D01*
X266490000Y-191775000D02*
X270340000Y-191775000D01*
X266490000Y-189775000D02*
X266490000Y-191775000D01*
%TO.C,D49*%
X247440000Y-189775000D02*
X251290000Y-189775000D01*
X247440000Y-191775000D02*
X251290000Y-191775000D01*
X247440000Y-189775000D02*
X247440000Y-191775000D01*
%TO.C,D50*%
X228390000Y-189775000D02*
X232240000Y-189775000D01*
X228390000Y-191775000D02*
X232240000Y-191775000D01*
X228390000Y-189775000D02*
X228390000Y-191775000D01*
%TO.C,D51*%
X209340000Y-189775000D02*
X209340000Y-191775000D01*
X209340000Y-191775000D02*
X213190000Y-191775000D01*
X209340000Y-189775000D02*
X213190000Y-189775000D01*
%TO.C,D52*%
X190290000Y-189775000D02*
X190290000Y-191775000D01*
X190290000Y-191775000D02*
X194140000Y-191775000D01*
X190290000Y-189775000D02*
X194140000Y-189775000D01*
%TO.C,D53*%
X171240000Y-189775000D02*
X175090000Y-189775000D01*
X171240000Y-191775000D02*
X175090000Y-191775000D01*
X171240000Y-189775000D02*
X171240000Y-191775000D01*
%TO.C,D54*%
X152190000Y-189775000D02*
X156040000Y-189775000D01*
X152190000Y-191775000D02*
X156040000Y-191775000D01*
X152190000Y-189775000D02*
X152190000Y-191775000D01*
%TO.C,D55*%
X133140000Y-189775000D02*
X133140000Y-191775000D01*
X133140000Y-191775000D02*
X136990000Y-191775000D01*
X133140000Y-189775000D02*
X136990000Y-189775000D01*
%TO.C,D56*%
X114090000Y-189775000D02*
X117940000Y-189775000D01*
X114090000Y-191775000D02*
X117940000Y-191775000D01*
X114090000Y-189775000D02*
X114090000Y-191775000D01*
%TO.C,D57*%
X95040000Y-189775000D02*
X98890000Y-189775000D01*
X95040000Y-191775000D02*
X98890000Y-191775000D01*
X95040000Y-189775000D02*
X95040000Y-191775000D01*
%TO.C,D58*%
X75990000Y-189775000D02*
X75990000Y-191775000D01*
X75990000Y-191775000D02*
X79840000Y-191775000D01*
X75990000Y-189775000D02*
X79840000Y-189775000D01*
%TO.C,D59*%
X56940000Y-189775000D02*
X56940000Y-191775000D01*
X56940000Y-191775000D02*
X60790000Y-191775000D01*
X56940000Y-189775000D02*
X60790000Y-189775000D01*
%TO.C,D60*%
X323640000Y-208825000D02*
X327490000Y-208825000D01*
X323640000Y-210825000D02*
X327490000Y-210825000D01*
X323640000Y-208825000D02*
X323640000Y-210825000D01*
%TO.C,D61*%
X304590000Y-208825000D02*
X304590000Y-210825000D01*
X304590000Y-210825000D02*
X308440000Y-210825000D01*
X304590000Y-208825000D02*
X308440000Y-208825000D01*
%TO.C,D62*%
X285540000Y-208825000D02*
X289390000Y-208825000D01*
X285540000Y-210825000D02*
X289390000Y-210825000D01*
X285540000Y-208825000D02*
X285540000Y-210825000D01*
%TO.C,D63*%
X266490000Y-208825000D02*
X266490000Y-210825000D01*
X266490000Y-210825000D02*
X270340000Y-210825000D01*
X266490000Y-208825000D02*
X270340000Y-208825000D01*
%TO.C,D64*%
X242315000Y-201935000D02*
X238465000Y-201935000D01*
X242315000Y-199935000D02*
X238465000Y-199935000D01*
X242315000Y-201935000D02*
X242315000Y-199935000D01*
%TO.C,D65*%
X204215000Y-201935000D02*
X200365000Y-201935000D01*
X204215000Y-199935000D02*
X200365000Y-199935000D01*
X204215000Y-201935000D02*
X204215000Y-199935000D01*
%TO.C,D66*%
X171240000Y-208825000D02*
X171240000Y-210825000D01*
X171240000Y-210825000D02*
X175090000Y-210825000D01*
X171240000Y-208825000D02*
X175090000Y-208825000D01*
%TO.C,D67*%
X152190000Y-208825000D02*
X152190000Y-210825000D01*
X152190000Y-210825000D02*
X156040000Y-210825000D01*
X152190000Y-208825000D02*
X156040000Y-208825000D01*
%TO.C,D68*%
X133140000Y-208825000D02*
X136990000Y-208825000D01*
X133140000Y-210825000D02*
X136990000Y-210825000D01*
X133140000Y-208825000D02*
X133140000Y-210825000D01*
%TO.C,D69*%
X114090000Y-208825000D02*
X117940000Y-208825000D01*
X114090000Y-210825000D02*
X117940000Y-210825000D01*
X114090000Y-208825000D02*
X114090000Y-210825000D01*
%TO.C,D70*%
X95040000Y-208825000D02*
X95040000Y-210825000D01*
X95040000Y-210825000D02*
X98890000Y-210825000D01*
X95040000Y-208825000D02*
X98890000Y-208825000D01*
%TO.C,D71*%
X75990000Y-208825000D02*
X79840000Y-208825000D01*
X75990000Y-210825000D02*
X79840000Y-210825000D01*
X75990000Y-208825000D02*
X75990000Y-210825000D01*
%TO.C,D72*%
X56940000Y-208825000D02*
X60790000Y-208825000D01*
X56940000Y-210825000D02*
X60790000Y-210825000D01*
X56940000Y-208825000D02*
X56940000Y-210825000D01*
%TO.C,R3*%
X88761267Y-134385000D02*
X88418733Y-134385000D01*
X88761267Y-135405000D02*
X88418733Y-135405000D01*
%TO.C,SW73*%
X80970000Y-173870000D02*
X80970000Y-168310000D01*
X76890000Y-173870000D02*
X79490000Y-173870000D01*
X75410000Y-173870000D02*
X75410000Y-168310000D01*
X76890000Y-168310000D02*
X79490000Y-168310000D01*
%TO.C,Y1*%
D11*
X78348809Y-148841190D02*
X78348809Y-149317380D01*
X78015476Y-148317380D02*
X78348809Y-148841190D01*
X78682142Y-148317380D01*
X79539285Y-149317380D02*
X78967857Y-149317380D01*
X79253571Y-149317380D02*
X79253571Y-148317380D01*
X79158333Y-148460238D01*
X79063095Y-148555476D01*
X78967857Y-148603095D01*
%TO.C,U1*%
X71078095Y-131172380D02*
X71078095Y-131981904D01*
X71125714Y-132077142D01*
X71173333Y-132124761D01*
X71268571Y-132172380D01*
X71459047Y-132172380D01*
X71554285Y-132124761D01*
X71601904Y-132077142D01*
X71649523Y-131981904D01*
X71649523Y-131172380D01*
X72649523Y-132172380D02*
X72078095Y-132172380D01*
X72363809Y-132172380D02*
X72363809Y-131172380D01*
X72268571Y-131315238D01*
X72173333Y-131410476D01*
X72078095Y-131458095D01*
%TO.C,R1*%
X319307380Y-135696666D02*
X318831190Y-136030000D01*
X319307380Y-136268095D02*
X318307380Y-136268095D01*
X318307380Y-135887142D01*
X318355000Y-135791904D01*
X318402619Y-135744285D01*
X318497857Y-135696666D01*
X318640714Y-135696666D01*
X318735952Y-135744285D01*
X318783571Y-135791904D01*
X318831190Y-135887142D01*
X318831190Y-136268095D01*
X319307380Y-134744285D02*
X319307380Y-135315714D01*
X319307380Y-135030000D02*
X318307380Y-135030000D01*
X318450238Y-135125238D01*
X318545476Y-135220476D01*
X318593095Y-135315714D01*
%TO.C,R2*%
X315497380Y-135696666D02*
X315021190Y-136030000D01*
X315497380Y-136268095D02*
X314497380Y-136268095D01*
X314497380Y-135887142D01*
X314545000Y-135791904D01*
X314592619Y-135744285D01*
X314687857Y-135696666D01*
X314830714Y-135696666D01*
X314925952Y-135744285D01*
X314973571Y-135791904D01*
X315021190Y-135887142D01*
X315021190Y-136268095D01*
X314592619Y-135315714D02*
X314545000Y-135268095D01*
X314497380Y-135172857D01*
X314497380Y-134934761D01*
X314545000Y-134839523D01*
X314592619Y-134791904D01*
X314687857Y-134744285D01*
X314783095Y-134744285D01*
X314925952Y-134791904D01*
X315497380Y-135363333D01*
X315497380Y-134744285D01*
%TO.C,R4*%
X69133333Y-151857380D02*
X68800000Y-151381190D01*
X68561904Y-151857380D02*
X68561904Y-150857380D01*
X68942857Y-150857380D01*
X69038095Y-150905000D01*
X69085714Y-150952619D01*
X69133333Y-151047857D01*
X69133333Y-151190714D01*
X69085714Y-151285952D01*
X69038095Y-151333571D01*
X68942857Y-151381190D01*
X68561904Y-151381190D01*
X69990476Y-151190714D02*
X69990476Y-151857380D01*
X69752380Y-150809761D02*
X69514285Y-151524047D01*
X70133333Y-151524047D01*
%TO.C,J1*%
X316531666Y-126671380D02*
X316531666Y-127385666D01*
X316484047Y-127528523D01*
X316388809Y-127623761D01*
X316245952Y-127671380D01*
X316150714Y-127671380D01*
X317531666Y-127671380D02*
X316960238Y-127671380D01*
X317245952Y-127671380D02*
X317245952Y-126671380D01*
X317150714Y-126814238D01*
X317055476Y-126909476D01*
X316960238Y-126957095D01*
%TO.C,J2*%
X68331666Y-152337380D02*
X68331666Y-153051666D01*
X68284047Y-153194523D01*
X68188809Y-153289761D01*
X68045952Y-153337380D01*
X67950714Y-153337380D01*
X68760238Y-152432619D02*
X68807857Y-152385000D01*
X68903095Y-152337380D01*
X69141190Y-152337380D01*
X69236428Y-152385000D01*
X69284047Y-152432619D01*
X69331666Y-152527857D01*
X69331666Y-152623095D01*
X69284047Y-152765952D01*
X68712619Y-153337380D01*
X69331666Y-153337380D01*
X67688809Y-163077380D02*
X67688809Y-162077380D01*
X68117380Y-163029761D02*
X68260238Y-163077380D01*
X68498333Y-163077380D01*
X68593571Y-163029761D01*
X68641190Y-162982142D01*
X68688809Y-162886904D01*
X68688809Y-162791666D01*
X68641190Y-162696428D01*
X68593571Y-162648809D01*
X68498333Y-162601190D01*
X68307857Y-162553571D01*
X68212619Y-162505952D01*
X68165000Y-162458333D01*
X68117380Y-162363095D01*
X68117380Y-162267857D01*
X68165000Y-162172619D01*
X68212619Y-162125000D01*
X68307857Y-162077380D01*
X68545952Y-162077380D01*
X68688809Y-162125000D01*
X69117380Y-163077380D02*
X69117380Y-162077380D01*
X69498333Y-162077380D01*
X69593571Y-162125000D01*
X69641190Y-162172619D01*
X69688809Y-162267857D01*
X69688809Y-162410714D01*
X69641190Y-162505952D01*
X69593571Y-162553571D01*
X69498333Y-162601190D01*
X69117380Y-162601190D01*
%TO.C,C1*%
X89977142Y-146491666D02*
X90024761Y-146539285D01*
X90072380Y-146682142D01*
X90072380Y-146777380D01*
X90024761Y-146920238D01*
X89929523Y-147015476D01*
X89834285Y-147063095D01*
X89643809Y-147110714D01*
X89500952Y-147110714D01*
X89310476Y-147063095D01*
X89215238Y-147015476D01*
X89120000Y-146920238D01*
X89072380Y-146777380D01*
X89072380Y-146682142D01*
X89120000Y-146539285D01*
X89167619Y-146491666D01*
X90072380Y-145539285D02*
X90072380Y-146110714D01*
X90072380Y-145825000D02*
X89072380Y-145825000D01*
X89215238Y-145920238D01*
X89310476Y-146015476D01*
X89358095Y-146110714D01*
%TO.C,C2*%
X68387142Y-133791666D02*
X68434761Y-133839285D01*
X68482380Y-133982142D01*
X68482380Y-134077380D01*
X68434761Y-134220238D01*
X68339523Y-134315476D01*
X68244285Y-134363095D01*
X68053809Y-134410714D01*
X67910952Y-134410714D01*
X67720476Y-134363095D01*
X67625238Y-134315476D01*
X67530000Y-134220238D01*
X67482380Y-134077380D01*
X67482380Y-133982142D01*
X67530000Y-133839285D01*
X67577619Y-133791666D01*
X67577619Y-133410714D02*
X67530000Y-133363095D01*
X67482380Y-133267857D01*
X67482380Y-133029761D01*
X67530000Y-132934523D01*
X67577619Y-132886904D01*
X67672857Y-132839285D01*
X67768095Y-132839285D01*
X67910952Y-132886904D01*
X68482380Y-133458333D01*
X68482380Y-132839285D01*
%TO.C,C3*%
X67117142Y-142681666D02*
X67164761Y-142729285D01*
X67212380Y-142872142D01*
X67212380Y-142967380D01*
X67164761Y-143110238D01*
X67069523Y-143205476D01*
X66974285Y-143253095D01*
X66783809Y-143300714D01*
X66640952Y-143300714D01*
X66450476Y-143253095D01*
X66355238Y-143205476D01*
X66260000Y-143110238D01*
X66212380Y-142967380D01*
X66212380Y-142872142D01*
X66260000Y-142729285D01*
X66307619Y-142681666D01*
X66212380Y-142348333D02*
X66212380Y-141729285D01*
X66593333Y-142062619D01*
X66593333Y-141919761D01*
X66640952Y-141824523D01*
X66688571Y-141776904D01*
X66783809Y-141729285D01*
X67021904Y-141729285D01*
X67117142Y-141776904D01*
X67164761Y-141824523D01*
X67212380Y-141919761D01*
X67212380Y-142205476D01*
X67164761Y-142300714D01*
X67117142Y-142348333D01*
%TO.C,C4*%
X86167142Y-129346666D02*
X86214761Y-129394285D01*
X86262380Y-129537142D01*
X86262380Y-129632380D01*
X86214761Y-129775238D01*
X86119523Y-129870476D01*
X86024285Y-129918095D01*
X85833809Y-129965714D01*
X85690952Y-129965714D01*
X85500476Y-129918095D01*
X85405238Y-129870476D01*
X85310000Y-129775238D01*
X85262380Y-129632380D01*
X85262380Y-129537142D01*
X85310000Y-129394285D01*
X85357619Y-129346666D01*
X85595714Y-128489523D02*
X86262380Y-128489523D01*
X85214761Y-128727619D02*
X85929047Y-128965714D01*
X85929047Y-128346666D01*
%TO.C,C5*%
X69657142Y-140141666D02*
X69704761Y-140189285D01*
X69752380Y-140332142D01*
X69752380Y-140427380D01*
X69704761Y-140570238D01*
X69609523Y-140665476D01*
X69514285Y-140713095D01*
X69323809Y-140760714D01*
X69180952Y-140760714D01*
X68990476Y-140713095D01*
X68895238Y-140665476D01*
X68800000Y-140570238D01*
X68752380Y-140427380D01*
X68752380Y-140332142D01*
X68800000Y-140189285D01*
X68847619Y-140141666D01*
X68752380Y-139236904D02*
X68752380Y-139713095D01*
X69228571Y-139760714D01*
X69180952Y-139713095D01*
X69133333Y-139617857D01*
X69133333Y-139379761D01*
X69180952Y-139284523D01*
X69228571Y-139236904D01*
X69323809Y-139189285D01*
X69561904Y-139189285D01*
X69657142Y-139236904D01*
X69704761Y-139284523D01*
X69752380Y-139379761D01*
X69752380Y-139617857D01*
X69704761Y-139713095D01*
X69657142Y-139760714D01*
%TO.C,C6*%
X78547142Y-154746666D02*
X78594761Y-154794285D01*
X78642380Y-154937142D01*
X78642380Y-155032380D01*
X78594761Y-155175238D01*
X78499523Y-155270476D01*
X78404285Y-155318095D01*
X78213809Y-155365714D01*
X78070952Y-155365714D01*
X77880476Y-155318095D01*
X77785238Y-155270476D01*
X77690000Y-155175238D01*
X77642380Y-155032380D01*
X77642380Y-154937142D01*
X77690000Y-154794285D01*
X77737619Y-154746666D01*
X77642380Y-153889523D02*
X77642380Y-154080000D01*
X77690000Y-154175238D01*
X77737619Y-154222857D01*
X77880476Y-154318095D01*
X78070952Y-154365714D01*
X78451904Y-154365714D01*
X78547142Y-154318095D01*
X78594761Y-154270476D01*
X78642380Y-154175238D01*
X78642380Y-153984761D01*
X78594761Y-153889523D01*
X78547142Y-153841904D01*
X78451904Y-153794285D01*
X78213809Y-153794285D01*
X78118571Y-153841904D01*
X78070952Y-153889523D01*
X78023333Y-153984761D01*
X78023333Y-154175238D01*
X78070952Y-154270476D01*
X78118571Y-154318095D01*
X78213809Y-154365714D01*
%TO.C,C7*%
X84897142Y-154746666D02*
X84944761Y-154794285D01*
X84992380Y-154937142D01*
X84992380Y-155032380D01*
X84944761Y-155175238D01*
X84849523Y-155270476D01*
X84754285Y-155318095D01*
X84563809Y-155365714D01*
X84420952Y-155365714D01*
X84230476Y-155318095D01*
X84135238Y-155270476D01*
X84040000Y-155175238D01*
X83992380Y-155032380D01*
X83992380Y-154937142D01*
X84040000Y-154794285D01*
X84087619Y-154746666D01*
X83992380Y-154413333D02*
X83992380Y-153746666D01*
X84992380Y-154175238D01*
%TO.C,D1*%
X320656904Y-134077380D02*
X320656904Y-133077380D01*
X320895000Y-133077380D01*
X321037857Y-133125000D01*
X321133095Y-133220238D01*
X321180714Y-133315476D01*
X321228333Y-133505952D01*
X321228333Y-133648809D01*
X321180714Y-133839285D01*
X321133095Y-133934523D01*
X321037857Y-134029761D01*
X320895000Y-134077380D01*
X320656904Y-134077380D01*
X322180714Y-134077380D02*
X321609285Y-134077380D01*
X321895000Y-134077380D02*
X321895000Y-133077380D01*
X321799761Y-133220238D01*
X321704523Y-133315476D01*
X321609285Y-133363095D01*
%TO.C,D2*%
X301606904Y-134077380D02*
X301606904Y-133077380D01*
X301845000Y-133077380D01*
X301987857Y-133125000D01*
X302083095Y-133220238D01*
X302130714Y-133315476D01*
X302178333Y-133505952D01*
X302178333Y-133648809D01*
X302130714Y-133839285D01*
X302083095Y-133934523D01*
X301987857Y-134029761D01*
X301845000Y-134077380D01*
X301606904Y-134077380D01*
X302559285Y-133172619D02*
X302606904Y-133125000D01*
X302702142Y-133077380D01*
X302940238Y-133077380D01*
X303035476Y-133125000D01*
X303083095Y-133172619D01*
X303130714Y-133267857D01*
X303130714Y-133363095D01*
X303083095Y-133505952D01*
X302511666Y-134077380D01*
X303130714Y-134077380D01*
%TO.C,D3*%
X282556904Y-134077380D02*
X282556904Y-133077380D01*
X282795000Y-133077380D01*
X282937857Y-133125000D01*
X283033095Y-133220238D01*
X283080714Y-133315476D01*
X283128333Y-133505952D01*
X283128333Y-133648809D01*
X283080714Y-133839285D01*
X283033095Y-133934523D01*
X282937857Y-134029761D01*
X282795000Y-134077380D01*
X282556904Y-134077380D01*
X283461666Y-133077380D02*
X284080714Y-133077380D01*
X283747380Y-133458333D01*
X283890238Y-133458333D01*
X283985476Y-133505952D01*
X284033095Y-133553571D01*
X284080714Y-133648809D01*
X284080714Y-133886904D01*
X284033095Y-133982142D01*
X283985476Y-134029761D01*
X283890238Y-134077380D01*
X283604523Y-134077380D01*
X283509285Y-134029761D01*
X283461666Y-133982142D01*
%TO.C,D4*%
X263506904Y-134077380D02*
X263506904Y-133077380D01*
X263745000Y-133077380D01*
X263887857Y-133125000D01*
X263983095Y-133220238D01*
X264030714Y-133315476D01*
X264078333Y-133505952D01*
X264078333Y-133648809D01*
X264030714Y-133839285D01*
X263983095Y-133934523D01*
X263887857Y-134029761D01*
X263745000Y-134077380D01*
X263506904Y-134077380D01*
X264935476Y-133410714D02*
X264935476Y-134077380D01*
X264697380Y-133029761D02*
X264459285Y-133744047D01*
X265078333Y-133744047D01*
%TO.C,D5*%
X244456904Y-134077380D02*
X244456904Y-133077380D01*
X244695000Y-133077380D01*
X244837857Y-133125000D01*
X244933095Y-133220238D01*
X244980714Y-133315476D01*
X245028333Y-133505952D01*
X245028333Y-133648809D01*
X244980714Y-133839285D01*
X244933095Y-133934523D01*
X244837857Y-134029761D01*
X244695000Y-134077380D01*
X244456904Y-134077380D01*
X245933095Y-133077380D02*
X245456904Y-133077380D01*
X245409285Y-133553571D01*
X245456904Y-133505952D01*
X245552142Y-133458333D01*
X245790238Y-133458333D01*
X245885476Y-133505952D01*
X245933095Y-133553571D01*
X245980714Y-133648809D01*
X245980714Y-133886904D01*
X245933095Y-133982142D01*
X245885476Y-134029761D01*
X245790238Y-134077380D01*
X245552142Y-134077380D01*
X245456904Y-134029761D01*
X245409285Y-133982142D01*
%TO.C,D6*%
X225406904Y-134077380D02*
X225406904Y-133077380D01*
X225645000Y-133077380D01*
X225787857Y-133125000D01*
X225883095Y-133220238D01*
X225930714Y-133315476D01*
X225978333Y-133505952D01*
X225978333Y-133648809D01*
X225930714Y-133839285D01*
X225883095Y-133934523D01*
X225787857Y-134029761D01*
X225645000Y-134077380D01*
X225406904Y-134077380D01*
X226835476Y-133077380D02*
X226645000Y-133077380D01*
X226549761Y-133125000D01*
X226502142Y-133172619D01*
X226406904Y-133315476D01*
X226359285Y-133505952D01*
X226359285Y-133886904D01*
X226406904Y-133982142D01*
X226454523Y-134029761D01*
X226549761Y-134077380D01*
X226740238Y-134077380D01*
X226835476Y-134029761D01*
X226883095Y-133982142D01*
X226930714Y-133886904D01*
X226930714Y-133648809D01*
X226883095Y-133553571D01*
X226835476Y-133505952D01*
X226740238Y-133458333D01*
X226549761Y-133458333D01*
X226454523Y-133505952D01*
X226406904Y-133553571D01*
X226359285Y-133648809D01*
%TO.C,D7*%
X206356904Y-134077380D02*
X206356904Y-133077380D01*
X206595000Y-133077380D01*
X206737857Y-133125000D01*
X206833095Y-133220238D01*
X206880714Y-133315476D01*
X206928333Y-133505952D01*
X206928333Y-133648809D01*
X206880714Y-133839285D01*
X206833095Y-133934523D01*
X206737857Y-134029761D01*
X206595000Y-134077380D01*
X206356904Y-134077380D01*
X207261666Y-133077380D02*
X207928333Y-133077380D01*
X207499761Y-134077380D01*
%TO.C,D8*%
X187306904Y-134077380D02*
X187306904Y-133077380D01*
X187545000Y-133077380D01*
X187687857Y-133125000D01*
X187783095Y-133220238D01*
X187830714Y-133315476D01*
X187878333Y-133505952D01*
X187878333Y-133648809D01*
X187830714Y-133839285D01*
X187783095Y-133934523D01*
X187687857Y-134029761D01*
X187545000Y-134077380D01*
X187306904Y-134077380D01*
X188449761Y-133505952D02*
X188354523Y-133458333D01*
X188306904Y-133410714D01*
X188259285Y-133315476D01*
X188259285Y-133267857D01*
X188306904Y-133172619D01*
X188354523Y-133125000D01*
X188449761Y-133077380D01*
X188640238Y-133077380D01*
X188735476Y-133125000D01*
X188783095Y-133172619D01*
X188830714Y-133267857D01*
X188830714Y-133315476D01*
X188783095Y-133410714D01*
X188735476Y-133458333D01*
X188640238Y-133505952D01*
X188449761Y-133505952D01*
X188354523Y-133553571D01*
X188306904Y-133601190D01*
X188259285Y-133696428D01*
X188259285Y-133886904D01*
X188306904Y-133982142D01*
X188354523Y-134029761D01*
X188449761Y-134077380D01*
X188640238Y-134077380D01*
X188735476Y-134029761D01*
X188783095Y-133982142D01*
X188830714Y-133886904D01*
X188830714Y-133696428D01*
X188783095Y-133601190D01*
X188735476Y-133553571D01*
X188640238Y-133505952D01*
%TO.C,D9*%
X168256904Y-134077380D02*
X168256904Y-133077380D01*
X168495000Y-133077380D01*
X168637857Y-133125000D01*
X168733095Y-133220238D01*
X168780714Y-133315476D01*
X168828333Y-133505952D01*
X168828333Y-133648809D01*
X168780714Y-133839285D01*
X168733095Y-133934523D01*
X168637857Y-134029761D01*
X168495000Y-134077380D01*
X168256904Y-134077380D01*
X169304523Y-134077380D02*
X169495000Y-134077380D01*
X169590238Y-134029761D01*
X169637857Y-133982142D01*
X169733095Y-133839285D01*
X169780714Y-133648809D01*
X169780714Y-133267857D01*
X169733095Y-133172619D01*
X169685476Y-133125000D01*
X169590238Y-133077380D01*
X169399761Y-133077380D01*
X169304523Y-133125000D01*
X169256904Y-133172619D01*
X169209285Y-133267857D01*
X169209285Y-133505952D01*
X169256904Y-133601190D01*
X169304523Y-133648809D01*
X169399761Y-133696428D01*
X169590238Y-133696428D01*
X169685476Y-133648809D01*
X169733095Y-133601190D01*
X169780714Y-133505952D01*
%TO.C,D10*%
X148730714Y-134077380D02*
X148730714Y-133077380D01*
X148968809Y-133077380D01*
X149111666Y-133125000D01*
X149206904Y-133220238D01*
X149254523Y-133315476D01*
X149302142Y-133505952D01*
X149302142Y-133648809D01*
X149254523Y-133839285D01*
X149206904Y-133934523D01*
X149111666Y-134029761D01*
X148968809Y-134077380D01*
X148730714Y-134077380D01*
X150254523Y-134077380D02*
X149683095Y-134077380D01*
X149968809Y-134077380D02*
X149968809Y-133077380D01*
X149873571Y-133220238D01*
X149778333Y-133315476D01*
X149683095Y-133363095D01*
X150873571Y-133077380D02*
X150968809Y-133077380D01*
X151064047Y-133125000D01*
X151111666Y-133172619D01*
X151159285Y-133267857D01*
X151206904Y-133458333D01*
X151206904Y-133696428D01*
X151159285Y-133886904D01*
X151111666Y-133982142D01*
X151064047Y-134029761D01*
X150968809Y-134077380D01*
X150873571Y-134077380D01*
X150778333Y-134029761D01*
X150730714Y-133982142D01*
X150683095Y-133886904D01*
X150635476Y-133696428D01*
X150635476Y-133458333D01*
X150683095Y-133267857D01*
X150730714Y-133172619D01*
X150778333Y-133125000D01*
X150873571Y-133077380D01*
%TO.C,D11*%
X129680714Y-134077380D02*
X129680714Y-133077380D01*
X129918809Y-133077380D01*
X130061666Y-133125000D01*
X130156904Y-133220238D01*
X130204523Y-133315476D01*
X130252142Y-133505952D01*
X130252142Y-133648809D01*
X130204523Y-133839285D01*
X130156904Y-133934523D01*
X130061666Y-134029761D01*
X129918809Y-134077380D01*
X129680714Y-134077380D01*
X131204523Y-134077380D02*
X130633095Y-134077380D01*
X130918809Y-134077380D02*
X130918809Y-133077380D01*
X130823571Y-133220238D01*
X130728333Y-133315476D01*
X130633095Y-133363095D01*
X132156904Y-134077380D02*
X131585476Y-134077380D01*
X131871190Y-134077380D02*
X131871190Y-133077380D01*
X131775952Y-133220238D01*
X131680714Y-133315476D01*
X131585476Y-133363095D01*
%TO.C,D12*%
X110630714Y-134077380D02*
X110630714Y-133077380D01*
X110868809Y-133077380D01*
X111011666Y-133125000D01*
X111106904Y-133220238D01*
X111154523Y-133315476D01*
X111202142Y-133505952D01*
X111202142Y-133648809D01*
X111154523Y-133839285D01*
X111106904Y-133934523D01*
X111011666Y-134029761D01*
X110868809Y-134077380D01*
X110630714Y-134077380D01*
X112154523Y-134077380D02*
X111583095Y-134077380D01*
X111868809Y-134077380D02*
X111868809Y-133077380D01*
X111773571Y-133220238D01*
X111678333Y-133315476D01*
X111583095Y-133363095D01*
X112535476Y-133172619D02*
X112583095Y-133125000D01*
X112678333Y-133077380D01*
X112916428Y-133077380D01*
X113011666Y-133125000D01*
X113059285Y-133172619D01*
X113106904Y-133267857D01*
X113106904Y-133363095D01*
X113059285Y-133505952D01*
X112487857Y-134077380D01*
X113106904Y-134077380D01*
%TO.C,D13*%
X91580714Y-134077380D02*
X91580714Y-133077380D01*
X91818809Y-133077380D01*
X91961666Y-133125000D01*
X92056904Y-133220238D01*
X92104523Y-133315476D01*
X92152142Y-133505952D01*
X92152142Y-133648809D01*
X92104523Y-133839285D01*
X92056904Y-133934523D01*
X91961666Y-134029761D01*
X91818809Y-134077380D01*
X91580714Y-134077380D01*
X93104523Y-134077380D02*
X92533095Y-134077380D01*
X92818809Y-134077380D02*
X92818809Y-133077380D01*
X92723571Y-133220238D01*
X92628333Y-133315476D01*
X92533095Y-133363095D01*
X93437857Y-133077380D02*
X94056904Y-133077380D01*
X93723571Y-133458333D01*
X93866428Y-133458333D01*
X93961666Y-133505952D01*
X94009285Y-133553571D01*
X94056904Y-133648809D01*
X94056904Y-133886904D01*
X94009285Y-133982142D01*
X93961666Y-134029761D01*
X93866428Y-134077380D01*
X93580714Y-134077380D01*
X93485476Y-134029761D01*
X93437857Y-133982142D01*
%TO.C,D14*%
X69117380Y-125949285D02*
X68117380Y-125949285D01*
X68117380Y-125711190D01*
X68165000Y-125568333D01*
X68260238Y-125473095D01*
X68355476Y-125425476D01*
X68545952Y-125377857D01*
X68688809Y-125377857D01*
X68879285Y-125425476D01*
X68974523Y-125473095D01*
X69069761Y-125568333D01*
X69117380Y-125711190D01*
X69117380Y-125949285D01*
X69117380Y-124425476D02*
X69117380Y-124996904D01*
X69117380Y-124711190D02*
X68117380Y-124711190D01*
X68260238Y-124806428D01*
X68355476Y-124901666D01*
X68403095Y-124996904D01*
X68450714Y-123568333D02*
X69117380Y-123568333D01*
X68069761Y-123806428D02*
X68784047Y-124044523D01*
X68784047Y-123425476D01*
%TO.C,D15*%
X53480714Y-134077380D02*
X53480714Y-133077380D01*
X53718809Y-133077380D01*
X53861666Y-133125000D01*
X53956904Y-133220238D01*
X54004523Y-133315476D01*
X54052142Y-133505952D01*
X54052142Y-133648809D01*
X54004523Y-133839285D01*
X53956904Y-133934523D01*
X53861666Y-134029761D01*
X53718809Y-134077380D01*
X53480714Y-134077380D01*
X55004523Y-134077380D02*
X54433095Y-134077380D01*
X54718809Y-134077380D02*
X54718809Y-133077380D01*
X54623571Y-133220238D01*
X54528333Y-133315476D01*
X54433095Y-133363095D01*
X55909285Y-133077380D02*
X55433095Y-133077380D01*
X55385476Y-133553571D01*
X55433095Y-133505952D01*
X55528333Y-133458333D01*
X55766428Y-133458333D01*
X55861666Y-133505952D01*
X55909285Y-133553571D01*
X55956904Y-133648809D01*
X55956904Y-133886904D01*
X55909285Y-133982142D01*
X55861666Y-134029761D01*
X55766428Y-134077380D01*
X55528333Y-134077380D01*
X55433095Y-134029761D01*
X55385476Y-133982142D01*
%TO.C,D16*%
X320180714Y-153127380D02*
X320180714Y-152127380D01*
X320418809Y-152127380D01*
X320561666Y-152175000D01*
X320656904Y-152270238D01*
X320704523Y-152365476D01*
X320752142Y-152555952D01*
X320752142Y-152698809D01*
X320704523Y-152889285D01*
X320656904Y-152984523D01*
X320561666Y-153079761D01*
X320418809Y-153127380D01*
X320180714Y-153127380D01*
X321704523Y-153127380D02*
X321133095Y-153127380D01*
X321418809Y-153127380D02*
X321418809Y-152127380D01*
X321323571Y-152270238D01*
X321228333Y-152365476D01*
X321133095Y-152413095D01*
X322561666Y-152127380D02*
X322371190Y-152127380D01*
X322275952Y-152175000D01*
X322228333Y-152222619D01*
X322133095Y-152365476D01*
X322085476Y-152555952D01*
X322085476Y-152936904D01*
X322133095Y-153032142D01*
X322180714Y-153079761D01*
X322275952Y-153127380D01*
X322466428Y-153127380D01*
X322561666Y-153079761D01*
X322609285Y-153032142D01*
X322656904Y-152936904D01*
X322656904Y-152698809D01*
X322609285Y-152603571D01*
X322561666Y-152555952D01*
X322466428Y-152508333D01*
X322275952Y-152508333D01*
X322180714Y-152555952D01*
X322133095Y-152603571D01*
X322085476Y-152698809D01*
%TO.C,D17*%
X301130714Y-144237380D02*
X301130714Y-143237380D01*
X301368809Y-143237380D01*
X301511666Y-143285000D01*
X301606904Y-143380238D01*
X301654523Y-143475476D01*
X301702142Y-143665952D01*
X301702142Y-143808809D01*
X301654523Y-143999285D01*
X301606904Y-144094523D01*
X301511666Y-144189761D01*
X301368809Y-144237380D01*
X301130714Y-144237380D01*
X302654523Y-144237380D02*
X302083095Y-144237380D01*
X302368809Y-144237380D02*
X302368809Y-143237380D01*
X302273571Y-143380238D01*
X302178333Y-143475476D01*
X302083095Y-143523095D01*
X302987857Y-143237380D02*
X303654523Y-143237380D01*
X303225952Y-144237380D01*
%TO.C,D18*%
X282080714Y-153127380D02*
X282080714Y-152127380D01*
X282318809Y-152127380D01*
X282461666Y-152175000D01*
X282556904Y-152270238D01*
X282604523Y-152365476D01*
X282652142Y-152555952D01*
X282652142Y-152698809D01*
X282604523Y-152889285D01*
X282556904Y-152984523D01*
X282461666Y-153079761D01*
X282318809Y-153127380D01*
X282080714Y-153127380D01*
X283604523Y-153127380D02*
X283033095Y-153127380D01*
X283318809Y-153127380D02*
X283318809Y-152127380D01*
X283223571Y-152270238D01*
X283128333Y-152365476D01*
X283033095Y-152413095D01*
X284175952Y-152555952D02*
X284080714Y-152508333D01*
X284033095Y-152460714D01*
X283985476Y-152365476D01*
X283985476Y-152317857D01*
X284033095Y-152222619D01*
X284080714Y-152175000D01*
X284175952Y-152127380D01*
X284366428Y-152127380D01*
X284461666Y-152175000D01*
X284509285Y-152222619D01*
X284556904Y-152317857D01*
X284556904Y-152365476D01*
X284509285Y-152460714D01*
X284461666Y-152508333D01*
X284366428Y-152555952D01*
X284175952Y-152555952D01*
X284080714Y-152603571D01*
X284033095Y-152651190D01*
X283985476Y-152746428D01*
X283985476Y-152936904D01*
X284033095Y-153032142D01*
X284080714Y-153079761D01*
X284175952Y-153127380D01*
X284366428Y-153127380D01*
X284461666Y-153079761D01*
X284509285Y-153032142D01*
X284556904Y-152936904D01*
X284556904Y-152746428D01*
X284509285Y-152651190D01*
X284461666Y-152603571D01*
X284366428Y-152555952D01*
%TO.C,D19*%
X263030714Y-153127380D02*
X263030714Y-152127380D01*
X263268809Y-152127380D01*
X263411666Y-152175000D01*
X263506904Y-152270238D01*
X263554523Y-152365476D01*
X263602142Y-152555952D01*
X263602142Y-152698809D01*
X263554523Y-152889285D01*
X263506904Y-152984523D01*
X263411666Y-153079761D01*
X263268809Y-153127380D01*
X263030714Y-153127380D01*
X264554523Y-153127380D02*
X263983095Y-153127380D01*
X264268809Y-153127380D02*
X264268809Y-152127380D01*
X264173571Y-152270238D01*
X264078333Y-152365476D01*
X263983095Y-152413095D01*
X265030714Y-153127380D02*
X265221190Y-153127380D01*
X265316428Y-153079761D01*
X265364047Y-153032142D01*
X265459285Y-152889285D01*
X265506904Y-152698809D01*
X265506904Y-152317857D01*
X265459285Y-152222619D01*
X265411666Y-152175000D01*
X265316428Y-152127380D01*
X265125952Y-152127380D01*
X265030714Y-152175000D01*
X264983095Y-152222619D01*
X264935476Y-152317857D01*
X264935476Y-152555952D01*
X264983095Y-152651190D01*
X265030714Y-152698809D01*
X265125952Y-152746428D01*
X265316428Y-152746428D01*
X265411666Y-152698809D01*
X265459285Y-152651190D01*
X265506904Y-152555952D01*
%TO.C,D20*%
X243980714Y-153127380D02*
X243980714Y-152127380D01*
X244218809Y-152127380D01*
X244361666Y-152175000D01*
X244456904Y-152270238D01*
X244504523Y-152365476D01*
X244552142Y-152555952D01*
X244552142Y-152698809D01*
X244504523Y-152889285D01*
X244456904Y-152984523D01*
X244361666Y-153079761D01*
X244218809Y-153127380D01*
X243980714Y-153127380D01*
X244933095Y-152222619D02*
X244980714Y-152175000D01*
X245075952Y-152127380D01*
X245314047Y-152127380D01*
X245409285Y-152175000D01*
X245456904Y-152222619D01*
X245504523Y-152317857D01*
X245504523Y-152413095D01*
X245456904Y-152555952D01*
X244885476Y-153127380D01*
X245504523Y-153127380D01*
X246123571Y-152127380D02*
X246218809Y-152127380D01*
X246314047Y-152175000D01*
X246361666Y-152222619D01*
X246409285Y-152317857D01*
X246456904Y-152508333D01*
X246456904Y-152746428D01*
X246409285Y-152936904D01*
X246361666Y-153032142D01*
X246314047Y-153079761D01*
X246218809Y-153127380D01*
X246123571Y-153127380D01*
X246028333Y-153079761D01*
X245980714Y-153032142D01*
X245933095Y-152936904D01*
X245885476Y-152746428D01*
X245885476Y-152508333D01*
X245933095Y-152317857D01*
X245980714Y-152222619D01*
X246028333Y-152175000D01*
X246123571Y-152127380D01*
%TO.C,D21*%
X224930714Y-153127380D02*
X224930714Y-152127380D01*
X225168809Y-152127380D01*
X225311666Y-152175000D01*
X225406904Y-152270238D01*
X225454523Y-152365476D01*
X225502142Y-152555952D01*
X225502142Y-152698809D01*
X225454523Y-152889285D01*
X225406904Y-152984523D01*
X225311666Y-153079761D01*
X225168809Y-153127380D01*
X224930714Y-153127380D01*
X225883095Y-152222619D02*
X225930714Y-152175000D01*
X226025952Y-152127380D01*
X226264047Y-152127380D01*
X226359285Y-152175000D01*
X226406904Y-152222619D01*
X226454523Y-152317857D01*
X226454523Y-152413095D01*
X226406904Y-152555952D01*
X225835476Y-153127380D01*
X226454523Y-153127380D01*
X227406904Y-153127380D02*
X226835476Y-153127380D01*
X227121190Y-153127380D02*
X227121190Y-152127380D01*
X227025952Y-152270238D01*
X226930714Y-152365476D01*
X226835476Y-152413095D01*
%TO.C,D22*%
X205880714Y-153127380D02*
X205880714Y-152127380D01*
X206118809Y-152127380D01*
X206261666Y-152175000D01*
X206356904Y-152270238D01*
X206404523Y-152365476D01*
X206452142Y-152555952D01*
X206452142Y-152698809D01*
X206404523Y-152889285D01*
X206356904Y-152984523D01*
X206261666Y-153079761D01*
X206118809Y-153127380D01*
X205880714Y-153127380D01*
X206833095Y-152222619D02*
X206880714Y-152175000D01*
X206975952Y-152127380D01*
X207214047Y-152127380D01*
X207309285Y-152175000D01*
X207356904Y-152222619D01*
X207404523Y-152317857D01*
X207404523Y-152413095D01*
X207356904Y-152555952D01*
X206785476Y-153127380D01*
X207404523Y-153127380D01*
X207785476Y-152222619D02*
X207833095Y-152175000D01*
X207928333Y-152127380D01*
X208166428Y-152127380D01*
X208261666Y-152175000D01*
X208309285Y-152222619D01*
X208356904Y-152317857D01*
X208356904Y-152413095D01*
X208309285Y-152555952D01*
X207737857Y-153127380D01*
X208356904Y-153127380D01*
%TO.C,D23*%
X186830714Y-153127380D02*
X186830714Y-152127380D01*
X187068809Y-152127380D01*
X187211666Y-152175000D01*
X187306904Y-152270238D01*
X187354523Y-152365476D01*
X187402142Y-152555952D01*
X187402142Y-152698809D01*
X187354523Y-152889285D01*
X187306904Y-152984523D01*
X187211666Y-153079761D01*
X187068809Y-153127380D01*
X186830714Y-153127380D01*
X187783095Y-152222619D02*
X187830714Y-152175000D01*
X187925952Y-152127380D01*
X188164047Y-152127380D01*
X188259285Y-152175000D01*
X188306904Y-152222619D01*
X188354523Y-152317857D01*
X188354523Y-152413095D01*
X188306904Y-152555952D01*
X187735476Y-153127380D01*
X188354523Y-153127380D01*
X188687857Y-152127380D02*
X189306904Y-152127380D01*
X188973571Y-152508333D01*
X189116428Y-152508333D01*
X189211666Y-152555952D01*
X189259285Y-152603571D01*
X189306904Y-152698809D01*
X189306904Y-152936904D01*
X189259285Y-153032142D01*
X189211666Y-153079761D01*
X189116428Y-153127380D01*
X188830714Y-153127380D01*
X188735476Y-153079761D01*
X188687857Y-153032142D01*
%TO.C,D24*%
X167780714Y-153127380D02*
X167780714Y-152127380D01*
X168018809Y-152127380D01*
X168161666Y-152175000D01*
X168256904Y-152270238D01*
X168304523Y-152365476D01*
X168352142Y-152555952D01*
X168352142Y-152698809D01*
X168304523Y-152889285D01*
X168256904Y-152984523D01*
X168161666Y-153079761D01*
X168018809Y-153127380D01*
X167780714Y-153127380D01*
X168733095Y-152222619D02*
X168780714Y-152175000D01*
X168875952Y-152127380D01*
X169114047Y-152127380D01*
X169209285Y-152175000D01*
X169256904Y-152222619D01*
X169304523Y-152317857D01*
X169304523Y-152413095D01*
X169256904Y-152555952D01*
X168685476Y-153127380D01*
X169304523Y-153127380D01*
X170161666Y-152460714D02*
X170161666Y-153127380D01*
X169923571Y-152079761D02*
X169685476Y-152794047D01*
X170304523Y-152794047D01*
%TO.C,D25*%
X148730714Y-153127380D02*
X148730714Y-152127380D01*
X148968809Y-152127380D01*
X149111666Y-152175000D01*
X149206904Y-152270238D01*
X149254523Y-152365476D01*
X149302142Y-152555952D01*
X149302142Y-152698809D01*
X149254523Y-152889285D01*
X149206904Y-152984523D01*
X149111666Y-153079761D01*
X148968809Y-153127380D01*
X148730714Y-153127380D01*
X149683095Y-152222619D02*
X149730714Y-152175000D01*
X149825952Y-152127380D01*
X150064047Y-152127380D01*
X150159285Y-152175000D01*
X150206904Y-152222619D01*
X150254523Y-152317857D01*
X150254523Y-152413095D01*
X150206904Y-152555952D01*
X149635476Y-153127380D01*
X150254523Y-153127380D01*
X151159285Y-152127380D02*
X150683095Y-152127380D01*
X150635476Y-152603571D01*
X150683095Y-152555952D01*
X150778333Y-152508333D01*
X151016428Y-152508333D01*
X151111666Y-152555952D01*
X151159285Y-152603571D01*
X151206904Y-152698809D01*
X151206904Y-152936904D01*
X151159285Y-153032142D01*
X151111666Y-153079761D01*
X151016428Y-153127380D01*
X150778333Y-153127380D01*
X150683095Y-153079761D01*
X150635476Y-153032142D01*
%TO.C,D26*%
X129680714Y-153127380D02*
X129680714Y-152127380D01*
X129918809Y-152127380D01*
X130061666Y-152175000D01*
X130156904Y-152270238D01*
X130204523Y-152365476D01*
X130252142Y-152555952D01*
X130252142Y-152698809D01*
X130204523Y-152889285D01*
X130156904Y-152984523D01*
X130061666Y-153079761D01*
X129918809Y-153127380D01*
X129680714Y-153127380D01*
X130633095Y-152222619D02*
X130680714Y-152175000D01*
X130775952Y-152127380D01*
X131014047Y-152127380D01*
X131109285Y-152175000D01*
X131156904Y-152222619D01*
X131204523Y-152317857D01*
X131204523Y-152413095D01*
X131156904Y-152555952D01*
X130585476Y-153127380D01*
X131204523Y-153127380D01*
X132061666Y-152127380D02*
X131871190Y-152127380D01*
X131775952Y-152175000D01*
X131728333Y-152222619D01*
X131633095Y-152365476D01*
X131585476Y-152555952D01*
X131585476Y-152936904D01*
X131633095Y-153032142D01*
X131680714Y-153079761D01*
X131775952Y-153127380D01*
X131966428Y-153127380D01*
X132061666Y-153079761D01*
X132109285Y-153032142D01*
X132156904Y-152936904D01*
X132156904Y-152698809D01*
X132109285Y-152603571D01*
X132061666Y-152555952D01*
X131966428Y-152508333D01*
X131775952Y-152508333D01*
X131680714Y-152555952D01*
X131633095Y-152603571D01*
X131585476Y-152698809D01*
%TO.C,D27*%
X110630714Y-153127380D02*
X110630714Y-152127380D01*
X110868809Y-152127380D01*
X111011666Y-152175000D01*
X111106904Y-152270238D01*
X111154523Y-152365476D01*
X111202142Y-152555952D01*
X111202142Y-152698809D01*
X111154523Y-152889285D01*
X111106904Y-152984523D01*
X111011666Y-153079761D01*
X110868809Y-153127380D01*
X110630714Y-153127380D01*
X111583095Y-152222619D02*
X111630714Y-152175000D01*
X111725952Y-152127380D01*
X111964047Y-152127380D01*
X112059285Y-152175000D01*
X112106904Y-152222619D01*
X112154523Y-152317857D01*
X112154523Y-152413095D01*
X112106904Y-152555952D01*
X111535476Y-153127380D01*
X112154523Y-153127380D01*
X112487857Y-152127380D02*
X113154523Y-152127380D01*
X112725952Y-153127380D01*
%TO.C,D28*%
X91580714Y-153127380D02*
X91580714Y-152127380D01*
X91818809Y-152127380D01*
X91961666Y-152175000D01*
X92056904Y-152270238D01*
X92104523Y-152365476D01*
X92152142Y-152555952D01*
X92152142Y-152698809D01*
X92104523Y-152889285D01*
X92056904Y-152984523D01*
X91961666Y-153079761D01*
X91818809Y-153127380D01*
X91580714Y-153127380D01*
X92533095Y-152222619D02*
X92580714Y-152175000D01*
X92675952Y-152127380D01*
X92914047Y-152127380D01*
X93009285Y-152175000D01*
X93056904Y-152222619D01*
X93104523Y-152317857D01*
X93104523Y-152413095D01*
X93056904Y-152555952D01*
X92485476Y-153127380D01*
X93104523Y-153127380D01*
X93675952Y-152555952D02*
X93580714Y-152508333D01*
X93533095Y-152460714D01*
X93485476Y-152365476D01*
X93485476Y-152317857D01*
X93533095Y-152222619D01*
X93580714Y-152175000D01*
X93675952Y-152127380D01*
X93866428Y-152127380D01*
X93961666Y-152175000D01*
X94009285Y-152222619D01*
X94056904Y-152317857D01*
X94056904Y-152365476D01*
X94009285Y-152460714D01*
X93961666Y-152508333D01*
X93866428Y-152555952D01*
X93675952Y-152555952D01*
X93580714Y-152603571D01*
X93533095Y-152651190D01*
X93485476Y-152746428D01*
X93485476Y-152936904D01*
X93533095Y-153032142D01*
X93580714Y-153079761D01*
X93675952Y-153127380D01*
X93866428Y-153127380D01*
X93961666Y-153079761D01*
X94009285Y-153032142D01*
X94056904Y-152936904D01*
X94056904Y-152746428D01*
X94009285Y-152651190D01*
X93961666Y-152603571D01*
X93866428Y-152555952D01*
%TO.C,D29*%
X53480714Y-153127380D02*
X53480714Y-152127380D01*
X53718809Y-152127380D01*
X53861666Y-152175000D01*
X53956904Y-152270238D01*
X54004523Y-152365476D01*
X54052142Y-152555952D01*
X54052142Y-152698809D01*
X54004523Y-152889285D01*
X53956904Y-152984523D01*
X53861666Y-153079761D01*
X53718809Y-153127380D01*
X53480714Y-153127380D01*
X54433095Y-152222619D02*
X54480714Y-152175000D01*
X54575952Y-152127380D01*
X54814047Y-152127380D01*
X54909285Y-152175000D01*
X54956904Y-152222619D01*
X55004523Y-152317857D01*
X55004523Y-152413095D01*
X54956904Y-152555952D01*
X54385476Y-153127380D01*
X55004523Y-153127380D01*
X55480714Y-153127380D02*
X55671190Y-153127380D01*
X55766428Y-153079761D01*
X55814047Y-153032142D01*
X55909285Y-152889285D01*
X55956904Y-152698809D01*
X55956904Y-152317857D01*
X55909285Y-152222619D01*
X55861666Y-152175000D01*
X55766428Y-152127380D01*
X55575952Y-152127380D01*
X55480714Y-152175000D01*
X55433095Y-152222619D01*
X55385476Y-152317857D01*
X55385476Y-152555952D01*
X55433095Y-152651190D01*
X55480714Y-152698809D01*
X55575952Y-152746428D01*
X55766428Y-152746428D01*
X55861666Y-152698809D01*
X55909285Y-152651190D01*
X55956904Y-152555952D01*
%TO.C,D30*%
X320180714Y-172177380D02*
X320180714Y-171177380D01*
X320418809Y-171177380D01*
X320561666Y-171225000D01*
X320656904Y-171320238D01*
X320704523Y-171415476D01*
X320752142Y-171605952D01*
X320752142Y-171748809D01*
X320704523Y-171939285D01*
X320656904Y-172034523D01*
X320561666Y-172129761D01*
X320418809Y-172177380D01*
X320180714Y-172177380D01*
X321085476Y-171177380D02*
X321704523Y-171177380D01*
X321371190Y-171558333D01*
X321514047Y-171558333D01*
X321609285Y-171605952D01*
X321656904Y-171653571D01*
X321704523Y-171748809D01*
X321704523Y-171986904D01*
X321656904Y-172082142D01*
X321609285Y-172129761D01*
X321514047Y-172177380D01*
X321228333Y-172177380D01*
X321133095Y-172129761D01*
X321085476Y-172082142D01*
X322323571Y-171177380D02*
X322418809Y-171177380D01*
X322514047Y-171225000D01*
X322561666Y-171272619D01*
X322609285Y-171367857D01*
X322656904Y-171558333D01*
X322656904Y-171796428D01*
X322609285Y-171986904D01*
X322561666Y-172082142D01*
X322514047Y-172129761D01*
X322418809Y-172177380D01*
X322323571Y-172177380D01*
X322228333Y-172129761D01*
X322180714Y-172082142D01*
X322133095Y-171986904D01*
X322085476Y-171796428D01*
X322085476Y-171558333D01*
X322133095Y-171367857D01*
X322180714Y-171272619D01*
X322228333Y-171225000D01*
X322323571Y-171177380D01*
%TO.C,D31*%
X301130714Y-172177380D02*
X301130714Y-171177380D01*
X301368809Y-171177380D01*
X301511666Y-171225000D01*
X301606904Y-171320238D01*
X301654523Y-171415476D01*
X301702142Y-171605952D01*
X301702142Y-171748809D01*
X301654523Y-171939285D01*
X301606904Y-172034523D01*
X301511666Y-172129761D01*
X301368809Y-172177380D01*
X301130714Y-172177380D01*
X302035476Y-171177380D02*
X302654523Y-171177380D01*
X302321190Y-171558333D01*
X302464047Y-171558333D01*
X302559285Y-171605952D01*
X302606904Y-171653571D01*
X302654523Y-171748809D01*
X302654523Y-171986904D01*
X302606904Y-172082142D01*
X302559285Y-172129761D01*
X302464047Y-172177380D01*
X302178333Y-172177380D01*
X302083095Y-172129761D01*
X302035476Y-172082142D01*
X303606904Y-172177380D02*
X303035476Y-172177380D01*
X303321190Y-172177380D02*
X303321190Y-171177380D01*
X303225952Y-171320238D01*
X303130714Y-171415476D01*
X303035476Y-171463095D01*
%TO.C,D32*%
X282080714Y-172177380D02*
X282080714Y-171177380D01*
X282318809Y-171177380D01*
X282461666Y-171225000D01*
X282556904Y-171320238D01*
X282604523Y-171415476D01*
X282652142Y-171605952D01*
X282652142Y-171748809D01*
X282604523Y-171939285D01*
X282556904Y-172034523D01*
X282461666Y-172129761D01*
X282318809Y-172177380D01*
X282080714Y-172177380D01*
X282985476Y-171177380D02*
X283604523Y-171177380D01*
X283271190Y-171558333D01*
X283414047Y-171558333D01*
X283509285Y-171605952D01*
X283556904Y-171653571D01*
X283604523Y-171748809D01*
X283604523Y-171986904D01*
X283556904Y-172082142D01*
X283509285Y-172129761D01*
X283414047Y-172177380D01*
X283128333Y-172177380D01*
X283033095Y-172129761D01*
X282985476Y-172082142D01*
X283985476Y-171272619D02*
X284033095Y-171225000D01*
X284128333Y-171177380D01*
X284366428Y-171177380D01*
X284461666Y-171225000D01*
X284509285Y-171272619D01*
X284556904Y-171367857D01*
X284556904Y-171463095D01*
X284509285Y-171605952D01*
X283937857Y-172177380D01*
X284556904Y-172177380D01*
%TO.C,D33*%
X263030714Y-172177380D02*
X263030714Y-171177380D01*
X263268809Y-171177380D01*
X263411666Y-171225000D01*
X263506904Y-171320238D01*
X263554523Y-171415476D01*
X263602142Y-171605952D01*
X263602142Y-171748809D01*
X263554523Y-171939285D01*
X263506904Y-172034523D01*
X263411666Y-172129761D01*
X263268809Y-172177380D01*
X263030714Y-172177380D01*
X263935476Y-171177380D02*
X264554523Y-171177380D01*
X264221190Y-171558333D01*
X264364047Y-171558333D01*
X264459285Y-171605952D01*
X264506904Y-171653571D01*
X264554523Y-171748809D01*
X264554523Y-171986904D01*
X264506904Y-172082142D01*
X264459285Y-172129761D01*
X264364047Y-172177380D01*
X264078333Y-172177380D01*
X263983095Y-172129761D01*
X263935476Y-172082142D01*
X264887857Y-171177380D02*
X265506904Y-171177380D01*
X265173571Y-171558333D01*
X265316428Y-171558333D01*
X265411666Y-171605952D01*
X265459285Y-171653571D01*
X265506904Y-171748809D01*
X265506904Y-171986904D01*
X265459285Y-172082142D01*
X265411666Y-172129761D01*
X265316428Y-172177380D01*
X265030714Y-172177380D01*
X264935476Y-172129761D01*
X264887857Y-172082142D01*
%TO.C,D34*%
X243980714Y-172177380D02*
X243980714Y-171177380D01*
X244218809Y-171177380D01*
X244361666Y-171225000D01*
X244456904Y-171320238D01*
X244504523Y-171415476D01*
X244552142Y-171605952D01*
X244552142Y-171748809D01*
X244504523Y-171939285D01*
X244456904Y-172034523D01*
X244361666Y-172129761D01*
X244218809Y-172177380D01*
X243980714Y-172177380D01*
X244885476Y-171177380D02*
X245504523Y-171177380D01*
X245171190Y-171558333D01*
X245314047Y-171558333D01*
X245409285Y-171605952D01*
X245456904Y-171653571D01*
X245504523Y-171748809D01*
X245504523Y-171986904D01*
X245456904Y-172082142D01*
X245409285Y-172129761D01*
X245314047Y-172177380D01*
X245028333Y-172177380D01*
X244933095Y-172129761D01*
X244885476Y-172082142D01*
X246361666Y-171510714D02*
X246361666Y-172177380D01*
X246123571Y-171129761D02*
X245885476Y-171844047D01*
X246504523Y-171844047D01*
%TO.C,D35*%
X224930714Y-172177380D02*
X224930714Y-171177380D01*
X225168809Y-171177380D01*
X225311666Y-171225000D01*
X225406904Y-171320238D01*
X225454523Y-171415476D01*
X225502142Y-171605952D01*
X225502142Y-171748809D01*
X225454523Y-171939285D01*
X225406904Y-172034523D01*
X225311666Y-172129761D01*
X225168809Y-172177380D01*
X224930714Y-172177380D01*
X225835476Y-171177380D02*
X226454523Y-171177380D01*
X226121190Y-171558333D01*
X226264047Y-171558333D01*
X226359285Y-171605952D01*
X226406904Y-171653571D01*
X226454523Y-171748809D01*
X226454523Y-171986904D01*
X226406904Y-172082142D01*
X226359285Y-172129761D01*
X226264047Y-172177380D01*
X225978333Y-172177380D01*
X225883095Y-172129761D01*
X225835476Y-172082142D01*
X227359285Y-171177380D02*
X226883095Y-171177380D01*
X226835476Y-171653571D01*
X226883095Y-171605952D01*
X226978333Y-171558333D01*
X227216428Y-171558333D01*
X227311666Y-171605952D01*
X227359285Y-171653571D01*
X227406904Y-171748809D01*
X227406904Y-171986904D01*
X227359285Y-172082142D01*
X227311666Y-172129761D01*
X227216428Y-172177380D01*
X226978333Y-172177380D01*
X226883095Y-172129761D01*
X226835476Y-172082142D01*
%TO.C,D36*%
X205880714Y-172177380D02*
X205880714Y-171177380D01*
X206118809Y-171177380D01*
X206261666Y-171225000D01*
X206356904Y-171320238D01*
X206404523Y-171415476D01*
X206452142Y-171605952D01*
X206452142Y-171748809D01*
X206404523Y-171939285D01*
X206356904Y-172034523D01*
X206261666Y-172129761D01*
X206118809Y-172177380D01*
X205880714Y-172177380D01*
X206785476Y-171177380D02*
X207404523Y-171177380D01*
X207071190Y-171558333D01*
X207214047Y-171558333D01*
X207309285Y-171605952D01*
X207356904Y-171653571D01*
X207404523Y-171748809D01*
X207404523Y-171986904D01*
X207356904Y-172082142D01*
X207309285Y-172129761D01*
X207214047Y-172177380D01*
X206928333Y-172177380D01*
X206833095Y-172129761D01*
X206785476Y-172082142D01*
X208261666Y-171177380D02*
X208071190Y-171177380D01*
X207975952Y-171225000D01*
X207928333Y-171272619D01*
X207833095Y-171415476D01*
X207785476Y-171605952D01*
X207785476Y-171986904D01*
X207833095Y-172082142D01*
X207880714Y-172129761D01*
X207975952Y-172177380D01*
X208166428Y-172177380D01*
X208261666Y-172129761D01*
X208309285Y-172082142D01*
X208356904Y-171986904D01*
X208356904Y-171748809D01*
X208309285Y-171653571D01*
X208261666Y-171605952D01*
X208166428Y-171558333D01*
X207975952Y-171558333D01*
X207880714Y-171605952D01*
X207833095Y-171653571D01*
X207785476Y-171748809D01*
%TO.C,D37*%
X186830714Y-172177380D02*
X186830714Y-171177380D01*
X187068809Y-171177380D01*
X187211666Y-171225000D01*
X187306904Y-171320238D01*
X187354523Y-171415476D01*
X187402142Y-171605952D01*
X187402142Y-171748809D01*
X187354523Y-171939285D01*
X187306904Y-172034523D01*
X187211666Y-172129761D01*
X187068809Y-172177380D01*
X186830714Y-172177380D01*
X187735476Y-171177380D02*
X188354523Y-171177380D01*
X188021190Y-171558333D01*
X188164047Y-171558333D01*
X188259285Y-171605952D01*
X188306904Y-171653571D01*
X188354523Y-171748809D01*
X188354523Y-171986904D01*
X188306904Y-172082142D01*
X188259285Y-172129761D01*
X188164047Y-172177380D01*
X187878333Y-172177380D01*
X187783095Y-172129761D01*
X187735476Y-172082142D01*
X188687857Y-171177380D02*
X189354523Y-171177380D01*
X188925952Y-172177380D01*
%TO.C,D38*%
X167780714Y-172177380D02*
X167780714Y-171177380D01*
X168018809Y-171177380D01*
X168161666Y-171225000D01*
X168256904Y-171320238D01*
X168304523Y-171415476D01*
X168352142Y-171605952D01*
X168352142Y-171748809D01*
X168304523Y-171939285D01*
X168256904Y-172034523D01*
X168161666Y-172129761D01*
X168018809Y-172177380D01*
X167780714Y-172177380D01*
X168685476Y-171177380D02*
X169304523Y-171177380D01*
X168971190Y-171558333D01*
X169114047Y-171558333D01*
X169209285Y-171605952D01*
X169256904Y-171653571D01*
X169304523Y-171748809D01*
X169304523Y-171986904D01*
X169256904Y-172082142D01*
X169209285Y-172129761D01*
X169114047Y-172177380D01*
X168828333Y-172177380D01*
X168733095Y-172129761D01*
X168685476Y-172082142D01*
X169875952Y-171605952D02*
X169780714Y-171558333D01*
X169733095Y-171510714D01*
X169685476Y-171415476D01*
X169685476Y-171367857D01*
X169733095Y-171272619D01*
X169780714Y-171225000D01*
X169875952Y-171177380D01*
X170066428Y-171177380D01*
X170161666Y-171225000D01*
X170209285Y-171272619D01*
X170256904Y-171367857D01*
X170256904Y-171415476D01*
X170209285Y-171510714D01*
X170161666Y-171558333D01*
X170066428Y-171605952D01*
X169875952Y-171605952D01*
X169780714Y-171653571D01*
X169733095Y-171701190D01*
X169685476Y-171796428D01*
X169685476Y-171986904D01*
X169733095Y-172082142D01*
X169780714Y-172129761D01*
X169875952Y-172177380D01*
X170066428Y-172177380D01*
X170161666Y-172129761D01*
X170209285Y-172082142D01*
X170256904Y-171986904D01*
X170256904Y-171796428D01*
X170209285Y-171701190D01*
X170161666Y-171653571D01*
X170066428Y-171605952D01*
%TO.C,D39*%
X148730714Y-172177380D02*
X148730714Y-171177380D01*
X148968809Y-171177380D01*
X149111666Y-171225000D01*
X149206904Y-171320238D01*
X149254523Y-171415476D01*
X149302142Y-171605952D01*
X149302142Y-171748809D01*
X149254523Y-171939285D01*
X149206904Y-172034523D01*
X149111666Y-172129761D01*
X148968809Y-172177380D01*
X148730714Y-172177380D01*
X149635476Y-171177380D02*
X150254523Y-171177380D01*
X149921190Y-171558333D01*
X150064047Y-171558333D01*
X150159285Y-171605952D01*
X150206904Y-171653571D01*
X150254523Y-171748809D01*
X150254523Y-171986904D01*
X150206904Y-172082142D01*
X150159285Y-172129761D01*
X150064047Y-172177380D01*
X149778333Y-172177380D01*
X149683095Y-172129761D01*
X149635476Y-172082142D01*
X150730714Y-172177380D02*
X150921190Y-172177380D01*
X151016428Y-172129761D01*
X151064047Y-172082142D01*
X151159285Y-171939285D01*
X151206904Y-171748809D01*
X151206904Y-171367857D01*
X151159285Y-171272619D01*
X151111666Y-171225000D01*
X151016428Y-171177380D01*
X150825952Y-171177380D01*
X150730714Y-171225000D01*
X150683095Y-171272619D01*
X150635476Y-171367857D01*
X150635476Y-171605952D01*
X150683095Y-171701190D01*
X150730714Y-171748809D01*
X150825952Y-171796428D01*
X151016428Y-171796428D01*
X151111666Y-171748809D01*
X151159285Y-171701190D01*
X151206904Y-171605952D01*
%TO.C,D40*%
X129680714Y-172177380D02*
X129680714Y-171177380D01*
X129918809Y-171177380D01*
X130061666Y-171225000D01*
X130156904Y-171320238D01*
X130204523Y-171415476D01*
X130252142Y-171605952D01*
X130252142Y-171748809D01*
X130204523Y-171939285D01*
X130156904Y-172034523D01*
X130061666Y-172129761D01*
X129918809Y-172177380D01*
X129680714Y-172177380D01*
X131109285Y-171510714D02*
X131109285Y-172177380D01*
X130871190Y-171129761D02*
X130633095Y-171844047D01*
X131252142Y-171844047D01*
X131823571Y-171177380D02*
X131918809Y-171177380D01*
X132014047Y-171225000D01*
X132061666Y-171272619D01*
X132109285Y-171367857D01*
X132156904Y-171558333D01*
X132156904Y-171796428D01*
X132109285Y-171986904D01*
X132061666Y-172082142D01*
X132014047Y-172129761D01*
X131918809Y-172177380D01*
X131823571Y-172177380D01*
X131728333Y-172129761D01*
X131680714Y-172082142D01*
X131633095Y-171986904D01*
X131585476Y-171796428D01*
X131585476Y-171558333D01*
X131633095Y-171367857D01*
X131680714Y-171272619D01*
X131728333Y-171225000D01*
X131823571Y-171177380D01*
%TO.C,D41*%
X110630714Y-172177380D02*
X110630714Y-171177380D01*
X110868809Y-171177380D01*
X111011666Y-171225000D01*
X111106904Y-171320238D01*
X111154523Y-171415476D01*
X111202142Y-171605952D01*
X111202142Y-171748809D01*
X111154523Y-171939285D01*
X111106904Y-172034523D01*
X111011666Y-172129761D01*
X110868809Y-172177380D01*
X110630714Y-172177380D01*
X112059285Y-171510714D02*
X112059285Y-172177380D01*
X111821190Y-171129761D02*
X111583095Y-171844047D01*
X112202142Y-171844047D01*
X113106904Y-172177380D02*
X112535476Y-172177380D01*
X112821190Y-172177380D02*
X112821190Y-171177380D01*
X112725952Y-171320238D01*
X112630714Y-171415476D01*
X112535476Y-171463095D01*
%TO.C,D42*%
X91580714Y-172177380D02*
X91580714Y-171177380D01*
X91818809Y-171177380D01*
X91961666Y-171225000D01*
X92056904Y-171320238D01*
X92104523Y-171415476D01*
X92152142Y-171605952D01*
X92152142Y-171748809D01*
X92104523Y-171939285D01*
X92056904Y-172034523D01*
X91961666Y-172129761D01*
X91818809Y-172177380D01*
X91580714Y-172177380D01*
X93009285Y-171510714D02*
X93009285Y-172177380D01*
X92771190Y-171129761D02*
X92533095Y-171844047D01*
X93152142Y-171844047D01*
X93485476Y-171272619D02*
X93533095Y-171225000D01*
X93628333Y-171177380D01*
X93866428Y-171177380D01*
X93961666Y-171225000D01*
X94009285Y-171272619D01*
X94056904Y-171367857D01*
X94056904Y-171463095D01*
X94009285Y-171605952D01*
X93437857Y-172177380D01*
X94056904Y-172177380D01*
%TO.C,D43*%
X72530714Y-162652380D02*
X72530714Y-161652380D01*
X72768809Y-161652380D01*
X72911666Y-161700000D01*
X73006904Y-161795238D01*
X73054523Y-161890476D01*
X73102142Y-162080952D01*
X73102142Y-162223809D01*
X73054523Y-162414285D01*
X73006904Y-162509523D01*
X72911666Y-162604761D01*
X72768809Y-162652380D01*
X72530714Y-162652380D01*
X73959285Y-161985714D02*
X73959285Y-162652380D01*
X73721190Y-161604761D02*
X73483095Y-162319047D01*
X74102142Y-162319047D01*
X74387857Y-161652380D02*
X75006904Y-161652380D01*
X74673571Y-162033333D01*
X74816428Y-162033333D01*
X74911666Y-162080952D01*
X74959285Y-162128571D01*
X75006904Y-162223809D01*
X75006904Y-162461904D01*
X74959285Y-162557142D01*
X74911666Y-162604761D01*
X74816428Y-162652380D01*
X74530714Y-162652380D01*
X74435476Y-162604761D01*
X74387857Y-162557142D01*
%TO.C,D44*%
X53480714Y-172177380D02*
X53480714Y-171177380D01*
X53718809Y-171177380D01*
X53861666Y-171225000D01*
X53956904Y-171320238D01*
X54004523Y-171415476D01*
X54052142Y-171605952D01*
X54052142Y-171748809D01*
X54004523Y-171939285D01*
X53956904Y-172034523D01*
X53861666Y-172129761D01*
X53718809Y-172177380D01*
X53480714Y-172177380D01*
X54909285Y-171510714D02*
X54909285Y-172177380D01*
X54671190Y-171129761D02*
X54433095Y-171844047D01*
X55052142Y-171844047D01*
X55861666Y-171510714D02*
X55861666Y-172177380D01*
X55623571Y-171129761D02*
X55385476Y-171844047D01*
X56004523Y-171844047D01*
%TO.C,D45*%
X320180714Y-191227380D02*
X320180714Y-190227380D01*
X320418809Y-190227380D01*
X320561666Y-190275000D01*
X320656904Y-190370238D01*
X320704523Y-190465476D01*
X320752142Y-190655952D01*
X320752142Y-190798809D01*
X320704523Y-190989285D01*
X320656904Y-191084523D01*
X320561666Y-191179761D01*
X320418809Y-191227380D01*
X320180714Y-191227380D01*
X321609285Y-190560714D02*
X321609285Y-191227380D01*
X321371190Y-190179761D02*
X321133095Y-190894047D01*
X321752142Y-190894047D01*
X322609285Y-190227380D02*
X322133095Y-190227380D01*
X322085476Y-190703571D01*
X322133095Y-190655952D01*
X322228333Y-190608333D01*
X322466428Y-190608333D01*
X322561666Y-190655952D01*
X322609285Y-190703571D01*
X322656904Y-190798809D01*
X322656904Y-191036904D01*
X322609285Y-191132142D01*
X322561666Y-191179761D01*
X322466428Y-191227380D01*
X322228333Y-191227380D01*
X322133095Y-191179761D01*
X322085476Y-191132142D01*
%TO.C,D46*%
X301130714Y-191227380D02*
X301130714Y-190227380D01*
X301368809Y-190227380D01*
X301511666Y-190275000D01*
X301606904Y-190370238D01*
X301654523Y-190465476D01*
X301702142Y-190655952D01*
X301702142Y-190798809D01*
X301654523Y-190989285D01*
X301606904Y-191084523D01*
X301511666Y-191179761D01*
X301368809Y-191227380D01*
X301130714Y-191227380D01*
X302559285Y-190560714D02*
X302559285Y-191227380D01*
X302321190Y-190179761D02*
X302083095Y-190894047D01*
X302702142Y-190894047D01*
X303511666Y-190227380D02*
X303321190Y-190227380D01*
X303225952Y-190275000D01*
X303178333Y-190322619D01*
X303083095Y-190465476D01*
X303035476Y-190655952D01*
X303035476Y-191036904D01*
X303083095Y-191132142D01*
X303130714Y-191179761D01*
X303225952Y-191227380D01*
X303416428Y-191227380D01*
X303511666Y-191179761D01*
X303559285Y-191132142D01*
X303606904Y-191036904D01*
X303606904Y-190798809D01*
X303559285Y-190703571D01*
X303511666Y-190655952D01*
X303416428Y-190608333D01*
X303225952Y-190608333D01*
X303130714Y-190655952D01*
X303083095Y-190703571D01*
X303035476Y-190798809D01*
%TO.C,D47*%
X282080714Y-191227380D02*
X282080714Y-190227380D01*
X282318809Y-190227380D01*
X282461666Y-190275000D01*
X282556904Y-190370238D01*
X282604523Y-190465476D01*
X282652142Y-190655952D01*
X282652142Y-190798809D01*
X282604523Y-190989285D01*
X282556904Y-191084523D01*
X282461666Y-191179761D01*
X282318809Y-191227380D01*
X282080714Y-191227380D01*
X283509285Y-190560714D02*
X283509285Y-191227380D01*
X283271190Y-190179761D02*
X283033095Y-190894047D01*
X283652142Y-190894047D01*
X283937857Y-190227380D02*
X284604523Y-190227380D01*
X284175952Y-191227380D01*
%TO.C,D48*%
X263030714Y-191227380D02*
X263030714Y-190227380D01*
X263268809Y-190227380D01*
X263411666Y-190275000D01*
X263506904Y-190370238D01*
X263554523Y-190465476D01*
X263602142Y-190655952D01*
X263602142Y-190798809D01*
X263554523Y-190989285D01*
X263506904Y-191084523D01*
X263411666Y-191179761D01*
X263268809Y-191227380D01*
X263030714Y-191227380D01*
X264459285Y-190560714D02*
X264459285Y-191227380D01*
X264221190Y-190179761D02*
X263983095Y-190894047D01*
X264602142Y-190894047D01*
X265125952Y-190655952D02*
X265030714Y-190608333D01*
X264983095Y-190560714D01*
X264935476Y-190465476D01*
X264935476Y-190417857D01*
X264983095Y-190322619D01*
X265030714Y-190275000D01*
X265125952Y-190227380D01*
X265316428Y-190227380D01*
X265411666Y-190275000D01*
X265459285Y-190322619D01*
X265506904Y-190417857D01*
X265506904Y-190465476D01*
X265459285Y-190560714D01*
X265411666Y-190608333D01*
X265316428Y-190655952D01*
X265125952Y-190655952D01*
X265030714Y-190703571D01*
X264983095Y-190751190D01*
X264935476Y-190846428D01*
X264935476Y-191036904D01*
X264983095Y-191132142D01*
X265030714Y-191179761D01*
X265125952Y-191227380D01*
X265316428Y-191227380D01*
X265411666Y-191179761D01*
X265459285Y-191132142D01*
X265506904Y-191036904D01*
X265506904Y-190846428D01*
X265459285Y-190751190D01*
X265411666Y-190703571D01*
X265316428Y-190655952D01*
%TO.C,D49*%
X243980714Y-191227380D02*
X243980714Y-190227380D01*
X244218809Y-190227380D01*
X244361666Y-190275000D01*
X244456904Y-190370238D01*
X244504523Y-190465476D01*
X244552142Y-190655952D01*
X244552142Y-190798809D01*
X244504523Y-190989285D01*
X244456904Y-191084523D01*
X244361666Y-191179761D01*
X244218809Y-191227380D01*
X243980714Y-191227380D01*
X245409285Y-190560714D02*
X245409285Y-191227380D01*
X245171190Y-190179761D02*
X244933095Y-190894047D01*
X245552142Y-190894047D01*
X245980714Y-191227380D02*
X246171190Y-191227380D01*
X246266428Y-191179761D01*
X246314047Y-191132142D01*
X246409285Y-190989285D01*
X246456904Y-190798809D01*
X246456904Y-190417857D01*
X246409285Y-190322619D01*
X246361666Y-190275000D01*
X246266428Y-190227380D01*
X246075952Y-190227380D01*
X245980714Y-190275000D01*
X245933095Y-190322619D01*
X245885476Y-190417857D01*
X245885476Y-190655952D01*
X245933095Y-190751190D01*
X245980714Y-190798809D01*
X246075952Y-190846428D01*
X246266428Y-190846428D01*
X246361666Y-190798809D01*
X246409285Y-190751190D01*
X246456904Y-190655952D01*
%TO.C,D50*%
X224930714Y-191227380D02*
X224930714Y-190227380D01*
X225168809Y-190227380D01*
X225311666Y-190275000D01*
X225406904Y-190370238D01*
X225454523Y-190465476D01*
X225502142Y-190655952D01*
X225502142Y-190798809D01*
X225454523Y-190989285D01*
X225406904Y-191084523D01*
X225311666Y-191179761D01*
X225168809Y-191227380D01*
X224930714Y-191227380D01*
X226406904Y-190227380D02*
X225930714Y-190227380D01*
X225883095Y-190703571D01*
X225930714Y-190655952D01*
X226025952Y-190608333D01*
X226264047Y-190608333D01*
X226359285Y-190655952D01*
X226406904Y-190703571D01*
X226454523Y-190798809D01*
X226454523Y-191036904D01*
X226406904Y-191132142D01*
X226359285Y-191179761D01*
X226264047Y-191227380D01*
X226025952Y-191227380D01*
X225930714Y-191179761D01*
X225883095Y-191132142D01*
X227073571Y-190227380D02*
X227168809Y-190227380D01*
X227264047Y-190275000D01*
X227311666Y-190322619D01*
X227359285Y-190417857D01*
X227406904Y-190608333D01*
X227406904Y-190846428D01*
X227359285Y-191036904D01*
X227311666Y-191132142D01*
X227264047Y-191179761D01*
X227168809Y-191227380D01*
X227073571Y-191227380D01*
X226978333Y-191179761D01*
X226930714Y-191132142D01*
X226883095Y-191036904D01*
X226835476Y-190846428D01*
X226835476Y-190608333D01*
X226883095Y-190417857D01*
X226930714Y-190322619D01*
X226978333Y-190275000D01*
X227073571Y-190227380D01*
%TO.C,D51*%
X205880714Y-191227380D02*
X205880714Y-190227380D01*
X206118809Y-190227380D01*
X206261666Y-190275000D01*
X206356904Y-190370238D01*
X206404523Y-190465476D01*
X206452142Y-190655952D01*
X206452142Y-190798809D01*
X206404523Y-190989285D01*
X206356904Y-191084523D01*
X206261666Y-191179761D01*
X206118809Y-191227380D01*
X205880714Y-191227380D01*
X207356904Y-190227380D02*
X206880714Y-190227380D01*
X206833095Y-190703571D01*
X206880714Y-190655952D01*
X206975952Y-190608333D01*
X207214047Y-190608333D01*
X207309285Y-190655952D01*
X207356904Y-190703571D01*
X207404523Y-190798809D01*
X207404523Y-191036904D01*
X207356904Y-191132142D01*
X207309285Y-191179761D01*
X207214047Y-191227380D01*
X206975952Y-191227380D01*
X206880714Y-191179761D01*
X206833095Y-191132142D01*
X208356904Y-191227380D02*
X207785476Y-191227380D01*
X208071190Y-191227380D02*
X208071190Y-190227380D01*
X207975952Y-190370238D01*
X207880714Y-190465476D01*
X207785476Y-190513095D01*
%TO.C,D52*%
X186830714Y-191227380D02*
X186830714Y-190227380D01*
X187068809Y-190227380D01*
X187211666Y-190275000D01*
X187306904Y-190370238D01*
X187354523Y-190465476D01*
X187402142Y-190655952D01*
X187402142Y-190798809D01*
X187354523Y-190989285D01*
X187306904Y-191084523D01*
X187211666Y-191179761D01*
X187068809Y-191227380D01*
X186830714Y-191227380D01*
X188306904Y-190227380D02*
X187830714Y-190227380D01*
X187783095Y-190703571D01*
X187830714Y-190655952D01*
X187925952Y-190608333D01*
X188164047Y-190608333D01*
X188259285Y-190655952D01*
X188306904Y-190703571D01*
X188354523Y-190798809D01*
X188354523Y-191036904D01*
X188306904Y-191132142D01*
X188259285Y-191179761D01*
X188164047Y-191227380D01*
X187925952Y-191227380D01*
X187830714Y-191179761D01*
X187783095Y-191132142D01*
X188735476Y-190322619D02*
X188783095Y-190275000D01*
X188878333Y-190227380D01*
X189116428Y-190227380D01*
X189211666Y-190275000D01*
X189259285Y-190322619D01*
X189306904Y-190417857D01*
X189306904Y-190513095D01*
X189259285Y-190655952D01*
X188687857Y-191227380D01*
X189306904Y-191227380D01*
%TO.C,D53*%
X167780714Y-191227380D02*
X167780714Y-190227380D01*
X168018809Y-190227380D01*
X168161666Y-190275000D01*
X168256904Y-190370238D01*
X168304523Y-190465476D01*
X168352142Y-190655952D01*
X168352142Y-190798809D01*
X168304523Y-190989285D01*
X168256904Y-191084523D01*
X168161666Y-191179761D01*
X168018809Y-191227380D01*
X167780714Y-191227380D01*
X169256904Y-190227380D02*
X168780714Y-190227380D01*
X168733095Y-190703571D01*
X168780714Y-190655952D01*
X168875952Y-190608333D01*
X169114047Y-190608333D01*
X169209285Y-190655952D01*
X169256904Y-190703571D01*
X169304523Y-190798809D01*
X169304523Y-191036904D01*
X169256904Y-191132142D01*
X169209285Y-191179761D01*
X169114047Y-191227380D01*
X168875952Y-191227380D01*
X168780714Y-191179761D01*
X168733095Y-191132142D01*
X169637857Y-190227380D02*
X170256904Y-190227380D01*
X169923571Y-190608333D01*
X170066428Y-190608333D01*
X170161666Y-190655952D01*
X170209285Y-190703571D01*
X170256904Y-190798809D01*
X170256904Y-191036904D01*
X170209285Y-191132142D01*
X170161666Y-191179761D01*
X170066428Y-191227380D01*
X169780714Y-191227380D01*
X169685476Y-191179761D01*
X169637857Y-191132142D01*
%TO.C,D54*%
X148730714Y-191227380D02*
X148730714Y-190227380D01*
X148968809Y-190227380D01*
X149111666Y-190275000D01*
X149206904Y-190370238D01*
X149254523Y-190465476D01*
X149302142Y-190655952D01*
X149302142Y-190798809D01*
X149254523Y-190989285D01*
X149206904Y-191084523D01*
X149111666Y-191179761D01*
X148968809Y-191227380D01*
X148730714Y-191227380D01*
X150206904Y-190227380D02*
X149730714Y-190227380D01*
X149683095Y-190703571D01*
X149730714Y-190655952D01*
X149825952Y-190608333D01*
X150064047Y-190608333D01*
X150159285Y-190655952D01*
X150206904Y-190703571D01*
X150254523Y-190798809D01*
X150254523Y-191036904D01*
X150206904Y-191132142D01*
X150159285Y-191179761D01*
X150064047Y-191227380D01*
X149825952Y-191227380D01*
X149730714Y-191179761D01*
X149683095Y-191132142D01*
X151111666Y-190560714D02*
X151111666Y-191227380D01*
X150873571Y-190179761D02*
X150635476Y-190894047D01*
X151254523Y-190894047D01*
%TO.C,D55*%
X129680714Y-191227380D02*
X129680714Y-190227380D01*
X129918809Y-190227380D01*
X130061666Y-190275000D01*
X130156904Y-190370238D01*
X130204523Y-190465476D01*
X130252142Y-190655952D01*
X130252142Y-190798809D01*
X130204523Y-190989285D01*
X130156904Y-191084523D01*
X130061666Y-191179761D01*
X129918809Y-191227380D01*
X129680714Y-191227380D01*
X131156904Y-190227380D02*
X130680714Y-190227380D01*
X130633095Y-190703571D01*
X130680714Y-190655952D01*
X130775952Y-190608333D01*
X131014047Y-190608333D01*
X131109285Y-190655952D01*
X131156904Y-190703571D01*
X131204523Y-190798809D01*
X131204523Y-191036904D01*
X131156904Y-191132142D01*
X131109285Y-191179761D01*
X131014047Y-191227380D01*
X130775952Y-191227380D01*
X130680714Y-191179761D01*
X130633095Y-191132142D01*
X132109285Y-190227380D02*
X131633095Y-190227380D01*
X131585476Y-190703571D01*
X131633095Y-190655952D01*
X131728333Y-190608333D01*
X131966428Y-190608333D01*
X132061666Y-190655952D01*
X132109285Y-190703571D01*
X132156904Y-190798809D01*
X132156904Y-191036904D01*
X132109285Y-191132142D01*
X132061666Y-191179761D01*
X131966428Y-191227380D01*
X131728333Y-191227380D01*
X131633095Y-191179761D01*
X131585476Y-191132142D01*
%TO.C,D56*%
X110630714Y-191227380D02*
X110630714Y-190227380D01*
X110868809Y-190227380D01*
X111011666Y-190275000D01*
X111106904Y-190370238D01*
X111154523Y-190465476D01*
X111202142Y-190655952D01*
X111202142Y-190798809D01*
X111154523Y-190989285D01*
X111106904Y-191084523D01*
X111011666Y-191179761D01*
X110868809Y-191227380D01*
X110630714Y-191227380D01*
X112106904Y-190227380D02*
X111630714Y-190227380D01*
X111583095Y-190703571D01*
X111630714Y-190655952D01*
X111725952Y-190608333D01*
X111964047Y-190608333D01*
X112059285Y-190655952D01*
X112106904Y-190703571D01*
X112154523Y-190798809D01*
X112154523Y-191036904D01*
X112106904Y-191132142D01*
X112059285Y-191179761D01*
X111964047Y-191227380D01*
X111725952Y-191227380D01*
X111630714Y-191179761D01*
X111583095Y-191132142D01*
X113011666Y-190227380D02*
X112821190Y-190227380D01*
X112725952Y-190275000D01*
X112678333Y-190322619D01*
X112583095Y-190465476D01*
X112535476Y-190655952D01*
X112535476Y-191036904D01*
X112583095Y-191132142D01*
X112630714Y-191179761D01*
X112725952Y-191227380D01*
X112916428Y-191227380D01*
X113011666Y-191179761D01*
X113059285Y-191132142D01*
X113106904Y-191036904D01*
X113106904Y-190798809D01*
X113059285Y-190703571D01*
X113011666Y-190655952D01*
X112916428Y-190608333D01*
X112725952Y-190608333D01*
X112630714Y-190655952D01*
X112583095Y-190703571D01*
X112535476Y-190798809D01*
%TO.C,D57*%
X91580714Y-191227380D02*
X91580714Y-190227380D01*
X91818809Y-190227380D01*
X91961666Y-190275000D01*
X92056904Y-190370238D01*
X92104523Y-190465476D01*
X92152142Y-190655952D01*
X92152142Y-190798809D01*
X92104523Y-190989285D01*
X92056904Y-191084523D01*
X91961666Y-191179761D01*
X91818809Y-191227380D01*
X91580714Y-191227380D01*
X93056904Y-190227380D02*
X92580714Y-190227380D01*
X92533095Y-190703571D01*
X92580714Y-190655952D01*
X92675952Y-190608333D01*
X92914047Y-190608333D01*
X93009285Y-190655952D01*
X93056904Y-190703571D01*
X93104523Y-190798809D01*
X93104523Y-191036904D01*
X93056904Y-191132142D01*
X93009285Y-191179761D01*
X92914047Y-191227380D01*
X92675952Y-191227380D01*
X92580714Y-191179761D01*
X92533095Y-191132142D01*
X93437857Y-190227380D02*
X94104523Y-190227380D01*
X93675952Y-191227380D01*
%TO.C,D58*%
X72530714Y-191227380D02*
X72530714Y-190227380D01*
X72768809Y-190227380D01*
X72911666Y-190275000D01*
X73006904Y-190370238D01*
X73054523Y-190465476D01*
X73102142Y-190655952D01*
X73102142Y-190798809D01*
X73054523Y-190989285D01*
X73006904Y-191084523D01*
X72911666Y-191179761D01*
X72768809Y-191227380D01*
X72530714Y-191227380D01*
X74006904Y-190227380D02*
X73530714Y-190227380D01*
X73483095Y-190703571D01*
X73530714Y-190655952D01*
X73625952Y-190608333D01*
X73864047Y-190608333D01*
X73959285Y-190655952D01*
X74006904Y-190703571D01*
X74054523Y-190798809D01*
X74054523Y-191036904D01*
X74006904Y-191132142D01*
X73959285Y-191179761D01*
X73864047Y-191227380D01*
X73625952Y-191227380D01*
X73530714Y-191179761D01*
X73483095Y-191132142D01*
X74625952Y-190655952D02*
X74530714Y-190608333D01*
X74483095Y-190560714D01*
X74435476Y-190465476D01*
X74435476Y-190417857D01*
X74483095Y-190322619D01*
X74530714Y-190275000D01*
X74625952Y-190227380D01*
X74816428Y-190227380D01*
X74911666Y-190275000D01*
X74959285Y-190322619D01*
X75006904Y-190417857D01*
X75006904Y-190465476D01*
X74959285Y-190560714D01*
X74911666Y-190608333D01*
X74816428Y-190655952D01*
X74625952Y-190655952D01*
X74530714Y-190703571D01*
X74483095Y-190751190D01*
X74435476Y-190846428D01*
X74435476Y-191036904D01*
X74483095Y-191132142D01*
X74530714Y-191179761D01*
X74625952Y-191227380D01*
X74816428Y-191227380D01*
X74911666Y-191179761D01*
X74959285Y-191132142D01*
X75006904Y-191036904D01*
X75006904Y-190846428D01*
X74959285Y-190751190D01*
X74911666Y-190703571D01*
X74816428Y-190655952D01*
%TO.C,D59*%
X53480714Y-191227380D02*
X53480714Y-190227380D01*
X53718809Y-190227380D01*
X53861666Y-190275000D01*
X53956904Y-190370238D01*
X54004523Y-190465476D01*
X54052142Y-190655952D01*
X54052142Y-190798809D01*
X54004523Y-190989285D01*
X53956904Y-191084523D01*
X53861666Y-191179761D01*
X53718809Y-191227380D01*
X53480714Y-191227380D01*
X54956904Y-190227380D02*
X54480714Y-190227380D01*
X54433095Y-190703571D01*
X54480714Y-190655952D01*
X54575952Y-190608333D01*
X54814047Y-190608333D01*
X54909285Y-190655952D01*
X54956904Y-190703571D01*
X55004523Y-190798809D01*
X55004523Y-191036904D01*
X54956904Y-191132142D01*
X54909285Y-191179761D01*
X54814047Y-191227380D01*
X54575952Y-191227380D01*
X54480714Y-191179761D01*
X54433095Y-191132142D01*
X55480714Y-191227380D02*
X55671190Y-191227380D01*
X55766428Y-191179761D01*
X55814047Y-191132142D01*
X55909285Y-190989285D01*
X55956904Y-190798809D01*
X55956904Y-190417857D01*
X55909285Y-190322619D01*
X55861666Y-190275000D01*
X55766428Y-190227380D01*
X55575952Y-190227380D01*
X55480714Y-190275000D01*
X55433095Y-190322619D01*
X55385476Y-190417857D01*
X55385476Y-190655952D01*
X55433095Y-190751190D01*
X55480714Y-190798809D01*
X55575952Y-190846428D01*
X55766428Y-190846428D01*
X55861666Y-190798809D01*
X55909285Y-190751190D01*
X55956904Y-190655952D01*
%TO.C,D60*%
X320180714Y-210277380D02*
X320180714Y-209277380D01*
X320418809Y-209277380D01*
X320561666Y-209325000D01*
X320656904Y-209420238D01*
X320704523Y-209515476D01*
X320752142Y-209705952D01*
X320752142Y-209848809D01*
X320704523Y-210039285D01*
X320656904Y-210134523D01*
X320561666Y-210229761D01*
X320418809Y-210277380D01*
X320180714Y-210277380D01*
X321609285Y-209277380D02*
X321418809Y-209277380D01*
X321323571Y-209325000D01*
X321275952Y-209372619D01*
X321180714Y-209515476D01*
X321133095Y-209705952D01*
X321133095Y-210086904D01*
X321180714Y-210182142D01*
X321228333Y-210229761D01*
X321323571Y-210277380D01*
X321514047Y-210277380D01*
X321609285Y-210229761D01*
X321656904Y-210182142D01*
X321704523Y-210086904D01*
X321704523Y-209848809D01*
X321656904Y-209753571D01*
X321609285Y-209705952D01*
X321514047Y-209658333D01*
X321323571Y-209658333D01*
X321228333Y-209705952D01*
X321180714Y-209753571D01*
X321133095Y-209848809D01*
X322323571Y-209277380D02*
X322418809Y-209277380D01*
X322514047Y-209325000D01*
X322561666Y-209372619D01*
X322609285Y-209467857D01*
X322656904Y-209658333D01*
X322656904Y-209896428D01*
X322609285Y-210086904D01*
X322561666Y-210182142D01*
X322514047Y-210229761D01*
X322418809Y-210277380D01*
X322323571Y-210277380D01*
X322228333Y-210229761D01*
X322180714Y-210182142D01*
X322133095Y-210086904D01*
X322085476Y-209896428D01*
X322085476Y-209658333D01*
X322133095Y-209467857D01*
X322180714Y-209372619D01*
X322228333Y-209325000D01*
X322323571Y-209277380D01*
%TO.C,D61*%
X301130714Y-210277380D02*
X301130714Y-209277380D01*
X301368809Y-209277380D01*
X301511666Y-209325000D01*
X301606904Y-209420238D01*
X301654523Y-209515476D01*
X301702142Y-209705952D01*
X301702142Y-209848809D01*
X301654523Y-210039285D01*
X301606904Y-210134523D01*
X301511666Y-210229761D01*
X301368809Y-210277380D01*
X301130714Y-210277380D01*
X302559285Y-209277380D02*
X302368809Y-209277380D01*
X302273571Y-209325000D01*
X302225952Y-209372619D01*
X302130714Y-209515476D01*
X302083095Y-209705952D01*
X302083095Y-210086904D01*
X302130714Y-210182142D01*
X302178333Y-210229761D01*
X302273571Y-210277380D01*
X302464047Y-210277380D01*
X302559285Y-210229761D01*
X302606904Y-210182142D01*
X302654523Y-210086904D01*
X302654523Y-209848809D01*
X302606904Y-209753571D01*
X302559285Y-209705952D01*
X302464047Y-209658333D01*
X302273571Y-209658333D01*
X302178333Y-209705952D01*
X302130714Y-209753571D01*
X302083095Y-209848809D01*
X303606904Y-210277380D02*
X303035476Y-210277380D01*
X303321190Y-210277380D02*
X303321190Y-209277380D01*
X303225952Y-209420238D01*
X303130714Y-209515476D01*
X303035476Y-209563095D01*
%TO.C,D62*%
X282080714Y-210277380D02*
X282080714Y-209277380D01*
X282318809Y-209277380D01*
X282461666Y-209325000D01*
X282556904Y-209420238D01*
X282604523Y-209515476D01*
X282652142Y-209705952D01*
X282652142Y-209848809D01*
X282604523Y-210039285D01*
X282556904Y-210134523D01*
X282461666Y-210229761D01*
X282318809Y-210277380D01*
X282080714Y-210277380D01*
X283509285Y-209277380D02*
X283318809Y-209277380D01*
X283223571Y-209325000D01*
X283175952Y-209372619D01*
X283080714Y-209515476D01*
X283033095Y-209705952D01*
X283033095Y-210086904D01*
X283080714Y-210182142D01*
X283128333Y-210229761D01*
X283223571Y-210277380D01*
X283414047Y-210277380D01*
X283509285Y-210229761D01*
X283556904Y-210182142D01*
X283604523Y-210086904D01*
X283604523Y-209848809D01*
X283556904Y-209753571D01*
X283509285Y-209705952D01*
X283414047Y-209658333D01*
X283223571Y-209658333D01*
X283128333Y-209705952D01*
X283080714Y-209753571D01*
X283033095Y-209848809D01*
X283985476Y-209372619D02*
X284033095Y-209325000D01*
X284128333Y-209277380D01*
X284366428Y-209277380D01*
X284461666Y-209325000D01*
X284509285Y-209372619D01*
X284556904Y-209467857D01*
X284556904Y-209563095D01*
X284509285Y-209705952D01*
X283937857Y-210277380D01*
X284556904Y-210277380D01*
%TO.C,D63*%
X263030714Y-210277380D02*
X263030714Y-209277380D01*
X263268809Y-209277380D01*
X263411666Y-209325000D01*
X263506904Y-209420238D01*
X263554523Y-209515476D01*
X263602142Y-209705952D01*
X263602142Y-209848809D01*
X263554523Y-210039285D01*
X263506904Y-210134523D01*
X263411666Y-210229761D01*
X263268809Y-210277380D01*
X263030714Y-210277380D01*
X264459285Y-209277380D02*
X264268809Y-209277380D01*
X264173571Y-209325000D01*
X264125952Y-209372619D01*
X264030714Y-209515476D01*
X263983095Y-209705952D01*
X263983095Y-210086904D01*
X264030714Y-210182142D01*
X264078333Y-210229761D01*
X264173571Y-210277380D01*
X264364047Y-210277380D01*
X264459285Y-210229761D01*
X264506904Y-210182142D01*
X264554523Y-210086904D01*
X264554523Y-209848809D01*
X264506904Y-209753571D01*
X264459285Y-209705952D01*
X264364047Y-209658333D01*
X264173571Y-209658333D01*
X264078333Y-209705952D01*
X264030714Y-209753571D01*
X263983095Y-209848809D01*
X264887857Y-209277380D02*
X265506904Y-209277380D01*
X265173571Y-209658333D01*
X265316428Y-209658333D01*
X265411666Y-209705952D01*
X265459285Y-209753571D01*
X265506904Y-209848809D01*
X265506904Y-210086904D01*
X265459285Y-210182142D01*
X265411666Y-210229761D01*
X265316428Y-210277380D01*
X265030714Y-210277380D01*
X264935476Y-210229761D01*
X264887857Y-210182142D01*
%TO.C,D64*%
X234455714Y-201387380D02*
X234455714Y-200387380D01*
X234693809Y-200387380D01*
X234836666Y-200435000D01*
X234931904Y-200530238D01*
X234979523Y-200625476D01*
X235027142Y-200815952D01*
X235027142Y-200958809D01*
X234979523Y-201149285D01*
X234931904Y-201244523D01*
X234836666Y-201339761D01*
X234693809Y-201387380D01*
X234455714Y-201387380D01*
X235884285Y-200387380D02*
X235693809Y-200387380D01*
X235598571Y-200435000D01*
X235550952Y-200482619D01*
X235455714Y-200625476D01*
X235408095Y-200815952D01*
X235408095Y-201196904D01*
X235455714Y-201292142D01*
X235503333Y-201339761D01*
X235598571Y-201387380D01*
X235789047Y-201387380D01*
X235884285Y-201339761D01*
X235931904Y-201292142D01*
X235979523Y-201196904D01*
X235979523Y-200958809D01*
X235931904Y-200863571D01*
X235884285Y-200815952D01*
X235789047Y-200768333D01*
X235598571Y-200768333D01*
X235503333Y-200815952D01*
X235455714Y-200863571D01*
X235408095Y-200958809D01*
X236836666Y-200720714D02*
X236836666Y-201387380D01*
X236598571Y-200339761D02*
X236360476Y-201054047D01*
X236979523Y-201054047D01*
%TO.C,D65*%
X196355714Y-201387380D02*
X196355714Y-200387380D01*
X196593809Y-200387380D01*
X196736666Y-200435000D01*
X196831904Y-200530238D01*
X196879523Y-200625476D01*
X196927142Y-200815952D01*
X196927142Y-200958809D01*
X196879523Y-201149285D01*
X196831904Y-201244523D01*
X196736666Y-201339761D01*
X196593809Y-201387380D01*
X196355714Y-201387380D01*
X197784285Y-200387380D02*
X197593809Y-200387380D01*
X197498571Y-200435000D01*
X197450952Y-200482619D01*
X197355714Y-200625476D01*
X197308095Y-200815952D01*
X197308095Y-201196904D01*
X197355714Y-201292142D01*
X197403333Y-201339761D01*
X197498571Y-201387380D01*
X197689047Y-201387380D01*
X197784285Y-201339761D01*
X197831904Y-201292142D01*
X197879523Y-201196904D01*
X197879523Y-200958809D01*
X197831904Y-200863571D01*
X197784285Y-200815952D01*
X197689047Y-200768333D01*
X197498571Y-200768333D01*
X197403333Y-200815952D01*
X197355714Y-200863571D01*
X197308095Y-200958809D01*
X198784285Y-200387380D02*
X198308095Y-200387380D01*
X198260476Y-200863571D01*
X198308095Y-200815952D01*
X198403333Y-200768333D01*
X198641428Y-200768333D01*
X198736666Y-200815952D01*
X198784285Y-200863571D01*
X198831904Y-200958809D01*
X198831904Y-201196904D01*
X198784285Y-201292142D01*
X198736666Y-201339761D01*
X198641428Y-201387380D01*
X198403333Y-201387380D01*
X198308095Y-201339761D01*
X198260476Y-201292142D01*
%TO.C,D66*%
X167780714Y-210277380D02*
X167780714Y-209277380D01*
X168018809Y-209277380D01*
X168161666Y-209325000D01*
X168256904Y-209420238D01*
X168304523Y-209515476D01*
X168352142Y-209705952D01*
X168352142Y-209848809D01*
X168304523Y-210039285D01*
X168256904Y-210134523D01*
X168161666Y-210229761D01*
X168018809Y-210277380D01*
X167780714Y-210277380D01*
X169209285Y-209277380D02*
X169018809Y-209277380D01*
X168923571Y-209325000D01*
X168875952Y-209372619D01*
X168780714Y-209515476D01*
X168733095Y-209705952D01*
X168733095Y-210086904D01*
X168780714Y-210182142D01*
X168828333Y-210229761D01*
X168923571Y-210277380D01*
X169114047Y-210277380D01*
X169209285Y-210229761D01*
X169256904Y-210182142D01*
X169304523Y-210086904D01*
X169304523Y-209848809D01*
X169256904Y-209753571D01*
X169209285Y-209705952D01*
X169114047Y-209658333D01*
X168923571Y-209658333D01*
X168828333Y-209705952D01*
X168780714Y-209753571D01*
X168733095Y-209848809D01*
X170161666Y-209277380D02*
X169971190Y-209277380D01*
X169875952Y-209325000D01*
X169828333Y-209372619D01*
X169733095Y-209515476D01*
X169685476Y-209705952D01*
X169685476Y-210086904D01*
X169733095Y-210182142D01*
X169780714Y-210229761D01*
X169875952Y-210277380D01*
X170066428Y-210277380D01*
X170161666Y-210229761D01*
X170209285Y-210182142D01*
X170256904Y-210086904D01*
X170256904Y-209848809D01*
X170209285Y-209753571D01*
X170161666Y-209705952D01*
X170066428Y-209658333D01*
X169875952Y-209658333D01*
X169780714Y-209705952D01*
X169733095Y-209753571D01*
X169685476Y-209848809D01*
%TO.C,D67*%
X148730714Y-210277380D02*
X148730714Y-209277380D01*
X148968809Y-209277380D01*
X149111666Y-209325000D01*
X149206904Y-209420238D01*
X149254523Y-209515476D01*
X149302142Y-209705952D01*
X149302142Y-209848809D01*
X149254523Y-210039285D01*
X149206904Y-210134523D01*
X149111666Y-210229761D01*
X148968809Y-210277380D01*
X148730714Y-210277380D01*
X150159285Y-209277380D02*
X149968809Y-209277380D01*
X149873571Y-209325000D01*
X149825952Y-209372619D01*
X149730714Y-209515476D01*
X149683095Y-209705952D01*
X149683095Y-210086904D01*
X149730714Y-210182142D01*
X149778333Y-210229761D01*
X149873571Y-210277380D01*
X150064047Y-210277380D01*
X150159285Y-210229761D01*
X150206904Y-210182142D01*
X150254523Y-210086904D01*
X150254523Y-209848809D01*
X150206904Y-209753571D01*
X150159285Y-209705952D01*
X150064047Y-209658333D01*
X149873571Y-209658333D01*
X149778333Y-209705952D01*
X149730714Y-209753571D01*
X149683095Y-209848809D01*
X150587857Y-209277380D02*
X151254523Y-209277380D01*
X150825952Y-210277380D01*
%TO.C,D68*%
X129680714Y-210277380D02*
X129680714Y-209277380D01*
X129918809Y-209277380D01*
X130061666Y-209325000D01*
X130156904Y-209420238D01*
X130204523Y-209515476D01*
X130252142Y-209705952D01*
X130252142Y-209848809D01*
X130204523Y-210039285D01*
X130156904Y-210134523D01*
X130061666Y-210229761D01*
X129918809Y-210277380D01*
X129680714Y-210277380D01*
X131109285Y-209277380D02*
X130918809Y-209277380D01*
X130823571Y-209325000D01*
X130775952Y-209372619D01*
X130680714Y-209515476D01*
X130633095Y-209705952D01*
X130633095Y-210086904D01*
X130680714Y-210182142D01*
X130728333Y-210229761D01*
X130823571Y-210277380D01*
X131014047Y-210277380D01*
X131109285Y-210229761D01*
X131156904Y-210182142D01*
X131204523Y-210086904D01*
X131204523Y-209848809D01*
X131156904Y-209753571D01*
X131109285Y-209705952D01*
X131014047Y-209658333D01*
X130823571Y-209658333D01*
X130728333Y-209705952D01*
X130680714Y-209753571D01*
X130633095Y-209848809D01*
X131775952Y-209705952D02*
X131680714Y-209658333D01*
X131633095Y-209610714D01*
X131585476Y-209515476D01*
X131585476Y-209467857D01*
X131633095Y-209372619D01*
X131680714Y-209325000D01*
X131775952Y-209277380D01*
X131966428Y-209277380D01*
X132061666Y-209325000D01*
X132109285Y-209372619D01*
X132156904Y-209467857D01*
X132156904Y-209515476D01*
X132109285Y-209610714D01*
X132061666Y-209658333D01*
X131966428Y-209705952D01*
X131775952Y-209705952D01*
X131680714Y-209753571D01*
X131633095Y-209801190D01*
X131585476Y-209896428D01*
X131585476Y-210086904D01*
X131633095Y-210182142D01*
X131680714Y-210229761D01*
X131775952Y-210277380D01*
X131966428Y-210277380D01*
X132061666Y-210229761D01*
X132109285Y-210182142D01*
X132156904Y-210086904D01*
X132156904Y-209896428D01*
X132109285Y-209801190D01*
X132061666Y-209753571D01*
X131966428Y-209705952D01*
%TO.C,D69*%
X110630714Y-210277380D02*
X110630714Y-209277380D01*
X110868809Y-209277380D01*
X111011666Y-209325000D01*
X111106904Y-209420238D01*
X111154523Y-209515476D01*
X111202142Y-209705952D01*
X111202142Y-209848809D01*
X111154523Y-210039285D01*
X111106904Y-210134523D01*
X111011666Y-210229761D01*
X110868809Y-210277380D01*
X110630714Y-210277380D01*
X112059285Y-209277380D02*
X111868809Y-209277380D01*
X111773571Y-209325000D01*
X111725952Y-209372619D01*
X111630714Y-209515476D01*
X111583095Y-209705952D01*
X111583095Y-210086904D01*
X111630714Y-210182142D01*
X111678333Y-210229761D01*
X111773571Y-210277380D01*
X111964047Y-210277380D01*
X112059285Y-210229761D01*
X112106904Y-210182142D01*
X112154523Y-210086904D01*
X112154523Y-209848809D01*
X112106904Y-209753571D01*
X112059285Y-209705952D01*
X111964047Y-209658333D01*
X111773571Y-209658333D01*
X111678333Y-209705952D01*
X111630714Y-209753571D01*
X111583095Y-209848809D01*
X112630714Y-210277380D02*
X112821190Y-210277380D01*
X112916428Y-210229761D01*
X112964047Y-210182142D01*
X113059285Y-210039285D01*
X113106904Y-209848809D01*
X113106904Y-209467857D01*
X113059285Y-209372619D01*
X113011666Y-209325000D01*
X112916428Y-209277380D01*
X112725952Y-209277380D01*
X112630714Y-209325000D01*
X112583095Y-209372619D01*
X112535476Y-209467857D01*
X112535476Y-209705952D01*
X112583095Y-209801190D01*
X112630714Y-209848809D01*
X112725952Y-209896428D01*
X112916428Y-209896428D01*
X113011666Y-209848809D01*
X113059285Y-209801190D01*
X113106904Y-209705952D01*
%TO.C,D70*%
X91580714Y-210277380D02*
X91580714Y-209277380D01*
X91818809Y-209277380D01*
X91961666Y-209325000D01*
X92056904Y-209420238D01*
X92104523Y-209515476D01*
X92152142Y-209705952D01*
X92152142Y-209848809D01*
X92104523Y-210039285D01*
X92056904Y-210134523D01*
X91961666Y-210229761D01*
X91818809Y-210277380D01*
X91580714Y-210277380D01*
X92485476Y-209277380D02*
X93152142Y-209277380D01*
X92723571Y-210277380D01*
X93723571Y-209277380D02*
X93818809Y-209277380D01*
X93914047Y-209325000D01*
X93961666Y-209372619D01*
X94009285Y-209467857D01*
X94056904Y-209658333D01*
X94056904Y-209896428D01*
X94009285Y-210086904D01*
X93961666Y-210182142D01*
X93914047Y-210229761D01*
X93818809Y-210277380D01*
X93723571Y-210277380D01*
X93628333Y-210229761D01*
X93580714Y-210182142D01*
X93533095Y-210086904D01*
X93485476Y-209896428D01*
X93485476Y-209658333D01*
X93533095Y-209467857D01*
X93580714Y-209372619D01*
X93628333Y-209325000D01*
X93723571Y-209277380D01*
%TO.C,D71*%
X72530714Y-210277380D02*
X72530714Y-209277380D01*
X72768809Y-209277380D01*
X72911666Y-209325000D01*
X73006904Y-209420238D01*
X73054523Y-209515476D01*
X73102142Y-209705952D01*
X73102142Y-209848809D01*
X73054523Y-210039285D01*
X73006904Y-210134523D01*
X72911666Y-210229761D01*
X72768809Y-210277380D01*
X72530714Y-210277380D01*
X73435476Y-209277380D02*
X74102142Y-209277380D01*
X73673571Y-210277380D01*
X75006904Y-210277380D02*
X74435476Y-210277380D01*
X74721190Y-210277380D02*
X74721190Y-209277380D01*
X74625952Y-209420238D01*
X74530714Y-209515476D01*
X74435476Y-209563095D01*
%TO.C,D72*%
X53480714Y-210277380D02*
X53480714Y-209277380D01*
X53718809Y-209277380D01*
X53861666Y-209325000D01*
X53956904Y-209420238D01*
X54004523Y-209515476D01*
X54052142Y-209705952D01*
X54052142Y-209848809D01*
X54004523Y-210039285D01*
X53956904Y-210134523D01*
X53861666Y-210229761D01*
X53718809Y-210277380D01*
X53480714Y-210277380D01*
X54385476Y-209277380D02*
X55052142Y-209277380D01*
X54623571Y-210277380D01*
X55385476Y-209372619D02*
X55433095Y-209325000D01*
X55528333Y-209277380D01*
X55766428Y-209277380D01*
X55861666Y-209325000D01*
X55909285Y-209372619D01*
X55956904Y-209467857D01*
X55956904Y-209563095D01*
X55909285Y-209705952D01*
X55337857Y-210277380D01*
X55956904Y-210277380D01*
%TO.C,R3*%
X85643333Y-135347380D02*
X85310000Y-134871190D01*
X85071904Y-135347380D02*
X85071904Y-134347380D01*
X85452857Y-134347380D01*
X85548095Y-134395000D01*
X85595714Y-134442619D01*
X85643333Y-134537857D01*
X85643333Y-134680714D01*
X85595714Y-134775952D01*
X85548095Y-134823571D01*
X85452857Y-134871190D01*
X85071904Y-134871190D01*
X85976666Y-134347380D02*
X86595714Y-134347380D01*
X86262380Y-134728333D01*
X86405238Y-134728333D01*
X86500476Y-134775952D01*
X86548095Y-134823571D01*
X86595714Y-134918809D01*
X86595714Y-135156904D01*
X86548095Y-135252142D01*
X86500476Y-135299761D01*
X86405238Y-135347380D01*
X86119523Y-135347380D01*
X86024285Y-135299761D01*
X85976666Y-135252142D01*
%TO.C,SW73*%
X74544761Y-172899523D02*
X74592380Y-172756666D01*
X74592380Y-172518571D01*
X74544761Y-172423333D01*
X74497142Y-172375714D01*
X74401904Y-172328095D01*
X74306666Y-172328095D01*
X74211428Y-172375714D01*
X74163809Y-172423333D01*
X74116190Y-172518571D01*
X74068571Y-172709047D01*
X74020952Y-172804285D01*
X73973333Y-172851904D01*
X73878095Y-172899523D01*
X73782857Y-172899523D01*
X73687619Y-172851904D01*
X73640000Y-172804285D01*
X73592380Y-172709047D01*
X73592380Y-172470952D01*
X73640000Y-172328095D01*
X73592380Y-171994761D02*
X74592380Y-171756666D01*
X73878095Y-171566190D01*
X74592380Y-171375714D01*
X73592380Y-171137619D01*
X73592380Y-170851904D02*
X73592380Y-170185238D01*
X74592380Y-170613809D01*
X73592380Y-169899523D02*
X73592380Y-169280476D01*
X73973333Y-169613809D01*
X73973333Y-169470952D01*
X74020952Y-169375714D01*
X74068571Y-169328095D01*
X74163809Y-169280476D01*
X74401904Y-169280476D01*
X74497142Y-169328095D01*
X74544761Y-169375714D01*
X74592380Y-169470952D01*
X74592380Y-169756666D01*
X74544761Y-169851904D01*
X74497142Y-169899523D01*
%TD*%
M02*
