%TF.GenerationSoftware,KiCad,Pcbnew,5.1.6*%
%TF.CreationDate,2020-06-07T21:01:59+02:00*%
%TF.ProjectId,DWZG60,44575a47-3630-42e6-9b69-6361645f7063,1*%
%TF.SameCoordinates,Original*%
%TF.FileFunction,Soldermask,Top*%
%TF.FilePolarity,Negative*%
%FSLAX46Y46*%
G04 Gerber Fmt 4.6, Leading zero omitted, Abs format (unit mm)*
G04 Created by KiCad (PCBNEW 5.1.6) date 2020-06-07 21:01:59*
%MOMM*%
%LPD*%
G01*
G04 APERTURE LIST*
%ADD10C,0.010000*%
%ADD11R,1.500000X1.300000*%
%ADD12C,1.800000*%
%ADD13C,4.100000*%
%ADD14C,2.300000*%
%ADD15C,3.150000*%
%ADD16O,5.100000X2.600000*%
%ADD17O,10.100000X5.100000*%
%ADD18R,1.600000X0.650000*%
%ADD19R,0.650000X1.600000*%
%ADD20R,0.550000X1.400000*%
%ADD21O,1.550000X2.100000*%
%ADD22O,1.250000X1.900000*%
%ADD23O,0.900000X0.900000*%
%ADD24R,1.800000X1.800000*%
%ADD25O,1.800000X1.800000*%
%ADD26R,1.200000X1.200000*%
%ADD27R,0.850000X1.100000*%
G04 APERTURE END LIST*
D10*
%TO.C,G\u002A\u002A\u002A*%
G36*
X216509933Y-205388467D02*
G01*
X217813800Y-205388467D01*
X217813800Y-202797667D01*
X219117667Y-202797667D01*
X219117667Y-205388467D01*
X220421533Y-205388467D01*
X220421533Y-202797667D01*
X224316200Y-202797667D01*
X224316200Y-205388467D01*
X225620067Y-205388467D01*
X225620067Y-204101533D01*
X226923933Y-204101533D01*
X226923933Y-205388467D01*
X228227800Y-205388467D01*
X228227800Y-204101533D01*
X226923933Y-204101533D01*
X225620067Y-204101533D01*
X225620067Y-202797667D01*
X229531667Y-202797667D01*
X229531667Y-209300067D01*
X225620067Y-209300067D01*
X225620067Y-207996200D01*
X228227800Y-207996200D01*
X228227800Y-206692334D01*
X223012334Y-206692334D01*
X223012334Y-204101533D01*
X221725400Y-204101533D01*
X221725400Y-206692334D01*
X212598334Y-206692334D01*
X212598334Y-204101533D01*
X213902200Y-204101533D01*
X213902200Y-205388467D01*
X215206067Y-205388467D01*
X215206067Y-204101533D01*
X213902200Y-204101533D01*
X212598334Y-204101533D01*
X212598334Y-202797667D01*
X215206067Y-202797667D01*
X215206067Y-200189934D01*
X216509933Y-200189934D01*
X216509933Y-205388467D01*
G37*
X216509933Y-205388467D02*
X217813800Y-205388467D01*
X217813800Y-202797667D01*
X219117667Y-202797667D01*
X219117667Y-205388467D01*
X220421533Y-205388467D01*
X220421533Y-202797667D01*
X224316200Y-202797667D01*
X224316200Y-205388467D01*
X225620067Y-205388467D01*
X225620067Y-204101533D01*
X226923933Y-204101533D01*
X226923933Y-205388467D01*
X228227800Y-205388467D01*
X228227800Y-204101533D01*
X226923933Y-204101533D01*
X225620067Y-204101533D01*
X225620067Y-202797667D01*
X229531667Y-202797667D01*
X229531667Y-209300067D01*
X225620067Y-209300067D01*
X225620067Y-207996200D01*
X228227800Y-207996200D01*
X228227800Y-206692334D01*
X223012334Y-206692334D01*
X223012334Y-204101533D01*
X221725400Y-204101533D01*
X221725400Y-206692334D01*
X212598334Y-206692334D01*
X212598334Y-204101533D01*
X213902200Y-204101533D01*
X213902200Y-205388467D01*
X215206067Y-205388467D01*
X215206067Y-204101533D01*
X213902200Y-204101533D01*
X212598334Y-204101533D01*
X212598334Y-202797667D01*
X215206067Y-202797667D01*
X215206067Y-200189934D01*
X216509933Y-200189934D01*
X216509933Y-205388467D01*
%TD*%
D11*
%TO.C,Y1*%
X82635000Y-150975000D03*
X80435000Y-150975000D03*
X80435000Y-152675000D03*
X82635000Y-152675000D03*
%TD*%
D12*
%TO.C,SW28*%
X92160000Y-148230000D03*
X102320000Y-148230000D03*
D13*
X97240000Y-148230000D03*
D14*
X101050000Y-145690000D03*
X94700000Y-143150000D03*
%TD*%
%TO.C,SW43*%
X75640000Y-152690000D03*
X81990000Y-155230000D03*
D13*
X78180000Y-157770000D03*
D12*
X83260000Y-157770000D03*
X73100000Y-157770000D03*
D13*
X69940000Y-145870000D03*
X69940000Y-169670000D03*
D15*
X85180000Y-169670000D03*
X85180000Y-145870000D03*
%TD*%
D16*
%TO.C,REF\u002A\u002A*%
X74950000Y-147900000D03*
%TD*%
D12*
%TO.C,SW46*%
X301710000Y-186330000D03*
X311870000Y-186330000D03*
D13*
X306790000Y-186330000D03*
D14*
X310600000Y-183790000D03*
X304250000Y-181250000D03*
%TD*%
D12*
%TO.C,SW25*%
X149310000Y-148230000D03*
X159470000Y-148230000D03*
D13*
X154390000Y-148230000D03*
D14*
X158200000Y-145690000D03*
X151850000Y-143150000D03*
%TD*%
D12*
%TO.C,SW70*%
X92160000Y-205380000D03*
X102320000Y-205380000D03*
D13*
X97240000Y-205380000D03*
D14*
X101050000Y-202840000D03*
X94700000Y-200300000D03*
%TD*%
%TO.C,SW29*%
X56600000Y-143150000D03*
X62950000Y-145690000D03*
D13*
X59140000Y-148230000D03*
D12*
X64220000Y-148230000D03*
X54060000Y-148230000D03*
%TD*%
D14*
%TO.C,SW15*%
X56600000Y-124100000D03*
X62950000Y-126640000D03*
D13*
X59140000Y-129180000D03*
D12*
X64220000Y-129180000D03*
X54060000Y-129180000D03*
%TD*%
%TO.C,SW38*%
X168360000Y-167280000D03*
X178520000Y-167280000D03*
D13*
X173440000Y-167280000D03*
D14*
X177250000Y-164740000D03*
X170900000Y-162200000D03*
%TD*%
%TO.C,SW24*%
X170900000Y-143150000D03*
X177250000Y-145690000D03*
D13*
X173440000Y-148230000D03*
D12*
X178520000Y-148230000D03*
X168360000Y-148230000D03*
%TD*%
D14*
%TO.C,SW61*%
X304250000Y-200300000D03*
X310600000Y-202840000D03*
D13*
X306790000Y-205380000D03*
D12*
X311870000Y-205380000D03*
X301710000Y-205380000D03*
%TD*%
D14*
%TO.C,SW31*%
X304250000Y-162200000D03*
X310600000Y-164740000D03*
D13*
X306790000Y-167280000D03*
D12*
X311870000Y-167280000D03*
X301710000Y-167280000D03*
%TD*%
D14*
%TO.C,SW17*%
X309330000Y-153310000D03*
X302980000Y-150770000D03*
D13*
X306790000Y-148230000D03*
D12*
X301710000Y-148230000D03*
X311870000Y-148230000D03*
%TD*%
D14*
%TO.C,SW2*%
X304250000Y-124100000D03*
X310600000Y-126640000D03*
D13*
X306790000Y-129180000D03*
D12*
X311870000Y-129180000D03*
X301710000Y-129180000D03*
%TD*%
%TO.C,SW4*%
X263610000Y-129180000D03*
X273770000Y-129180000D03*
D13*
X268690000Y-129180000D03*
D14*
X272500000Y-126640000D03*
X266150000Y-124100000D03*
%TD*%
D12*
%TO.C,SW34*%
X244560000Y-167280000D03*
X254720000Y-167280000D03*
D13*
X249640000Y-167280000D03*
D14*
X253450000Y-164740000D03*
X247100000Y-162200000D03*
%TD*%
D12*
%TO.C,SW5*%
X244560000Y-129180000D03*
X254720000Y-129180000D03*
D13*
X249640000Y-129180000D03*
D14*
X253450000Y-126640000D03*
X247100000Y-124100000D03*
%TD*%
%TO.C,SW37*%
X189950000Y-162200000D03*
X196300000Y-164740000D03*
D13*
X192490000Y-167280000D03*
D12*
X197570000Y-167280000D03*
X187410000Y-167280000D03*
%TD*%
%TO.C,SW66*%
X168360000Y-205380000D03*
X178520000Y-205380000D03*
D13*
X173440000Y-205380000D03*
D14*
X177250000Y-202840000D03*
X170900000Y-200300000D03*
%TD*%
D12*
%TO.C,SW67*%
X149310000Y-205380000D03*
X159470000Y-205380000D03*
D13*
X154390000Y-205380000D03*
D14*
X158200000Y-202840000D03*
X151850000Y-200300000D03*
%TD*%
D12*
%TO.C,SW42*%
X92160000Y-167280000D03*
X102320000Y-167280000D03*
D13*
X97240000Y-167280000D03*
D14*
X101050000Y-164740000D03*
X94700000Y-162200000D03*
%TD*%
%TO.C,SW12*%
X113750000Y-124100000D03*
X120100000Y-126640000D03*
D13*
X116290000Y-129180000D03*
D12*
X121370000Y-129180000D03*
X111210000Y-129180000D03*
%TD*%
D14*
%TO.C,SW71*%
X75650000Y-200300000D03*
X82000000Y-202840000D03*
D13*
X78190000Y-205380000D03*
D12*
X83270000Y-205380000D03*
X73110000Y-205380000D03*
%TD*%
%TO.C,SW72*%
X54060000Y-205380000D03*
X64220000Y-205380000D03*
D13*
X59140000Y-205380000D03*
D14*
X62950000Y-202840000D03*
X56600000Y-200300000D03*
%TD*%
%TO.C,SW59*%
X56600000Y-181250000D03*
X62950000Y-183790000D03*
D13*
X59140000Y-186330000D03*
D12*
X64220000Y-186330000D03*
X54060000Y-186330000D03*
%TD*%
D17*
%TO.C,REF\u002A\u002A*%
X333500000Y-176500000D03*
%TD*%
%TO.C,REF\u002A\u002A*%
X51500000Y-176500000D03*
%TD*%
D16*
%TO.C,REF\u002A\u002A*%
X309800000Y-147900000D03*
%TD*%
%TO.C,REF\u002A\u002A*%
X206800000Y-167000000D03*
%TD*%
%TO.C,REF\u002A\u002A*%
X144500000Y-205200000D03*
%TD*%
D18*
%TO.C,U1*%
X72490000Y-134070000D03*
X72490000Y-134870000D03*
X72490000Y-135670000D03*
X72490000Y-136470000D03*
X72490000Y-137270000D03*
X72490000Y-138070000D03*
X72490000Y-138870000D03*
X72490000Y-139670000D03*
X72490000Y-140470000D03*
X72490000Y-141270000D03*
X72490000Y-142070000D03*
D19*
X74190000Y-143770000D03*
X74990000Y-143770000D03*
X75790000Y-143770000D03*
X76590000Y-143770000D03*
X77390000Y-143770000D03*
X78190000Y-143770000D03*
X78990000Y-143770000D03*
X79790000Y-143770000D03*
X80590000Y-143770000D03*
X81390000Y-143770000D03*
X82190000Y-143770000D03*
D18*
X83890000Y-142070000D03*
X83890000Y-141270000D03*
X83890000Y-140470000D03*
X83890000Y-139670000D03*
X83890000Y-138870000D03*
X83890000Y-138070000D03*
X83890000Y-137270000D03*
X83890000Y-136470000D03*
X83890000Y-135670000D03*
X83890000Y-134870000D03*
X83890000Y-134070000D03*
D19*
X82190000Y-132370000D03*
X81390000Y-132370000D03*
X80590000Y-132370000D03*
X79790000Y-132370000D03*
X78990000Y-132370000D03*
X78190000Y-132370000D03*
X77390000Y-132370000D03*
X76590000Y-132370000D03*
X75790000Y-132370000D03*
X74990000Y-132370000D03*
X74190000Y-132370000D03*
%TD*%
D12*
%TO.C,SW36*%
X206460000Y-167280000D03*
X216620000Y-167280000D03*
D13*
X211540000Y-167280000D03*
D14*
X215350000Y-164740000D03*
X209000000Y-162200000D03*
%TD*%
D15*
%TO.C,SW65*%
X213915000Y-212380000D03*
X190115000Y-212380000D03*
D13*
X190115000Y-197140000D03*
X213915000Y-197140000D03*
D12*
X207095000Y-205380000D03*
X196935000Y-205380000D03*
D13*
X202015000Y-205380000D03*
D14*
X198205000Y-207920000D03*
X204555000Y-210460000D03*
%TD*%
D15*
%TO.C,SW64*%
X252015000Y-212380000D03*
X228215000Y-212380000D03*
D13*
X228215000Y-197140000D03*
X252015000Y-197140000D03*
D12*
X245195000Y-205380000D03*
X235035000Y-205380000D03*
D13*
X240115000Y-205380000D03*
D14*
X236305000Y-207920000D03*
X242655000Y-210460000D03*
%TD*%
D12*
%TO.C,SW1*%
X320760000Y-129180000D03*
X330920000Y-129180000D03*
D13*
X325840000Y-129180000D03*
D14*
X329650000Y-126640000D03*
X323300000Y-124100000D03*
%TD*%
%TO.C,SW14*%
X75650000Y-124100000D03*
X82000000Y-126640000D03*
D13*
X78190000Y-129180000D03*
D12*
X83270000Y-129180000D03*
X73110000Y-129180000D03*
%TD*%
%TO.C,SW60*%
X320760000Y-205380000D03*
X330920000Y-205380000D03*
D13*
X325840000Y-205380000D03*
D14*
X329650000Y-202840000D03*
X323300000Y-200300000D03*
%TD*%
%TO.C,R1*%
G36*
G01*
X317957500Y-131300000D02*
X318482500Y-131300000D01*
G75*
G02*
X318745000Y-131562500I0J-262500D01*
G01*
X318745000Y-132187500D01*
G75*
G02*
X318482500Y-132450000I-262500J0D01*
G01*
X317957500Y-132450000D01*
G75*
G02*
X317695000Y-132187500I0J262500D01*
G01*
X317695000Y-131562500D01*
G75*
G02*
X317957500Y-131300000I262500J0D01*
G01*
G37*
G36*
G01*
X317957500Y-133050000D02*
X318482500Y-133050000D01*
G75*
G02*
X318745000Y-133312500I0J-262500D01*
G01*
X318745000Y-133937500D01*
G75*
G02*
X318482500Y-134200000I-262500J0D01*
G01*
X317957500Y-134200000D01*
G75*
G02*
X317695000Y-133937500I0J262500D01*
G01*
X317695000Y-133312500D01*
G75*
G02*
X317957500Y-133050000I262500J0D01*
G01*
G37*
%TD*%
%TO.C,R2*%
G36*
G01*
X315417500Y-133050000D02*
X315942500Y-133050000D01*
G75*
G02*
X316205000Y-133312500I0J-262500D01*
G01*
X316205000Y-133937500D01*
G75*
G02*
X315942500Y-134200000I-262500J0D01*
G01*
X315417500Y-134200000D01*
G75*
G02*
X315155000Y-133937500I0J262500D01*
G01*
X315155000Y-133312500D01*
G75*
G02*
X315417500Y-133050000I262500J0D01*
G01*
G37*
G36*
G01*
X315417500Y-131300000D02*
X315942500Y-131300000D01*
G75*
G02*
X316205000Y-131562500I0J-262500D01*
G01*
X316205000Y-132187500D01*
G75*
G02*
X315942500Y-132450000I-262500J0D01*
G01*
X315417500Y-132450000D01*
G75*
G02*
X315155000Y-132187500I0J262500D01*
G01*
X315155000Y-131562500D01*
G75*
G02*
X315417500Y-131300000I262500J0D01*
G01*
G37*
%TD*%
%TO.C,R4*%
G36*
G01*
X70630000Y-151667500D02*
X70630000Y-151142500D01*
G75*
G02*
X70892500Y-150880000I262500J0D01*
G01*
X71517500Y-150880000D01*
G75*
G02*
X71780000Y-151142500I0J-262500D01*
G01*
X71780000Y-151667500D01*
G75*
G02*
X71517500Y-151930000I-262500J0D01*
G01*
X70892500Y-151930000D01*
G75*
G02*
X70630000Y-151667500I0J262500D01*
G01*
G37*
G36*
G01*
X72380000Y-151667500D02*
X72380000Y-151142500D01*
G75*
G02*
X72642500Y-150880000I262500J0D01*
G01*
X73267500Y-150880000D01*
G75*
G02*
X73530000Y-151142500I0J-262500D01*
G01*
X73530000Y-151667500D01*
G75*
G02*
X73267500Y-151930000I-262500J0D01*
G01*
X72642500Y-151930000D01*
G75*
G02*
X72380000Y-151667500I0J262500D01*
G01*
G37*
%TD*%
D12*
%TO.C,SW3*%
X282660000Y-129180000D03*
X292820000Y-129180000D03*
D13*
X287740000Y-129180000D03*
D14*
X291550000Y-126640000D03*
X285200000Y-124100000D03*
%TD*%
D12*
%TO.C,SW6*%
X225510000Y-129180000D03*
X235670000Y-129180000D03*
D13*
X230590000Y-129180000D03*
D14*
X234400000Y-126640000D03*
X228050000Y-124100000D03*
%TD*%
D12*
%TO.C,SW7*%
X206460000Y-129180000D03*
X216620000Y-129180000D03*
D13*
X211540000Y-129180000D03*
D14*
X215350000Y-126640000D03*
X209000000Y-124100000D03*
%TD*%
%TO.C,SW8*%
X189950000Y-124100000D03*
X196300000Y-126640000D03*
D13*
X192490000Y-129180000D03*
D12*
X197570000Y-129180000D03*
X187410000Y-129180000D03*
%TD*%
%TO.C,SW9*%
X168360000Y-129180000D03*
X178520000Y-129180000D03*
D13*
X173440000Y-129180000D03*
D14*
X177250000Y-126640000D03*
X170900000Y-124100000D03*
%TD*%
%TO.C,SW10*%
X151850000Y-124100000D03*
X158200000Y-126640000D03*
D13*
X154390000Y-129180000D03*
D12*
X159470000Y-129180000D03*
X149310000Y-129180000D03*
%TD*%
D14*
%TO.C,SW11*%
X132800000Y-124100000D03*
X139150000Y-126640000D03*
D13*
X135340000Y-129180000D03*
D12*
X140420000Y-129180000D03*
X130260000Y-129180000D03*
%TD*%
%TO.C,SW13*%
X92160000Y-129180000D03*
X102320000Y-129180000D03*
D13*
X97240000Y-129180000D03*
D14*
X101050000Y-126640000D03*
X94700000Y-124100000D03*
%TD*%
%TO.C,SW16*%
X323300000Y-143150000D03*
X329650000Y-145690000D03*
D13*
X325840000Y-148230000D03*
D12*
X330920000Y-148230000D03*
X320760000Y-148230000D03*
%TD*%
D14*
%TO.C,SW18*%
X285200000Y-143150000D03*
X291550000Y-145690000D03*
D13*
X287740000Y-148230000D03*
D12*
X292820000Y-148230000D03*
X282660000Y-148230000D03*
%TD*%
D14*
%TO.C,SW19*%
X266150000Y-143150000D03*
X272500000Y-145690000D03*
D13*
X268690000Y-148230000D03*
D12*
X273770000Y-148230000D03*
X263610000Y-148230000D03*
%TD*%
D14*
%TO.C,SW20*%
X247100000Y-143150000D03*
X253450000Y-145690000D03*
D13*
X249640000Y-148230000D03*
D12*
X254720000Y-148230000D03*
X244560000Y-148230000D03*
%TD*%
D14*
%TO.C,SW21*%
X228050000Y-143150000D03*
X234400000Y-145690000D03*
D13*
X230590000Y-148230000D03*
D12*
X235670000Y-148230000D03*
X225510000Y-148230000D03*
%TD*%
D14*
%TO.C,SW22*%
X209000000Y-143150000D03*
X215350000Y-145690000D03*
D13*
X211540000Y-148230000D03*
D12*
X216620000Y-148230000D03*
X206460000Y-148230000D03*
%TD*%
%TO.C,SW23*%
X187410000Y-148230000D03*
X197570000Y-148230000D03*
D13*
X192490000Y-148230000D03*
D14*
X196300000Y-145690000D03*
X189950000Y-143150000D03*
%TD*%
%TO.C,SW26*%
X132800000Y-143150000D03*
X139150000Y-145690000D03*
D13*
X135340000Y-148230000D03*
D12*
X140420000Y-148230000D03*
X130260000Y-148230000D03*
%TD*%
%TO.C,SW27*%
X111210000Y-148230000D03*
X121370000Y-148230000D03*
D13*
X116290000Y-148230000D03*
D14*
X120100000Y-145690000D03*
X113750000Y-143150000D03*
%TD*%
D12*
%TO.C,SW30*%
X320760000Y-167280000D03*
X330920000Y-167280000D03*
D13*
X325840000Y-167280000D03*
D14*
X329650000Y-164740000D03*
X323300000Y-162200000D03*
%TD*%
D12*
%TO.C,SW32*%
X282660000Y-167280000D03*
X292820000Y-167280000D03*
D13*
X287740000Y-167280000D03*
D14*
X291550000Y-164740000D03*
X285200000Y-162200000D03*
%TD*%
%TO.C,SW33*%
X266150000Y-162200000D03*
X272500000Y-164740000D03*
D13*
X268690000Y-167280000D03*
D12*
X273770000Y-167280000D03*
X263610000Y-167280000D03*
%TD*%
%TO.C,SW35*%
X225510000Y-167280000D03*
X235670000Y-167280000D03*
D13*
X230590000Y-167280000D03*
D14*
X234400000Y-164740000D03*
X228050000Y-162200000D03*
%TD*%
%TO.C,SW39*%
X151850000Y-162200000D03*
X158200000Y-164740000D03*
D13*
X154390000Y-167280000D03*
D12*
X159470000Y-167280000D03*
X149310000Y-167280000D03*
%TD*%
%TO.C,SW40*%
X130260000Y-167280000D03*
X140420000Y-167280000D03*
D13*
X135340000Y-167280000D03*
D14*
X139150000Y-164740000D03*
X132800000Y-162200000D03*
%TD*%
%TO.C,SW41*%
X113750000Y-162200000D03*
X120100000Y-164740000D03*
D13*
X116290000Y-167280000D03*
D12*
X121370000Y-167280000D03*
X111210000Y-167280000D03*
%TD*%
%TO.C,SW44*%
X54060000Y-167280000D03*
X64220000Y-167280000D03*
D13*
X59140000Y-167280000D03*
D14*
X62950000Y-164740000D03*
X56600000Y-162200000D03*
%TD*%
%TO.C,SW45*%
X323300000Y-181250000D03*
X329650000Y-183790000D03*
D13*
X325840000Y-186330000D03*
D12*
X330920000Y-186330000D03*
X320760000Y-186330000D03*
%TD*%
D14*
%TO.C,SW47*%
X285200000Y-181250000D03*
X291550000Y-183790000D03*
D13*
X287740000Y-186330000D03*
D12*
X292820000Y-186330000D03*
X282660000Y-186330000D03*
%TD*%
%TO.C,SW48*%
X263610000Y-186330000D03*
X273770000Y-186330000D03*
D13*
X268690000Y-186330000D03*
D14*
X272500000Y-183790000D03*
X266150000Y-181250000D03*
%TD*%
%TO.C,SW49*%
X247100000Y-181250000D03*
X253450000Y-183790000D03*
D13*
X249640000Y-186330000D03*
D12*
X254720000Y-186330000D03*
X244560000Y-186330000D03*
%TD*%
D14*
%TO.C,SW50*%
X228050000Y-181250000D03*
X234400000Y-183790000D03*
D13*
X230590000Y-186330000D03*
D12*
X235670000Y-186330000D03*
X225510000Y-186330000D03*
%TD*%
D14*
%TO.C,SW51*%
X209000000Y-181250000D03*
X215350000Y-183790000D03*
D13*
X211540000Y-186330000D03*
D12*
X216620000Y-186330000D03*
X206460000Y-186330000D03*
%TD*%
D14*
%TO.C,SW52*%
X189950000Y-181250000D03*
X196300000Y-183790000D03*
D13*
X192490000Y-186330000D03*
D12*
X197570000Y-186330000D03*
X187410000Y-186330000D03*
%TD*%
D14*
%TO.C,SW53*%
X170900000Y-181250000D03*
X177250000Y-183790000D03*
D13*
X173440000Y-186330000D03*
D12*
X178520000Y-186330000D03*
X168360000Y-186330000D03*
%TD*%
%TO.C,SW54*%
X149310000Y-186330000D03*
X159470000Y-186330000D03*
D13*
X154390000Y-186330000D03*
D14*
X158200000Y-183790000D03*
X151850000Y-181250000D03*
%TD*%
%TO.C,SW55*%
X132800000Y-181250000D03*
X139150000Y-183790000D03*
D13*
X135340000Y-186330000D03*
D12*
X140420000Y-186330000D03*
X130260000Y-186330000D03*
%TD*%
%TO.C,SW56*%
X111210000Y-186330000D03*
X121370000Y-186330000D03*
D13*
X116290000Y-186330000D03*
D14*
X120100000Y-183790000D03*
X113750000Y-181250000D03*
%TD*%
%TO.C,SW57*%
X94700000Y-181250000D03*
X101050000Y-183790000D03*
D13*
X97240000Y-186330000D03*
D12*
X102320000Y-186330000D03*
X92160000Y-186330000D03*
%TD*%
%TO.C,SW58*%
X73110000Y-186330000D03*
X83270000Y-186330000D03*
D13*
X78190000Y-186330000D03*
D14*
X82000000Y-183790000D03*
X75650000Y-181250000D03*
%TD*%
D12*
%TO.C,SW62*%
X282660000Y-205380000D03*
X292820000Y-205380000D03*
D13*
X287740000Y-205380000D03*
D14*
X291550000Y-202840000D03*
X285200000Y-200300000D03*
%TD*%
D12*
%TO.C,SW63*%
X263610000Y-205380000D03*
X273770000Y-205380000D03*
D13*
X268690000Y-205380000D03*
D14*
X272500000Y-202840000D03*
X266150000Y-200300000D03*
%TD*%
D12*
%TO.C,SW68*%
X130260000Y-205380000D03*
X140420000Y-205380000D03*
D13*
X135340000Y-205380000D03*
D14*
X139150000Y-202840000D03*
X132800000Y-200300000D03*
%TD*%
%TO.C,SW69*%
X113750000Y-200300000D03*
X120100000Y-202840000D03*
D13*
X116290000Y-205380000D03*
D12*
X121370000Y-205380000D03*
X111210000Y-205380000D03*
%TD*%
D20*
%TO.C,J1*%
X318165000Y-125619000D03*
X317515000Y-125619000D03*
X316865000Y-125619000D03*
X316215000Y-125619000D03*
X315565000Y-125619000D03*
D21*
X320590000Y-125569000D03*
X313140000Y-125569000D03*
D22*
X320740000Y-121769000D03*
X312990000Y-121769000D03*
D23*
X319365000Y-124519000D03*
X314365000Y-124519000D03*
%TD*%
D24*
%TO.C,J2*%
X67395000Y-155215000D03*
D25*
X69935000Y-155215000D03*
X67395000Y-157755000D03*
X69935000Y-157755000D03*
X67395000Y-160295000D03*
X69935000Y-160295000D03*
%TD*%
%TO.C,C1*%
G36*
G01*
X89338750Y-142027500D02*
X89901250Y-142027500D01*
G75*
G02*
X90145000Y-142271250I0J-243750D01*
G01*
X90145000Y-142758750D01*
G75*
G02*
X89901250Y-143002500I-243750J0D01*
G01*
X89338750Y-143002500D01*
G75*
G02*
X89095000Y-142758750I0J243750D01*
G01*
X89095000Y-142271250D01*
G75*
G02*
X89338750Y-142027500I243750J0D01*
G01*
G37*
G36*
G01*
X89338750Y-143602500D02*
X89901250Y-143602500D01*
G75*
G02*
X90145000Y-143846250I0J-243750D01*
G01*
X90145000Y-144333750D01*
G75*
G02*
X89901250Y-144577500I-243750J0D01*
G01*
X89338750Y-144577500D01*
G75*
G02*
X89095000Y-144333750I0J243750D01*
G01*
X89095000Y-143846250D01*
G75*
G02*
X89338750Y-143602500I243750J0D01*
G01*
G37*
%TD*%
%TO.C,C2*%
G36*
G01*
X69581250Y-135052500D02*
X69018750Y-135052500D01*
G75*
G02*
X68775000Y-134808750I0J243750D01*
G01*
X68775000Y-134321250D01*
G75*
G02*
X69018750Y-134077500I243750J0D01*
G01*
X69581250Y-134077500D01*
G75*
G02*
X69825000Y-134321250I0J-243750D01*
G01*
X69825000Y-134808750D01*
G75*
G02*
X69581250Y-135052500I-243750J0D01*
G01*
G37*
G36*
G01*
X69581250Y-133477500D02*
X69018750Y-133477500D01*
G75*
G02*
X68775000Y-133233750I0J243750D01*
G01*
X68775000Y-132746250D01*
G75*
G02*
X69018750Y-132502500I243750J0D01*
G01*
X69581250Y-132502500D01*
G75*
G02*
X69825000Y-132746250I0J-243750D01*
G01*
X69825000Y-133233750D01*
G75*
G02*
X69581250Y-133477500I-243750J0D01*
G01*
G37*
%TD*%
%TO.C,C3*%
G36*
G01*
X67041250Y-139435000D02*
X66478750Y-139435000D01*
G75*
G02*
X66235000Y-139191250I0J243750D01*
G01*
X66235000Y-138703750D01*
G75*
G02*
X66478750Y-138460000I243750J0D01*
G01*
X67041250Y-138460000D01*
G75*
G02*
X67285000Y-138703750I0J-243750D01*
G01*
X67285000Y-139191250D01*
G75*
G02*
X67041250Y-139435000I-243750J0D01*
G01*
G37*
G36*
G01*
X67041250Y-141010000D02*
X66478750Y-141010000D01*
G75*
G02*
X66235000Y-140766250I0J243750D01*
G01*
X66235000Y-140278750D01*
G75*
G02*
X66478750Y-140035000I243750J0D01*
G01*
X67041250Y-140035000D01*
G75*
G02*
X67285000Y-140278750I0J-243750D01*
G01*
X67285000Y-140766250D01*
G75*
G02*
X67041250Y-141010000I-243750J0D01*
G01*
G37*
%TD*%
%TO.C,C4*%
G36*
G01*
X86091250Y-131815000D02*
X85528750Y-131815000D01*
G75*
G02*
X85285000Y-131571250I0J243750D01*
G01*
X85285000Y-131083750D01*
G75*
G02*
X85528750Y-130840000I243750J0D01*
G01*
X86091250Y-130840000D01*
G75*
G02*
X86335000Y-131083750I0J-243750D01*
G01*
X86335000Y-131571250D01*
G75*
G02*
X86091250Y-131815000I-243750J0D01*
G01*
G37*
G36*
G01*
X86091250Y-133390000D02*
X85528750Y-133390000D01*
G75*
G02*
X85285000Y-133146250I0J243750D01*
G01*
X85285000Y-132658750D01*
G75*
G02*
X85528750Y-132415000I243750J0D01*
G01*
X86091250Y-132415000D01*
G75*
G02*
X86335000Y-132658750I0J-243750D01*
G01*
X86335000Y-133146250D01*
G75*
G02*
X86091250Y-133390000I-243750J0D01*
G01*
G37*
%TD*%
%TO.C,C5*%
G36*
G01*
X69581250Y-136982500D02*
X69018750Y-136982500D01*
G75*
G02*
X68775000Y-136738750I0J243750D01*
G01*
X68775000Y-136251250D01*
G75*
G02*
X69018750Y-136007500I243750J0D01*
G01*
X69581250Y-136007500D01*
G75*
G02*
X69825000Y-136251250I0J-243750D01*
G01*
X69825000Y-136738750D01*
G75*
G02*
X69581250Y-136982500I-243750J0D01*
G01*
G37*
G36*
G01*
X69581250Y-138557500D02*
X69018750Y-138557500D01*
G75*
G02*
X68775000Y-138313750I0J243750D01*
G01*
X68775000Y-137826250D01*
G75*
G02*
X69018750Y-137582500I243750J0D01*
G01*
X69581250Y-137582500D01*
G75*
G02*
X69825000Y-137826250I0J-243750D01*
G01*
X69825000Y-138313750D01*
G75*
G02*
X69581250Y-138557500I-243750J0D01*
G01*
G37*
%TD*%
%TO.C,C6*%
G36*
G01*
X78471250Y-152832500D02*
X77908750Y-152832500D01*
G75*
G02*
X77665000Y-152588750I0J243750D01*
G01*
X77665000Y-152101250D01*
G75*
G02*
X77908750Y-151857500I243750J0D01*
G01*
X78471250Y-151857500D01*
G75*
G02*
X78715000Y-152101250I0J-243750D01*
G01*
X78715000Y-152588750D01*
G75*
G02*
X78471250Y-152832500I-243750J0D01*
G01*
G37*
G36*
G01*
X78471250Y-151257500D02*
X77908750Y-151257500D01*
G75*
G02*
X77665000Y-151013750I0J243750D01*
G01*
X77665000Y-150526250D01*
G75*
G02*
X77908750Y-150282500I243750J0D01*
G01*
X78471250Y-150282500D01*
G75*
G02*
X78715000Y-150526250I0J-243750D01*
G01*
X78715000Y-151013750D01*
G75*
G02*
X78471250Y-151257500I-243750J0D01*
G01*
G37*
%TD*%
%TO.C,C7*%
G36*
G01*
X84258750Y-149977500D02*
X84821250Y-149977500D01*
G75*
G02*
X85065000Y-150221250I0J-243750D01*
G01*
X85065000Y-150708750D01*
G75*
G02*
X84821250Y-150952500I-243750J0D01*
G01*
X84258750Y-150952500D01*
G75*
G02*
X84015000Y-150708750I0J243750D01*
G01*
X84015000Y-150221250D01*
G75*
G02*
X84258750Y-149977500I243750J0D01*
G01*
G37*
G36*
G01*
X84258750Y-151552500D02*
X84821250Y-151552500D01*
G75*
G02*
X85065000Y-151796250I0J-243750D01*
G01*
X85065000Y-152283750D01*
G75*
G02*
X84821250Y-152527500I-243750J0D01*
G01*
X84258750Y-152527500D01*
G75*
G02*
X84015000Y-152283750I0J243750D01*
G01*
X84015000Y-151796250D01*
G75*
G02*
X84258750Y-151552500I243750J0D01*
G01*
G37*
%TD*%
D26*
%TO.C,D1*%
X324440000Y-133625000D03*
X327240000Y-133625000D03*
%TD*%
%TO.C,D2*%
X308190000Y-133625000D03*
X305390000Y-133625000D03*
%TD*%
%TO.C,D3*%
X286340000Y-133625000D03*
X289140000Y-133625000D03*
%TD*%
%TO.C,D4*%
X270090000Y-133625000D03*
X267290000Y-133625000D03*
%TD*%
%TO.C,D5*%
X251040000Y-133625000D03*
X248240000Y-133625000D03*
%TD*%
%TO.C,D6*%
X231990000Y-133625000D03*
X229190000Y-133625000D03*
%TD*%
%TO.C,D7*%
X210140000Y-133625000D03*
X212940000Y-133625000D03*
%TD*%
%TO.C,D8*%
X191090000Y-133625000D03*
X193890000Y-133625000D03*
%TD*%
%TO.C,D9*%
X174840000Y-133625000D03*
X172040000Y-133625000D03*
%TD*%
%TO.C,D10*%
X155790000Y-133625000D03*
X152990000Y-133625000D03*
%TD*%
%TO.C,D11*%
X136740000Y-133625000D03*
X133940000Y-133625000D03*
%TD*%
%TO.C,D12*%
X114890000Y-133625000D03*
X117690000Y-133625000D03*
%TD*%
%TO.C,D13*%
X98640000Y-133625000D03*
X95840000Y-133625000D03*
%TD*%
%TO.C,D14*%
X68665000Y-130735000D03*
X68665000Y-127935000D03*
%TD*%
%TO.C,D15*%
X57740000Y-133625000D03*
X60540000Y-133625000D03*
%TD*%
%TO.C,D16*%
X327240000Y-152675000D03*
X324440000Y-152675000D03*
%TD*%
%TO.C,D17*%
X308190000Y-143785000D03*
X305390000Y-143785000D03*
%TD*%
%TO.C,D18*%
X289140000Y-152675000D03*
X286340000Y-152675000D03*
%TD*%
%TO.C,D19*%
X267290000Y-152675000D03*
X270090000Y-152675000D03*
%TD*%
%TO.C,D20*%
X248240000Y-152675000D03*
X251040000Y-152675000D03*
%TD*%
%TO.C,D21*%
X229190000Y-152675000D03*
X231990000Y-152675000D03*
%TD*%
%TO.C,D22*%
X212940000Y-152675000D03*
X210140000Y-152675000D03*
%TD*%
%TO.C,D23*%
X193890000Y-152675000D03*
X191090000Y-152675000D03*
%TD*%
%TO.C,D24*%
X174840000Y-152675000D03*
X172040000Y-152675000D03*
%TD*%
%TO.C,D25*%
X152990000Y-152675000D03*
X155790000Y-152675000D03*
%TD*%
%TO.C,D26*%
X133940000Y-152675000D03*
X136740000Y-152675000D03*
%TD*%
%TO.C,D27*%
X117690000Y-152675000D03*
X114890000Y-152675000D03*
%TD*%
%TO.C,D28*%
X95840000Y-152675000D03*
X98640000Y-152675000D03*
%TD*%
%TO.C,D29*%
X60540000Y-152675000D03*
X57740000Y-152675000D03*
%TD*%
%TO.C,D30*%
X324440000Y-171725000D03*
X327240000Y-171725000D03*
%TD*%
%TO.C,D31*%
X308190000Y-171725000D03*
X305390000Y-171725000D03*
%TD*%
%TO.C,D32*%
X286340000Y-171725000D03*
X289140000Y-171725000D03*
%TD*%
%TO.C,D33*%
X270090000Y-171725000D03*
X267290000Y-171725000D03*
%TD*%
%TO.C,D34*%
X251040000Y-171725000D03*
X248240000Y-171725000D03*
%TD*%
%TO.C,D35*%
X231990000Y-171725000D03*
X229190000Y-171725000D03*
%TD*%
%TO.C,D36*%
X210140000Y-171725000D03*
X212940000Y-171725000D03*
%TD*%
%TO.C,D37*%
X191090000Y-171725000D03*
X193890000Y-171725000D03*
%TD*%
%TO.C,D38*%
X172040000Y-171725000D03*
X174840000Y-171725000D03*
%TD*%
%TO.C,D39*%
X155790000Y-171725000D03*
X152990000Y-171725000D03*
%TD*%
%TO.C,D40*%
X136740000Y-171725000D03*
X133940000Y-171725000D03*
%TD*%
%TO.C,D41*%
X117690000Y-171725000D03*
X114890000Y-171725000D03*
%TD*%
%TO.C,D42*%
X98640000Y-171725000D03*
X95840000Y-171725000D03*
%TD*%
%TO.C,D43*%
X76790000Y-162200000D03*
X79590000Y-162200000D03*
%TD*%
%TO.C,D44*%
X57740000Y-171725000D03*
X60540000Y-171725000D03*
%TD*%
%TO.C,D45*%
X327240000Y-190775000D03*
X324440000Y-190775000D03*
%TD*%
%TO.C,D46*%
X305390000Y-190775000D03*
X308190000Y-190775000D03*
%TD*%
%TO.C,D47*%
X289140000Y-190775000D03*
X286340000Y-190775000D03*
%TD*%
%TO.C,D48*%
X267290000Y-190775000D03*
X270090000Y-190775000D03*
%TD*%
%TO.C,D49*%
X248240000Y-190775000D03*
X251040000Y-190775000D03*
%TD*%
%TO.C,D50*%
X229190000Y-190775000D03*
X231990000Y-190775000D03*
%TD*%
%TO.C,D51*%
X212940000Y-190775000D03*
X210140000Y-190775000D03*
%TD*%
%TO.C,D52*%
X193890000Y-190775000D03*
X191090000Y-190775000D03*
%TD*%
%TO.C,D53*%
X172040000Y-190775000D03*
X174840000Y-190775000D03*
%TD*%
%TO.C,D54*%
X152990000Y-190775000D03*
X155790000Y-190775000D03*
%TD*%
%TO.C,D55*%
X136740000Y-190775000D03*
X133940000Y-190775000D03*
%TD*%
%TO.C,D56*%
X114890000Y-190775000D03*
X117690000Y-190775000D03*
%TD*%
%TO.C,D57*%
X95840000Y-190775000D03*
X98640000Y-190775000D03*
%TD*%
%TO.C,D58*%
X79590000Y-190775000D03*
X76790000Y-190775000D03*
%TD*%
%TO.C,D59*%
X60540000Y-190775000D03*
X57740000Y-190775000D03*
%TD*%
%TO.C,D60*%
X324440000Y-209825000D03*
X327240000Y-209825000D03*
%TD*%
%TO.C,D61*%
X308190000Y-209825000D03*
X305390000Y-209825000D03*
%TD*%
%TO.C,D62*%
X286340000Y-209825000D03*
X289140000Y-209825000D03*
%TD*%
%TO.C,D63*%
X270090000Y-209825000D03*
X267290000Y-209825000D03*
%TD*%
%TO.C,D64*%
X241515000Y-200935000D03*
X238715000Y-200935000D03*
%TD*%
%TO.C,D65*%
X203415000Y-200935000D03*
X200615000Y-200935000D03*
%TD*%
%TO.C,D66*%
X174840000Y-209825000D03*
X172040000Y-209825000D03*
%TD*%
%TO.C,D67*%
X155790000Y-209825000D03*
X152990000Y-209825000D03*
%TD*%
%TO.C,D68*%
X133940000Y-209825000D03*
X136740000Y-209825000D03*
%TD*%
%TO.C,D69*%
X114890000Y-209825000D03*
X117690000Y-209825000D03*
%TD*%
%TO.C,D70*%
X98640000Y-209825000D03*
X95840000Y-209825000D03*
%TD*%
%TO.C,D71*%
X76790000Y-209825000D03*
X79590000Y-209825000D03*
%TD*%
%TO.C,D72*%
X57740000Y-209825000D03*
X60540000Y-209825000D03*
%TD*%
%TO.C,R3*%
G36*
G01*
X90040000Y-134632500D02*
X90040000Y-135157500D01*
G75*
G02*
X89777500Y-135420000I-262500J0D01*
G01*
X89152500Y-135420000D01*
G75*
G02*
X88890000Y-135157500I0J262500D01*
G01*
X88890000Y-134632500D01*
G75*
G02*
X89152500Y-134370000I262500J0D01*
G01*
X89777500Y-134370000D01*
G75*
G02*
X90040000Y-134632500I0J-262500D01*
G01*
G37*
G36*
G01*
X88290000Y-134632500D02*
X88290000Y-135157500D01*
G75*
G02*
X88027500Y-135420000I-262500J0D01*
G01*
X87402500Y-135420000D01*
G75*
G02*
X87140000Y-135157500I0J262500D01*
G01*
X87140000Y-134632500D01*
G75*
G02*
X87402500Y-134370000I262500J0D01*
G01*
X88027500Y-134370000D01*
G75*
G02*
X88290000Y-134632500I0J-262500D01*
G01*
G37*
%TD*%
D27*
%TO.C,SW73*%
X80065000Y-174090000D03*
X76315000Y-174090000D03*
X76315000Y-168090000D03*
X80065000Y-168090000D03*
%TD*%
M02*
