M48
; DRILL file {KiCad 5.1.6} date Sun Jun  7 21:02:04 2020
; FORMAT={-:-/ absolute / inch / decimal}
; #@! TF.CreationDate,2020-06-07T21:02:04+02:00
; #@! TF.GenerationSoftware,Kicad,Pcbnew,5.1.6
; #@! TF.FileFunction,NonPlated,1,2,NPTH
FMAT,2
INCH
T1C0.0315
T2C0.0669
T3C0.0984
T4C0.1201
T5C0.1575
%
G90
G05
T1
X12.3766Y-4.9023
X12.5734Y-4.9023
T2
X4.3783Y-6.5858
X4.7783Y-6.5858
X6.6283Y-8.0858
X7.0283Y-8.0858
X5.8783Y-8.0858
X6.2783Y-8.0858
X3.6283Y-8.0858
X4.0283Y-8.0858
X8.1283Y-5.0858
X8.5283Y-5.0858
X8.8783Y-7.3358
X9.2783Y-7.3358
X7.3783Y-5.8358
X7.7783Y-5.8358
X11.8783Y-7.3358
X12.2783Y-7.3358
X7.3783Y-6.5858
X7.7783Y-6.5858
X10.3783Y-5.8358
X10.7783Y-5.8358
X4.3783Y-8.0858
X4.7783Y-8.0858
X12.6283Y-7.3358
X13.0283Y-7.3358
X10.3783Y-7.3358
X10.7783Y-7.3358
X9.6283Y-5.8358
X10.0283Y-5.8358
X7.7533Y-8.0858
X8.1533Y-8.0858
X2.8783Y-8.0858
X3.2783Y-8.0858
X2.8783Y-5.0858
X3.2783Y-5.0858
X5.1283Y-8.0858
X5.5283Y-8.0858
X5.8783Y-5.8358
X6.2783Y-5.8358
X9.6283Y-7.3358
X10.0283Y-7.3358
X8.8783Y-5.8358
X9.2783Y-5.8358
X10.3783Y-6.5858
X10.7783Y-6.5858
X6.6283Y-7.3358
X7.0283Y-7.3358
X5.8783Y-7.3358
X6.2783Y-7.3358
X5.1283Y-6.5858
X5.5283Y-6.5858
X2.8783Y-7.3358
X3.2783Y-7.3358
X5.8783Y-5.0858
X6.2783Y-5.0858
X2.1283Y-5.8358
X2.5283Y-5.8358
X11.1283Y-8.0858
X11.5283Y-8.0858
X5.8783Y-6.5858
X6.2783Y-6.5858
X7.3783Y-5.0858
X7.7783Y-5.0858
X12.6283Y-6.5858
X13.0283Y-6.5858
X8.1283Y-7.3358
X8.5283Y-7.3358
X2.1283Y-5.0858
X2.5283Y-5.0858
X12.6283Y-5.8358
X13.0283Y-5.8358
X5.1283Y-5.8358
X5.5283Y-5.8358
X3.6283Y-6.5858
X4.0283Y-6.5858
X11.1283Y-5.8358
X11.5283Y-5.8358
X7.3783Y-7.3358
X7.7783Y-7.3358
X5.1283Y-5.0858
X5.5283Y-5.0858
X4.3783Y-7.3358
X4.7783Y-7.3358
X9.2533Y-8.0858
X9.6533Y-8.0858
X2.1283Y-6.5858
X2.5283Y-6.5858
X8.1283Y-6.5858
X8.5283Y-6.5858
X6.6283Y-6.5858
X7.0283Y-6.5858
X11.8783Y-6.5858
X12.2783Y-6.5858
X8.8783Y-5.0858
X9.2783Y-5.0858
X9.6283Y-6.5858
X10.0283Y-6.5858
X6.6283Y-5.8358
X7.0283Y-5.8358
X2.1283Y-8.0858
X2.5283Y-8.0858
X12.6283Y-5.0858
X13.0283Y-5.0858
X11.1283Y-7.3358
X11.5283Y-7.3358
X12.6283Y-8.0858
X13.0283Y-8.0858
X2.1283Y-7.3358
X2.5283Y-7.3358
X8.1283Y-5.8358
X8.5283Y-5.8358
X9.6283Y-5.0858
X10.0283Y-5.0858
X8.8783Y-6.5858
X9.2783Y-6.5858
X4.3783Y-5.0858
X4.7783Y-5.0858
X11.8783Y-5.0858
X12.2783Y-5.0858
X6.6283Y-5.0858
X7.0283Y-5.0858
X11.1283Y-6.5858
X11.5283Y-6.5858
X5.1283Y-7.3358
X5.5283Y-7.3358
X11.1283Y-5.0858
X11.5283Y-5.0858
X3.6283Y-7.3358
X4.0283Y-7.3358
X3.6283Y-5.0858
X4.0283Y-5.0858
X11.8783Y-8.0858
X12.2783Y-8.0858
X11.8783Y-5.8358
X12.2783Y-5.8358
X2.878Y-6.2114
X3.278Y-6.2114
X4.3783Y-5.8358
X4.7783Y-5.8358
X3.6283Y-5.8358
X4.0283Y-5.8358
X10.3783Y-5.0858
X10.7783Y-5.0858
X10.3783Y-8.0858
X10.7783Y-8.0858
T4
X8.9848Y-8.3614
X9.9219Y-8.3614
X3.3535Y-5.7429
X3.3535Y-6.6799
X7.4848Y-8.3614
X8.4219Y-8.3614
T5
X9.0783Y-6.5858
X4.5783Y-5.0858
X12.0783Y-5.0858
X6.8283Y-5.0858
X11.3283Y-6.5858
X5.3283Y-7.3358
X11.3283Y-5.0858
X3.8283Y-7.3358
X3.8283Y-5.0858
X12.0783Y-8.0858
X12.0783Y-5.8358
X2.7535Y-5.7429
X2.7535Y-6.6799
X3.078Y-6.2114
X4.5783Y-5.8358
X3.8283Y-5.8358
X10.5783Y-5.0858
X10.5783Y-8.0858
X4.5783Y-6.5858
X6.8283Y-8.0858
X6.0783Y-8.0858
X3.8283Y-8.0858
X8.3283Y-5.0858
X9.0783Y-7.3358
X7.5783Y-5.8358
X12.0783Y-7.3358
X7.5783Y-6.5858
X10.5783Y-5.8358
X4.5783Y-8.0858
X12.8283Y-7.3358
X10.5783Y-7.3358
X9.8283Y-5.8358
X7.4848Y-7.7614
X7.9533Y-8.0858
X8.4219Y-7.7614
X3.0783Y-8.0858
X3.0783Y-5.0858
X5.3283Y-8.0858
X6.0783Y-5.8358
X9.8283Y-7.3358
X9.0783Y-5.8358
X10.5783Y-6.5858
X6.8283Y-7.3358
X6.0783Y-7.3358
X5.3283Y-6.5858
X3.0783Y-7.3358
X6.0783Y-5.0858
X2.3283Y-5.8358
X11.3283Y-8.0858
X6.0783Y-6.5858
X7.5783Y-5.0858
X12.8283Y-6.5858
X8.3283Y-7.3358
X2.3283Y-5.0858
X12.8283Y-5.8358
X5.3283Y-5.8358
X3.8283Y-6.5858
X11.3283Y-5.8358
X7.5783Y-7.3358
X5.3283Y-5.0858
X4.5783Y-7.3358
X8.9848Y-7.7614
X9.4533Y-8.0858
X9.9219Y-7.7614
X2.3283Y-6.5858
X8.3283Y-6.5858
X6.8283Y-6.5858
X12.0783Y-6.5858
X9.0783Y-5.0858
X9.8283Y-6.5858
X6.8283Y-5.8358
X2.3283Y-8.0858
X12.8283Y-5.0858
X11.3283Y-7.3358
X12.8283Y-8.0858
X2.3283Y-7.3358
X8.3283Y-5.8358
X9.8283Y-5.0858
T3
G00X8.0925Y-6.5748
M15
G01X8.1909Y-6.5748
M16
G05
G00X5.6398Y-8.0787
M15
G01X5.7382Y-8.0787
M16
G05
G00X12.1476Y-5.8228
M15
G01X12.2461Y-5.8228
M16
G05
G00X2.9016Y-5.8228
M15
G01X3.0Y-5.8228
M16
G05
T0
M30
